<?xml version="1.0" encoding="UTF-8" standalone="no"?>
<!-- Created with Inkscape (http://www.inkscape.org/) -->

<svg
   width="3cm"
   height="3cm"
   viewBox="0 0 960 960"
   version="1.1"
   id="svg1"
   inkscape:version="1.3.2 (091e20e, 2023-11-25)"
   sodipodi:docname="lab_logo_min.svg"
   xml:space="preserve"
   inkscape:export-filename="cablab_logo.webp"
   inkscape:export-xdpi="96"
   inkscape:export-ydpi="96"
   xmlns:inkscape="http://www.inkscape.org/namespaces/inkscape"
   xmlns:sodipodi="http://sodipodi.sourceforge.net/DTD/sodipodi-0.dtd"
   xmlns="http://www.w3.org/2000/svg"
   xmlns:svg="http://www.w3.org/2000/svg"><sodipodi:namedview
     id="namedview1"
     pagecolor="#000000"
     bordercolor="#eeeeee"
     borderopacity="1"
     inkscape:showpageshadow="false"
     inkscape:pageopacity="0"
     inkscape:pagecheckerboard="false"
     inkscape:deskcolor="#d1d1d1"
     inkscape:document-units="mm"
     labelstyle="default"
     inkscape:zoom="4.2738291"
     inkscape:cx="53.932901"
     inkscape:cy="59.782456"
     inkscape:window-width="1440"
     inkscape:window-height="872"
     inkscape:window-x="0"
     inkscape:window-y="0"
     inkscape:window-maximized="0"
     inkscape:current-layer="svg1"
     inkscape:export-bgcolor="#00000000"
     showguides="false" /><defs
     id="defs1"><inkscape:path-effect
       effect="interpolate_points"
       id="path-effect15"
       is_visible="true"
       lpeversion="1"
       interpolator_type="CentripetalCatmullRom" /><inkscape:path-effect
       effect="skeletal"
       id="path-effect14"
       is_visible="true"
       lpeversion="1"
       pattern="m 1.2797,26.32718 q 13.75,-50 27.5,0 13.75,50 27.5,0 13.75,-50 27.5,0 13.75,50 27.5,0"
       copytype="repeated_stretched"
       prop_scale="0.71857742"
       scale_y_rel="false"
       spacing="0"
       normal_offset="0"
       tang_offset="0"
       prop_units="false"
       vertical_pattern="false"
       hide_knot="false"
       fuse_tolerance="0" /><inkscape:path-effect
       effect="interpolate_points"
       id="path-effect13"
       is_visible="true"
       lpeversion="1"
       interpolator_type="CentripetalCatmullRom" /><inkscape:path-effect
       effect="powerstroke"
       message=""
       id="path-effect12"
       is_visible="true"
       lpeversion="1.3"
       scale_width="1"
       interpolator_type="CubicBezierJohan"
       interpolator_beta="0.2"
       start_linecap_type="zerowidth"
       end_linecap_type="zerowidth"
       offset_points="0.57324451,1.4309765"
       linejoin_type="extrp_arc"
       miter_limit="4"
       not_jump="false"
       sort_points="true" /><inkscape:path-effect
       effect="powerstroke"
       message=""
       id="path-effect11"
       is_visible="true"
       lpeversion="1.3"
       scale_width="1"
       interpolator_type="CubicBezierJohan"
       interpolator_beta="0.2"
       start_linecap_type="zerowidth"
       end_linecap_type="zerowidth"
       offset_points="2,7.5081455"
       linejoin_type="extrp_arc"
       miter_limit="4"
       not_jump="false"
       sort_points="true" /><inkscape:path-effect
       effect="skeletal"
       id="path-effect10"
       is_visible="true"
       lpeversion="1"
       pattern="m -525.79244,-186.23892 q 33.48076,-33.48076 66.96152,0 33.48077,33.48076 66.96153,0 33.48076,-33.48076 66.96152,0 33.48077,33.48076 66.96153,0"
       copytype="repeated_stretched"
       prop_scale="1"
       scale_y_rel="false"
       spacing="0"
       normal_offset="0"
       tang_offset="0"
       prop_units="false"
       vertical_pattern="false"
       hide_knot="false"
       fuse_tolerance="0" /><inkscape:path-effect
       effect="lattice2"
       gridpoint0="48.899528,127.28551"
       gridpoint1="71.898518,127.28551"
       gridpoint2="48.899528,148.79592"
       gridpoint3="71.898518,148.79592"
       gridpoint4="54.649276,127.28551"
       gridpoint5="66.148771,127.28551"
       gridpoint6="54.649276,148.79592"
       gridpoint7="66.148771,148.79592"
       gridpoint8x9="60.399023,127.28551"
       gridpoint10x11="60.399023,148.79592"
       gridpoint12="48.899528,132.66311"
       gridpoint13="71.898518,132.66311"
       gridpoint14="48.899528,143.41832"
       gridpoint15="71.898518,143.41832"
       gridpoint16="54.105098,132.99797"
       gridpoint17="66.692948,132.99797"
       gridpoint18="54.105098,143.08346"
       gridpoint19="66.692948,143.08346"
       gridpoint20x21="58.892174,134.00253"
       gridpoint22x23="58.892174,142.0789"
       gridpoint24x26="48.899528,138.04072"
       gridpoint25x27="71.898518,138.04072"
       gridpoint28x30="54.649276,138.04072"
       gridpoint29x31="66.148771,138.04072"
       gridpoint32x33x34x35="60.399023,138.04072"
       id="path-effect9"
       is_visible="true"
       lpeversion="1"
       horizontal_mirror="true"
       vertical_mirror="true"
       perimetral="false"
       live_update="true" /><inkscape:path-effect
       effect="skeletal"
       id="path-effect8"
       is_visible="true"
       lpeversion="1"
       pattern="M 0,0 H 1"
       copytype="repeated"
       prop_scale="1"
       scale_y_rel="false"
       spacing="0"
       normal_offset="0"
       tang_offset="0"
       prop_units="false"
       vertical_pattern="false"
       hide_knot="false"
       fuse_tolerance="0" /><inkscape:path-effect
       effect="bend_path"
       id="path-effect7"
       is_visible="true"
       lpeversion="1"
       bendpath="m 48.899528,138.04072 h 22.99899"
       prop_scale="2"
       scale_y_rel="false"
       vertical="false"
       hide_knot="false" /><inkscape:path-effect
       effect="knot"
       id="path-effect6"
       is_visible="true"
       lpeversion="1"
       switcher_size="8.3"
       interruption_width="2.8"
       prop_to_stroke_width="true"
       add_stroke_width="inkscape_1.0_and_up"
       both="false"
       inverse_width="false"
       add_other_stroke_width="inkscape_1.0_and_up"
       crossing_points_vector="" /><inkscape:path-effect
       effect="skeletal"
       id="path-effect5"
       is_visible="true"
       lpeversion="1"
       pattern="M 0,0 H 1"
       copytype="repeated"
       prop_scale="1"
       scale_y_rel="false"
       spacing="0"
       normal_offset="0"
       tang_offset="0"
       prop_units="false"
       vertical_pattern="false"
       hide_knot="false"
       fuse_tolerance="0" /><inkscape:path-effect
       effect="powerstroke"
       message=""
       id="path-effect4"
       is_visible="true"
       lpeversion="1.3"
       scale_width="1"
       interpolator_type="CubicBezierJohan"
       interpolator_beta="0.2"
       start_linecap_type="zerowidth"
       end_linecap_type="zerowidth"
       offset_points="6,0"
       linejoin_type="extrp_arc"
       miter_limit="4"
       not_jump="false"
       sort_points="true" /><marker
       style="overflow:visible"
       id="marker2"
       refX="0"
       refY="0"
       orient="auto"
       inkscape:stockid="Dot"
       markerWidth="0.40000001"
       markerHeight="0.40000001"
       viewBox="0 0 1 1"
       inkscape:isstock="true"
       inkscape:collect="always"
       preserveAspectRatio="xMidYMid"><path
         transform="scale(0.5)"
         style="fill:context-stroke;fill-rule:evenodd;stroke:none"
         d="M 5,0 C 5,2.76 2.76,5 0,5 -2.76,5 -5,2.76 -5,0 c 0,-2.76 2.3,-5 5,-5 2.76,0 5,2.24 5,5 z"
         sodipodi:nodetypes="sssss"
         id="path2" /></marker><filter
       inkscape:collect="always"
       style="color-interpolation-filters:sRGB"
       id="filter3"
       x="-0.94320948"
       y="-0.94320948"
       width="2.886419"
       height="2.886419"><feGaussianBlur
         inkscape:collect="always"
         stdDeviation="0.38904683"
         id="feGaussianBlur3" /></filter><inkscape:path-effect
       effect="powerstroke"
       message=""
       id="path-effect4-2"
       is_visible="true"
       lpeversion="1.3"
       scale_width="1"
       interpolator_type="CubicBezierJohan"
       interpolator_beta="0.2"
       start_linecap_type="zerowidth"
       end_linecap_type="zerowidth"
       offset_points="6,0"
       linejoin_type="extrp_arc"
       miter_limit="4"
       not_jump="false"
       sort_points="true" /><inkscape:path-effect
       effect="powerstroke"
       message=""
       id="path-effect4-5"
       is_visible="true"
       lpeversion="1.3"
       scale_width="1"
       interpolator_type="CubicBezierJohan"
       interpolator_beta="0.2"
       start_linecap_type="zerowidth"
       end_linecap_type="zerowidth"
       offset_points="0.11396142,0"
       linejoin_type="extrp_arc"
       miter_limit="4"
       not_jump="false"
       sort_points="true" /><marker
       style="overflow:visible"
       id="marker2-7"
       refX="0"
       refY="0"
       orient="auto"
       inkscape:stockid="Dot"
       markerWidth="0.40000001"
       markerHeight="0.40000001"
       viewBox="0 0 1 1"
       inkscape:isstock="true"
       inkscape:collect="always"
       preserveAspectRatio="xMidYMid"><path
         transform="scale(0.5)"
         style="fill:context-stroke;fill-rule:evenodd;stroke:none"
         d="M 5,0 C 5,2.76 2.76,5 0,5 -2.76,5 -5,2.76 -5,0 c 0,-2.76 2.3,-5 5,-5 2.76,0 5,2.24 5,5 z"
         sodipodi:nodetypes="sssss"
         id="path2-3" /></marker><marker
       style="overflow:visible"
       id="marker2-7-4"
       refX="0"
       refY="0"
       orient="auto"
       inkscape:stockid="Dot"
       markerWidth="0.40000001"
       markerHeight="0.40000001"
       viewBox="0 0 1 1"
       inkscape:isstock="true"
       inkscape:collect="always"
       preserveAspectRatio="xMidYMid"><path
         transform="scale(0.5)"
         style="fill:context-stroke;fill-rule:evenodd;stroke:none"
         d="M 5,0 C 5,2.76 2.76,5 0,5 -2.76,5 -5,2.76 -5,0 c 0,-2.76 2.3,-5 5,-5 2.76,0 5,2.24 5,5 z"
         sodipodi:nodetypes="sssss"
         id="path2-3-7" /></marker><marker
       style="overflow:visible"
       id="marker2-7-4-0"
       refX="0"
       refY="0"
       orient="auto"
       inkscape:stockid="Dot"
       markerWidth="0.40000001"
       markerHeight="0.40000001"
       viewBox="0 0 1 1"
       inkscape:isstock="true"
       inkscape:collect="always"
       preserveAspectRatio="xMidYMid"><path
         transform="scale(0.5)"
         style="fill:context-stroke;fill-rule:evenodd;stroke:none"
         d="M 5,0 C 5,2.76 2.76,5 0,5 -2.76,5 -5,2.76 -5,0 c 0,-2.76 2.3,-5 5,-5 2.76,0 5,2.24 5,5 z"
         sodipodi:nodetypes="sssss"
         id="path2-3-7-6" /></marker><marker
       style="overflow:visible"
       id="marker2-7-4-0-4"
       refX="0"
       refY="0"
       orient="auto"
       inkscape:stockid="Dot"
       markerWidth="0.40000001"
       markerHeight="0.40000001"
       viewBox="0 0 1 1"
       inkscape:isstock="true"
       inkscape:collect="always"
       preserveAspectRatio="xMidYMid"><path
         transform="scale(0.5)"
         style="fill:context-stroke;fill-rule:evenodd;stroke:none"
         d="M 5,0 C 5,2.76 2.76,5 0,5 -2.76,5 -5,2.76 -5,0 c 0,-2.76 2.3,-5 5,-5 2.76,0 5,2.24 5,5 z"
         sodipodi:nodetypes="sssss"
         id="path2-3-7-6-7" /></marker><marker
       style="overflow:visible"
       id="marker2-7-4-5"
       refX="0"
       refY="0"
       orient="auto"
       inkscape:stockid="Dot"
       markerWidth="0.40000001"
       markerHeight="0.40000001"
       viewBox="0 0 1 1"
       inkscape:isstock="true"
       inkscape:collect="always"
       preserveAspectRatio="xMidYMid"><path
         transform="scale(0.5)"
         style="fill:context-stroke;fill-rule:evenodd;stroke:none"
         d="M 5,0 C 5,2.76 2.76,5 0,5 -2.76,5 -5,2.76 -5,0 c 0,-2.76 2.3,-5 5,-5 2.76,0 5,2.24 5,5 z"
         sodipodi:nodetypes="sssss"
         id="path2-3-7-2" /></marker><marker
       style="overflow:visible"
       id="marker2-7-4-5-7"
       refX="0"
       refY="0"
       orient="auto"
       inkscape:stockid="Dot"
       markerWidth="0.40000001"
       markerHeight="0.40000001"
       viewBox="0 0 1 1"
       inkscape:isstock="true"
       inkscape:collect="always"
       preserveAspectRatio="xMidYMid"><path
         transform="scale(0.5)"
         style="fill:context-stroke;fill-rule:evenodd;stroke:none"
         d="M 5,0 C 5,2.76 2.76,5 0,5 -2.76,5 -5,2.76 -5,0 c 0,-2.76 2.3,-5 5,-5 2.76,0 5,2.24 5,5 z"
         sodipodi:nodetypes="sssss"
         id="path2-3-7-2-8" /></marker><marker
       style="overflow:visible"
       id="marker2-7-4-0-4-4"
       refX="0"
       refY="0"
       orient="auto"
       inkscape:stockid="Dot"
       markerWidth="0.40000001"
       markerHeight="0.40000001"
       viewBox="0 0 1 1"
       inkscape:isstock="true"
       inkscape:collect="always"
       preserveAspectRatio="xMidYMid"><path
         transform="scale(0.5)"
         style="fill:context-stroke;fill-rule:evenodd;stroke:none"
         d="M 5,0 C 5,2.76 2.76,5 0,5 -2.76,5 -5,2.76 -5,0 c 0,-2.76 2.3,-5 5,-5 2.76,0 5,2.24 5,5 z"
         sodipodi:nodetypes="sssss"
         id="path2-3-7-6-7-9" /></marker><marker
       style="overflow:visible"
       id="marker2-7-4-0-4-4-2"
       refX="0"
       refY="0"
       orient="auto"
       inkscape:stockid="Dot"
       markerWidth="0.40000001"
       markerHeight="0.40000001"
       viewBox="0 0 1 1"
       inkscape:isstock="true"
       inkscape:collect="always"
       preserveAspectRatio="xMidYMid"><path
         transform="scale(0.5)"
         style="fill:context-stroke;fill-rule:evenodd;stroke:none"
         d="M 5,0 C 5,2.76 2.76,5 0,5 -2.76,5 -5,2.76 -5,0 c 0,-2.76 2.3,-5 5,-5 2.76,0 5,2.24 5,5 z"
         sodipodi:nodetypes="sssss"
         id="path2-3-7-6-7-9-7" /></marker><marker
       style="overflow:visible"
       id="marker2-7-4-0-4-4-2-5"
       refX="0"
       refY="0"
       orient="auto"
       inkscape:stockid="Dot"
       markerWidth="0.40000001"
       markerHeight="0.40000001"
       viewBox="0 0 1 1"
       inkscape:isstock="true"
       inkscape:collect="always"
       preserveAspectRatio="xMidYMid"><path
         transform="scale(0.5)"
         style="fill:context-stroke;fill-rule:evenodd;stroke:none"
         d="M 5,0 C 5,2.76 2.76,5 0,5 -2.76,5 -5,2.76 -5,0 c 0,-2.76 2.3,-5 5,-5 2.76,0 5,2.24 5,5 z"
         sodipodi:nodetypes="sssss"
         id="path2-3-7-6-7-9-7-9" /></marker><marker
       style="overflow:visible"
       id="marker2-7-4-0-4-4-2-5-1"
       refX="0"
       refY="0"
       orient="auto"
       inkscape:stockid="Dot"
       markerWidth="0.40000001"
       markerHeight="0.40000001"
       viewBox="0 0 1 1"
       inkscape:isstock="true"
       inkscape:collect="always"
       preserveAspectRatio="xMidYMid"><path
         transform="scale(0.5)"
         style="fill:context-stroke;fill-rule:evenodd;stroke:none"
         d="M 5,0 C 5,2.76 2.76,5 0,5 -2.76,5 -5,2.76 -5,0 c 0,-2.76 2.3,-5 5,-5 2.76,0 5,2.24 5,5 z"
         sodipodi:nodetypes="sssss"
         id="path2-3-7-6-7-9-7-9-1" /></marker><inkscape:path-effect
       effect="powerstroke"
       message=""
       id="path-effect4-5-4"
       is_visible="true"
       lpeversion="1.3"
       scale_width="1"
       interpolator_type="CubicBezierJohan"
       interpolator_beta="0.2"
       start_linecap_type="zerowidth"
       end_linecap_type="zerowidth"
       offset_points="0.11396142,0"
       linejoin_type="extrp_arc"
       miter_limit="4"
       not_jump="false"
       sort_points="true" /><inkscape:path-effect
       effect="powerstroke"
       message=""
       id="path-effect4-5-4-3"
       is_visible="true"
       lpeversion="1.3"
       scale_width="1"
       interpolator_type="CubicBezierJohan"
       interpolator_beta="0.2"
       start_linecap_type="zerowidth"
       end_linecap_type="zerowidth"
       offset_points="0.39380169,0"
       linejoin_type="extrp_arc"
       miter_limit="4"
       not_jump="false"
       sort_points="true" /><inkscape:path-effect
       effect="powerstroke"
       message=""
       id="path-effect4-5-4-3-5"
       is_visible="true"
       lpeversion="1.3"
       scale_width="1"
       interpolator_type="CubicBezierJohan"
       interpolator_beta="0.2"
       start_linecap_type="zerowidth"
       end_linecap_type="zerowidth"
       offset_points="0.31401624,0"
       linejoin_type="extrp_arc"
       miter_limit="4"
       not_jump="false"
       sort_points="true" /><inkscape:path-effect
       effect="skeletal"
       id="path-effect10-0"
       is_visible="true"
       lpeversion="1"
       pattern="M 0,0 H 1"
       copytype="single_stretched"
       prop_scale="1"
       scale_y_rel="false"
       spacing="0"
       normal_offset="0"
       tang_offset="0"
       prop_units="false"
       vertical_pattern="false"
       hide_knot="false"
       fuse_tolerance="0" /><filter
       inkscape:collect="always"
       style="color-interpolation-filters:sRGB"
       id="filter15"
       x="-1.0654905"
       y="-1.0654905"
       width="3.130981"
       height="3.130981"><feGaussianBlur
         inkscape:collect="always"
         stdDeviation="7.2660553"
         id="feGaussianBlur15" /></filter><inkscape:path-effect
       effect="skeletal"
       id="path-effect14-5"
       is_visible="true"
       lpeversion="1"
       pattern="m 1.2797,26.32718 q 13.75,-50 27.5,0 13.75,50 27.5,0 13.75,-50 27.5,0 13.75,50 27.5,0"
       copytype="repeated_stretched"
       prop_scale="0.5"
       scale_y_rel="false"
       spacing="0"
       normal_offset="0"
       tang_offset="0"
       prop_units="false"
       vertical_pattern="false"
       hide_knot="false"
       fuse_tolerance="0" /><inkscape:path-effect
       effect="skeletal"
       id="path-effect14-1"
       is_visible="true"
       lpeversion="1"
       pattern="m 1.2797,26.32718 q 13.75,-50 27.5,0 13.75,50 27.5,0 13.75,-50 27.5,0 13.75,50 27.5,0"
       copytype="repeated_stretched"
       prop_scale="0.71857742"
       scale_y_rel="false"
       spacing="0"
       normal_offset="0"
       tang_offset="0"
       prop_units="false"
       vertical_pattern="false"
       hide_knot="false"
       fuse_tolerance="0" /><filter
       inkscape:collect="always"
       style="color-interpolation-filters:sRGB"
       id="filter3-9-8"
       x="-0.0058974378"
       y="-0.0058974378"
       width="1.0117949"
       height="1.0117949"><feGaussianBlur
         inkscape:collect="always"
         stdDeviation="0.38904683"
         id="feGaussianBlur3-9-6" /></filter></defs><g
     inkscape:groupmode="layer"
     id="layer2-9"
     inkscape:label="Hexagon-external"
     transform="translate(-104.58539,-243.33799)"
     style="display:none"><path
       id="path4-3"
       style="opacity:1;fill:none;fill-opacity:0.430557;fill-rule:evenodd;stroke:#333333;stroke-width:78.6336;stroke-linecap:round;stroke-linejoin:round;stroke-dasharray:none;stroke-dashoffset:0;stroke-opacity:1;marker-start:url(#marker2-7);marker-mid:url(#marker2-7);marker-end:url(#marker2-7);paint-order:stroke fill markers"
       inkscape:label="hexagon-external"
       d="M 201.60747,913.66788 -137.96032,1109.7175"
       sodipodi:nodetypes="cc" /><path
       id="path4-3-3"
       style="fill:none;fill-opacity:0.430557;fill-rule:evenodd;stroke:#333333;stroke-width:78.6336;stroke-linecap:round;stroke-linejoin:round;stroke-dasharray:none;stroke-dashoffset:0;stroke-opacity:1;marker-start:url(#marker2-7-4);marker-mid:url(#marker2-7-4);marker-end:url(#marker2-7-4);paint-order:stroke fill markers"
       inkscape:label="hexagon-external"
       d="M 1220.3108,325.51923 880.74309,521.56871"
       sodipodi:nodetypes="cc" /><path
       id="path4-3-3-4"
       style="fill:none;fill-opacity:0.430557;fill-rule:evenodd;stroke:#333333;stroke-width:78.6336;stroke-linecap:round;stroke-linejoin:round;stroke-dasharray:none;stroke-dashoffset:0;stroke-opacity:1;marker-start:url(#marker2-7-4-5);marker-mid:url(#marker2-7-4-5);marker-end:url(#marker2-7-4-5);paint-order:stroke fill markers"
       inkscape:label="hexagon-external"
       d="M -137.9603,325.51918 201.60745,521.56876"
       sodipodi:nodetypes="cc" /><path
       id="path4-3-3-4-3"
       style="fill:none;fill-opacity:0.430557;fill-rule:evenodd;stroke:#333333;stroke-width:78.6336;stroke-linecap:round;stroke-linejoin:round;stroke-dasharray:none;stroke-dashoffset:0;stroke-opacity:1;marker-start:url(#marker2-7-4-5-7);marker-mid:url(#marker2-7-4-5-7);marker-end:url(#marker2-7-4-5-7);paint-order:stroke fill markers"
       inkscape:label="hexagon-external"
       d="M 880.74309,909.60094 1220.3108,1105.6505"
       sodipodi:nodetypes="cc" /><path
       id="path4-3-3-1"
       style="fill:none;fill-opacity:0.430557;fill-rule:evenodd;stroke:#333333;stroke-width:78.6336;stroke-linecap:round;stroke-linejoin:round;stroke-dasharray:none;stroke-dashoffset:0;stroke-opacity:1;marker-start:url(#marker2-7-4-0);marker-mid:url(#marker2-7-4-0);marker-end:url(#marker2-7-4-0);paint-order:stroke fill markers"
       inkscape:label="hexagon-external"
       d="m 541.17526,1109.7175 v 392.0991"
       sodipodi:nodetypes="cc" /><path
       id="path4-3-3-1-3"
       style="fill:none;fill-opacity:0.430557;fill-rule:evenodd;stroke:#333333;stroke-width:78.6336;stroke-linecap:round;stroke-linejoin:round;stroke-dasharray:none;stroke-dashoffset:0;stroke-opacity:1;marker-start:url(#marker2-7-4-0-4);marker-mid:url(#marker2-7-4-0-4);marker-end:url(#marker2-7-4-0-4);paint-order:stroke fill markers"
       inkscape:label="hexagon-external"
       d="M 541.17526,-66.286278 V 325.81282"
       sodipodi:nodetypes="cc" /><path
       id="path4-3-3-1-3-7"
       style="fill:none;fill-opacity:0.430557;fill-rule:evenodd;stroke:#333333;stroke-width:78.6336;stroke-linecap:round;stroke-linejoin:round;stroke-dasharray:none;stroke-dashoffset:0;stroke-opacity:1;marker-start:url(#marker2-7-4-0-4-4);marker-mid:url(#marker2-7-4-0-4-4);marker-end:url(#marker2-7-4-0-4-4);paint-order:stroke fill markers"
       inkscape:label="hexagon-external"
       d="M 1220.3108,-66.286278 V 325.81282"
       sodipodi:nodetypes="cc" /><path
       id="path4-3-3-1-3-7-0"
       style="fill:none;fill-opacity:0.430557;fill-rule:evenodd;stroke:#333333;stroke-width:78.6336;stroke-linecap:round;stroke-linejoin:round;stroke-dasharray:none;stroke-dashoffset:0;stroke-opacity:1;marker-start:url(#marker2-7-4-0-4-4-2);marker-mid:url(#marker2-7-4-0-4-4-2);marker-end:url(#marker2-7-4-0-4-4-2);paint-order:stroke fill markers"
       inkscape:label="hexagon-external"
       d="M -137.9603,-66.286278 V 325.81282"
       sodipodi:nodetypes="cc" /><path
       id="path4-3-3-1-3-7-0-1"
       style="fill:none;fill-opacity:0.430557;fill-rule:evenodd;stroke:#333333;stroke-width:78.6336;stroke-linecap:round;stroke-linejoin:round;stroke-dasharray:none;stroke-dashoffset:0;stroke-opacity:1;marker-start:url(#marker2-7-4-0-4-4-2-5);marker-mid:url(#marker2-7-4-0-4-4-2-5);marker-end:url(#marker2-7-4-0-4-4-2-5);paint-order:stroke fill markers"
       inkscape:label="hexagon-external"
       d="m -137.96032,1109.7175 v 392.0991"
       sodipodi:nodetypes="cc" /><path
       id="path4-3-3-1-3-7-0-1-6"
       style="fill:none;fill-opacity:0.430557;fill-rule:evenodd;stroke:#333333;stroke-width:78.6336;stroke-linecap:round;stroke-linejoin:round;stroke-dasharray:none;stroke-dashoffset:0;stroke-opacity:1;marker-start:url(#marker2-7-4-0-4-4-2-5-1);marker-mid:url(#marker2-7-4-0-4-4-2-5-1);marker-end:url(#marker2-7-4-0-4-4-2-5-1);paint-order:stroke fill markers"
       inkscape:label="hexagon-external"
       d="m 1220.3108,1105.6505 v 392.0989"
       sodipodi:nodetypes="cc" /></g><path
     sodipodi:type="star"
     style="display:none;opacity:1;mix-blend-mode:normal;fill:#000000;fill-opacity:0;stroke-width:448"
     id="path4"
     inkscape:flatsided="true"
     sodipodi:sides="6"
     sodipodi:cx="89.821007"
     sodipodi:cy="-1.7474904"
     sodipodi:r1="31.750992"
     sodipodi:r2="27.497166"
     sodipodi:arg1="0.52359878"
     sodipodi:arg2="1.0471976"
     inkscape:rounded="0"
     inkscape:randomized="0"
     d="M 117.31817,14.128006 89.821007,30.003501 62.323841,14.128005 l 0,-31.750991 27.497166,-15.875496 27.497163,15.875496 z"
     inkscape:label="path4"
     transform="matrix(12.803498,0,0,12.803498,-712.67866,496.29849)"
     inkscape:transform-center-y="-2.5414492e-06"
     inkscape:transform-center-x="3.2220309e-05" /><g
     inkscape:groupmode="layer"
     id="layer2"
     inkscape:label="Hexagon"
     transform="translate(-47.99998,72.09881)"><path
       style="display:none;fill:#3c7ec4;fill-opacity:0.898039;stroke-width:0.485918"
       d="m 134.15639,553.12568 c 1.36958,12.11475 2.87361,17.66655 7.24185,26.72516 3.90175,8.09245 14.91444,20.8948 17.97408,20.8948 0.29578,0 0.5374,0.18372 0.5374,0.40785 0,0.22374 0.49236,0.66432 1.09333,0.97799 0.60144,0.31364 2.18673,1.2264 3.52311,2.02821 4.84296,2.90564 13.22552,6.75842 17.97903,8.26293 7.76532,2.45798 7.92825,2.49613 11.58113,2.72054 1.91518,0.11766 4.9035,0.41613 6.6409,0.66312 1.73693,0.24727 4.32465,0.5906 5.75028,0.76322 2.41371,0.29225 2.83126,0.55411 6.07413,3.80684 3.80472,3.81674 7.20438,6.60889 8.04694,6.60889 0.2953,0 0.53858,0.16485 0.54021,0.36432 0,0.40879 1.86413,1.57442 5.82805,3.65212 2.8046,1.46988 4.06373,1.97476 9.23263,3.70157 5.64952,1.88763 6.32982,2.07532 9.13562,2.52085 1.52311,0.24185 3.75316,0.6516 4.95554,0.91039 3.49129,0.75121 20.71066,0.63181 23.82941,-0.16482 1.45952,-0.37302 3.5817,-0.82913 4.71628,-1.01399 1.1341,-0.18608 2.18577,-0.53576 2.33672,-0.7797 0.15073,-0.24419 0.71962,-0.44388 1.26383,-0.44388 0.54423,0 1.56976,-0.30073 2.27949,-0.66806 0.70905,-0.36807 3.03895,-1.501 5.17713,-2.51806 2.13772,-1.01751 3.96016,-2.02845 4.04942,-2.24723 0.0917,-0.21897 0.37087,-0.3975 0.62684,-0.3975 0.54515,0 3.50991,-2.01903 3.74632,-2.55123 0.0921,-0.20005 0.36806,-0.3643 0.62027,-0.3643 0.76272,0 6.75064,-5.54001 10.14423,-9.38525 1.20686,-1.36769 1.20686,-1.36769 -0.23314,-0.81994 -0.79241,0.30118 -1.55444,0.69797 -1.69336,0.88186 -0.83855,1.10729 -8.44498,3.89071 -15.43061,5.64648 -5.54568,1.39358 -4.98828,3.09806 -4.98828,-15.25236 0,-16.0132 0,-16.0132 -3.85843,-18.95061 -2.12245,-1.61544 -4.09034,-2.93744 -4.37341,-2.93744 -0.35344,0 -0.51477,6.00886 -0.51477,19.19388 0,19.19364 0,19.19364 -3.09756,19.19364 -6.85355,0 -6.23069,2.29338 -6.0503,-22.2665 0.16003,-21.64409 0.16003,-21.64409 -3.72891,-23.0118 -2.13796,-0.7519 -4.01972,-1.36792 -4.182,-1.36862 -0.16235,0 -0.405,9.7425 -0.53971,21.65166 -0.25856,22.84622 -0.25974,22.8559 -2.59786,22.14378 -7.46558,-2.27337 -6.78737,0.20027 -6.62536,-24.17604 0.16482,-24.64227 0.70008,-22.64726 -5.84543,-21.75007 -2.73445,0.37467 -2.74814,0.4785 -2.87151,21.80917 -0.11314,19.49695 0.04,18.70998 -3.2556,16.53293 -1.42654,-0.94195 -2.69959,-1.7122 -2.82862,-1.7122 -0.12726,0 -0.5402,-0.27341 -0.91274,-0.60734 -0.37255,-0.33414 -1.03614,-0.91132 -1.4746,-1.28246 -0.71965,-0.60871 -0.77545,-2.33692 -0.56987,-17.67852 0.22842,-17.00364 0.22842,-17.00364 -2.98315,-16.70412 -1.76563,0.16486 -3.28452,0.52181 -3.37472,0.79312 -0.0917,0.27129 -0.63839,0.49332 -1.21744,0.49332 -1.04837,4.9e-4 -1.05312,0.0495 -1.22593,12.75528 -0.0941,7.01556 -0.22842,12.81603 -0.29766,12.89069 -0.26115,0.28515 -5.47786,-5.25014 -6.84203,-7.25953 -0.78697,-1.15976 -1.557,-2.2178 -1.71079,-2.35153 -0.15535,-0.13428 -0.42999,-0.57083 -0.61387,-0.97166 -0.18373,-0.40103 -0.77336,-1.38487 -1.30955,-2.18669 -0.53667,-0.80183 -1.23795,-2.05907 -1.55914,-2.79402 -0.32073,-0.73495 -0.73684,-1.33637 -0.92449,-1.33637 -0.18847,0 -0.48465,-0.65584 -0.66081,-1.45765 -0.1766,-0.80184 -0.52159,-1.45789 -0.76745,-1.45789 -0.24585,0 -0.44741,-0.39538 -0.44741,-0.87884 0,-0.48345 -0.32098,-1.30341 -0.71329,-1.82218 -0.39256,-0.51879 -0.72056,-1.31022 -0.72906,-1.7586 -0.0237,-0.63228 -0.64334,-0.88118 -2.80955,-1.10819 -7.41072,-0.77594 -19.94606,-4.52837 -21.98743,-6.58155 -0.13428,-0.13427 -1.20003,-0.89388 -2.36994,-1.68798 -4.48315,-3.04313 -7.52916,-7.91016 -9.43492,-15.07477 -0.35181,-1.32293 -0.60545,-31.27638 -0.79451,-93.78248 -0.25552,-84.446 -0.34312,-91.97562 -1.0894,-93.53947 -0.44644,-0.93536 -0.95345,-2.19281 -1.12608,-2.79403 -0.17425,-0.60142 -0.51829,-1.09336 -0.76741,-1.09336 -0.24963,0 -0.45333,-0.30259 -0.45333,-0.67231 0,-0.36972 -0.86375,-1.45296 -1.91943,-2.40663 -8.39952,-7.58874 -26.3034,-5.10767 -28.8038,3.99099 -0.26586,0.96831 -0.6697,1.8775 -0.89671,2.02046 -0.95299,0.59999 -1.34157,12.77762 -1.37828,43.2298 -0.0237,17.77252 -0.13427,56.58532 -0.24751,86.25074 -0.11314,29.66541 -0.0237,55.57698 0.20262,57.58165 z m 78.75056,24.78173 c 0.26679,0 1.29823,-0.34358 2.29174,-0.76346 17.53843,-7.41116 40.23327,-7.07702 55.9867,0.82418 5.01111,2.51334 15.54931,9.78486 15.54931,10.72941 0,0.21185 0.22843,0.38594 0.5091,0.38594 0.28,0 0.99069,0.503 1.57942,1.11741 0.5885,0.61437 3.69403,3.53507 6.90087,6.49018 3.2073,2.95508 7.22302,6.71601 8.92344,8.35806 1.70116,1.64177 3.16494,2.98525 3.25322,2.98525 0.0896,0 0.99259,0.77801 2.00965,1.7289 1.01705,0.95113 2.77849,2.40927 3.91447,3.24099 1.13572,0.83149 2.06518,1.69362 2.06518,1.91541 0,0.22136 0.24187,0.40363 0.53738,0.40363 0.29554,0 1.3352,0.60121 2.31011,1.33615 0.97491,0.73494 2.2091,1.59798 2.74246,1.91778 0.53314,0.32005 2.18434,1.52569 3.85417,2.34119 3.51908,2.56444 8.1101,4.08732 11.55525,5.29277 13.25614,4.53214 39.50067,4.7761 51.40274,-1.4327 0.66787,-0.34875 2.19876,-1.10183 3.40111,-1.67407 5.3886,-2.56373 10.76967,-6.35997 15.04632,-10.61421 2.25406,-2.24206 1.81606,-2.45565 -1.53747,-0.74979 -0.72201,0.36687 -1.71669,0.66735 -2.21122,0.66735 -0.49453,0 -1.10631,0.1979 -1.36037,0.43872 -1.12259,1.06721 -9.23714,2.66331 -17.33664,3.41004 -5.75972,0.53102 -17.01919,-0.42624 -21.99874,-1.86973 -9.50724,-2.75683 -15.04135,-5.04669 -22.10919,-9.14837 -4.98899,-2.89552 -8.2608,-5.08858 -8.2608,-5.53717 0,-0.22842 -0.23618,-0.41352 -0.52537,-0.41352 -0.57107,0 -4.40993,-2.96167 -6.13272,-4.73157 -0.58847,-0.60452 -1.20026,-1.09949 -1.35924,-1.09949 -0.16004,0 -0.77119,-0.49689 -1.35944,-1.10419 -1.50218,-1.55019 -9.37348,-8.93028 -12.17997,-11.41985 -7.72719,-6.85472 -21.53135,-15.68186 -28.73548,-18.37532 -16.38457,-6.12519 -28.70654,-6.64821 -43.00423,-1.82526 -2.07225,0.69891 -11.14408,4.98499 -11.66188,5.51013 -0.71307,0.72246 -3.43197,2.43277 -3.86764,2.43277 -0.2781,0 -0.50581,0.16954 -0.50581,0.37633 0,0.20711 -1.31187,1.33142 -2.91554,2.49918 -1.60341,1.16777 -2.91554,2.31036 -2.91554,2.53947 0,0.22843 -0.21187,0.41586 -0.46955,0.41586 -0.25832,0 -1.23535,0.76556 -2.17045,1.70093 -0.93536,0.93532 -1.48217,1.70067 -1.21535,1.70067 z m 109.24063,-3.4016 c 0.23549,0 0.6808,-0.30636 0.99165,-0.68125 0.31084,-0.37444 1.10324,-0.81596 1.76001,-0.98079 0.65748,-0.16484 1.19484,-0.51455 1.19484,-0.77663 0,-0.26212 0.39587,-0.4766 0.87906,-0.4766 0.48345,0 1.3034,-0.32122 1.82218,-0.71331 0.51877,-0.39257 1.27139,-0.72175 1.67217,-0.73212 0.40103,-0.0237 1.35546,-0.34499 2.12077,-0.74437 0.76535,-0.39916 1.58554,-0.72577 1.82198,-0.72577 0.24088,0 0.43044,6.51587 0.43044,14.7649 0,14.76536 0,14.76536 3.27985,16.70244 6.0755,3.58811 5.46702,5.29514 5.46702,-15.33004 0,-17.94253 0,-17.94253 2.98662,-18.25478 7.07397,-0.73941 6.38426,-2.99277 6.18149,20.19187 -0.17899,20.50392 -0.17899,20.50392 2.251,21.40064 6.7994,2.50907 6.06561,3.47292 6.13861,-8.06865 0.19081,-30.1397 0.45094,-33.0896 2.90988,-32.93748 6.91455,0.42786 6.5201,-0.9921 6.32984,22.78666 -0.12468,15.92935 -0.0259,21.47597 0.39583,21.73691 0.31178,0.19314 2.26843,0.46719 4.34823,0.60988 4.70098,0.32191 4.41629,1.7878 4.41629,-22.76029 0,-20.42995 -0.31178,-18.73256 3.15856,-17.18096 6.84342,3.05988 6.20408,0.84302 6.00815,20.82648 -0.19553,19.84502 -0.57975,18.79733 6.3814,17.36793 2.28374,-0.46882 2.30492,-0.61928 2.37345,-16.78464 0.0542,-13.10353 0.087,-13.53259 0.94616,-12.75526 0.48888,0.44224 1.14495,0.80421 1.45765,0.80421 0.31324,0 0.56919,0.18842 0.56919,0.42128 0,0.23075 0.82772,0.969 1.83939,1.63848 1.01161,0.6695 2.77871,2.12009 3.92717,3.2231 1.14799,1.10324 2.15536,2.00583 2.23804,2.00583 0.085,0 3.07968,2.89743 6.65927,6.43841 3.57937,3.54121 7.64853,7.30333 9.0419,8.36064 1.39384,1.05707 2.53381,2.09556 2.53381,2.30797 0,0.21189 0.32804,0.38623 0.72909,0.38623 0.40078,0 0.72879,0.20024 0.72879,0.44412 0,0.5051 4.13419,3.19315 7.04571,4.58228 1.06933,0.50984 2.33743,1.1268 2.81831,1.371 0.48083,0.24395 1.79321,0.63981 2.91551,0.87955 1.12254,0.2397 3.02504,0.69633 4.22768,1.01467 7.64595,2.024 34.01434,0.4225 34.01434,-2.0659 0,-0.21664 0.21899,-0.39467 0.48601,-0.39467 1.24573,0 4.5418,-4.39977 5.64225,-7.53197 1.90929,-5.43475 -0.0588,-18.70783 -2.77591,-18.70783 -0.2402,0 -0.43751,-0.27338 -0.43825,-0.60732 -9.4e-4,-0.33417 -0.65606,-1.04485 -1.45624,-1.57919 -0.8004,-0.53453 -1.45553,-1.13598 -1.45647,-1.33639 -6.9e-4,-0.20003 -0.27788,-0.36449 -0.616,-0.36449 -0.33795,0 -1.48592,-0.49194 -2.55125,-1.09311 -1.91803,-1.08323 -2.16153,-1.09597 -26.01422,-1.33664 -24.07809,-0.24276 -24.07809,-0.24276 -26.96868,-3.15833 -2.71302,-2.73656 -5.4192,-5.21031 -8.75036,-7.99892 -1.21369,-1.01587 -8.10398,-5.73171 -11.17917,-7.65138 -0.51712,-0.3226 -2.57997,-1.38864 -4.58419,-2.36849 -2.00467,-0.9801 -4.22506,-2.08241 -4.93434,-2.44999 -0.70928,-0.36782 -1.62107,-0.66855 -2.02612,-0.66855 -0.40431,0 -1.35472,-0.31109 -2.11134,-0.69113 -10.38301,-5.21694 -31.35359,-4.51143 -43.08262,1.44963 -0.75637,0.38453 -1.57376,0.69917 -1.81585,0.69917 -0.7877,0 -11.14309,6.33877 -11.14309,6.82082 0,0.25738 -0.24964,0.4679 -0.55507,0.4679 -0.71259,0 -5.27297,3.81813 -8.55586,7.1632 -2.6033,2.65273 -2.87459,3.04104 -2.12456,3.04104 z"
       id="path17-4"
       sodipodi:nodetypes="cssssssssssssssssssssssssssssssssssssscsssssssssssssssssssssssssssssssssssssssscscsssssssssssssscssssssssssssssssssssssssssssssssssssssssssssssssssssssssssssssssssssscscssssssssscssssss"
       inkscape:label="Lab-text-L-DNA" /><path
       id="path1"
       style="display:inline;opacity:1;fill:none;fill-opacity:1;fill-rule:evenodd;stroke:#ffffff;stroke-width:78.65600046;stroke-linecap:round;stroke-linejoin:round;stroke-dasharray:none;stroke-dashoffset:0;stroke-opacity:0.897392;marker-start:url(#marker2);marker-mid:url(#marker2);marker-end:url(#marker2);paint-order:stroke fill markers"
       inkscape:label="hexagon"
       d="M 824.15765,598.52471 484.58985,794.57425 145.02206,598.52471 V 206.42556 L 484.58985,10.376014 824.15765,206.42556"
       sodipodi:nodetypes="cccccc" /><circle
       style="display:inline;opacity:1;mix-blend-mode:normal;filter:url(#filter3);fill:#ffffff;fill-opacity:1;fill-rule:evenodd;stroke:none;stroke-width:52.707;stroke-linecap:round;stroke-linejoin:round;stroke-dasharray:none;stroke-opacity:0.6;paint-order:normal"
       id="path3-27"
       inkscape:label="bot-C"
       r="79.162544"
       cy="794.99707"
       cx="484.46811"
       transform="translate(-4.7130777e-6,-0.19760464)" /><circle
       style="display:inline;opacity:1;mix-blend-mode:normal;filter:url(#filter3);fill:#ffffff;fill-opacity:1;fill-rule:evenodd;stroke:none;stroke-width:52.707;stroke-linecap:round;stroke-linejoin:round;stroke-dasharray:none;stroke-opacity:0.6;paint-order:normal"
       id="path3-27-0"
       inkscape:label="left-bot-C"
       r="79.162544"
       cy="598.34241"
       cx="144.44289"
       transform="translate(-4.7130777e-6,-0.19760464)" /><circle
       style="display:inline;opacity:1;mix-blend-mode:normal;fill:#ffffff;fill-opacity:1;fill-rule:evenodd;stroke:#ffffff;stroke-width:3.20000005;stroke-linecap:round;stroke-linejoin:round;stroke-dasharray:none;stroke-opacity:1;paint-order:normal"
       id="path3-27-0-0"
       inkscape:label="left-top-C"
       r="79.162544"
       cy="206.4055"
       cx="144.81982"
       transform="translate(-4.7130777e-6,-0.19760464)" /><circle
       style="display:inline;opacity:1;mix-blend-mode:normal;filter:url(#filter3-9-8);fill:#ffffff;fill-opacity:1;fill-rule:evenodd;stroke:none;stroke-width:52.707;stroke-linecap:round;stroke-linejoin:round;stroke-dasharray:none;stroke-opacity:0.6;paint-order:normal"
       id="path3-27-0-0-7"
       inkscape:label="top-C"
       r="79.162544"
       cy="10.775979"
       cx="484.62064"
       transform="translate(-4.7130777e-6,-0.19760464)" /></g><g
     inkscape:label="Exciton"
     inkscape:groupmode="layer"
     id="layer1"
     style="display:inline;opacity:1"
     transform="translate(-47.999985,71.901205)"><g
       inkscape:groupmode="layer"
       id="layer4"
       inkscape:label="Hole"
       style="mix-blend-mode:normal;filter:url(#filter3)"><circle
         style="fill:#e500ff;fill-opacity:1;fill-rule:evenodd;stroke:#e500ff;stroke-width:252.751;stroke-linecap:round;stroke-linejoin:round;stroke-dasharray:none;stroke-opacity:0.1;paint-order:normal"
         id="path3-2-9"
         cx="824.15753"
         cy="598.70557"
         inkscape:label="field-3"
         r="67.487244" /><circle
         style="fill:#e500ff;fill-opacity:1;fill-rule:evenodd;stroke:#e500ff;stroke-width:196.585;stroke-linecap:round;stroke-linejoin:round;stroke-dasharray:none;stroke-opacity:0.1;paint-order:normal"
         id="path3-2"
         cx="824.15753"
         cy="598.70557"
         r="67.487244"
         inkscape:label="field-2" /><circle
         style="fill:#e500ff;fill-opacity:1;fill-rule:evenodd;stroke:#e500ff;stroke-width:112.333;stroke-linecap:round;stroke-linejoin:round;stroke-dasharray:none;stroke-opacity:0.2;paint-order:normal"
         id="path3-6"
         cx="824.15753"
         cy="598.70557"
         r="67.487244"
         inkscape:label="field-1" /><circle
         style="fill:#e500ff;fill-opacity:1;fill-rule:evenodd;stroke:#e500ff;stroke-width:44.9335;stroke-linecap:round;stroke-linejoin:round;stroke-dasharray:none;stroke-opacity:0.6;paint-order:normal"
         id="path3"
         cx="824.15753"
         cy="598.70557"
         r="67.487244"
         inkscape:label="field-0" /></g><g
       inkscape:groupmode="layer"
       id="layer3"
       inkscape:label="Electron"
       style="mix-blend-mode:normal;filter:url(#filter15)"><circle
         style="fill:#1b00ff;fill-opacity:1;fill-rule:evenodd;stroke:#1d00ff;stroke-width:252.751;stroke-linecap:round;stroke-linejoin:round;stroke-dasharray:none;stroke-opacity:0.1;paint-order:normal"
         id="path3-5-7-3"
         cx="824.15753"
         cy="206.32808"
         inkscape:label="field-3"
         r="67.487244" /><circle
         style="fill:#1b00ff;fill-opacity:1;fill-rule:evenodd;stroke:#1d00ff;stroke-width:196.585;stroke-linecap:round;stroke-linejoin:round;stroke-dasharray:none;stroke-opacity:0.1;paint-order:normal"
         id="path3-5-7"
         cx="824.15753"
         cy="206.32808"
         r="67.487244"
         inkscape:label="field-2" /><circle
         style="fill:#1b00ff;fill-opacity:1;fill-rule:evenodd;stroke:#1b00ff;stroke-width:112.333;stroke-linecap:round;stroke-linejoin:round;stroke-dasharray:none;stroke-opacity:0.2;paint-order:normal"
         id="path3-5-6"
         cx="824.15753"
         cy="206.32808"
         r="67.487244"
         inkscape:label="field-1" /><circle
         style="fill:#1b00ff;fill-opacity:1;fill-rule:evenodd;stroke:#1b00ff;stroke-width:44.9335;stroke-linecap:round;stroke-linejoin:round;stroke-dasharray:none;stroke-opacity:0.6;paint-order:normal"
         id="path3-5"
         cx="824.15753"
         cy="206.32808"
         inkscape:label="field-0"
         r="67.487244" /></g></g></svg>
