<?xml version="1.0" encoding="UTF-8" standalone="no"?>
<!-- Created with Inkscape (http://www.inkscape.org/) -->

<svg
   width="189.91556mm"
   height="28.66143mm"
   viewBox="0 0 189.91556 28.66143"
   version="1.1"
   id="svg1"
   xml:space="preserve"
   xmlns="http://www.w3.org/2000/svg"
   xmlns:svg="http://www.w3.org/2000/svg"><defs
     id="defs1" /><path
     style="display:inline;fill:#b40ae8;fill-opacity:1;stroke-width:1.08527"
     d="m 178.60398,28.578911 c -3.90773,-0.65276 -5.92478,-5.20179 -3.79118,-8.55022 1.99748,-3.13485 6.50679,-3.48213 8.9151,-0.68659 3.43672,3.98931 0.0467,10.10052 -5.12392,9.23681 z m 0.71204,-2.882 c -0.004,-1.19897 -0.0411,-1.74662 -0.11045,-1.63888 -0.0573,0.089 -0.30193,0.50167 -0.54371,0.91703 -0.24179,0.41536 -0.6103,1.03851 -0.81891,1.38479 -0.45159,0.74962 -0.4273,0.79306 0.58675,1.04986 0.95183,0.24104 0.8936,0.35357 0.88632,-1.7128 z m 1.60108,1.62716 c 0.3134,-0.093 0.58985,-0.20147 0.61434,-0.24108 0.0387,-0.0627 -1.55193,-2.94319 -1.71587,-3.10715 -0.0339,-0.0339 -0.0616,0.77269 -0.0616,1.79243 v 1.85409 l 0.2967,-0.0646 c 0.16317,-0.0356 0.55309,-0.1407 0.8665,-0.23367 z m -2.88659,-2.10024 c 1.01053,-1.73776 1.05451,-1.68145 -0.57821,-0.74034 -1.9707,1.13593 -1.85686,0.95762 -1.10116,1.72483 0.39866,0.40473 0.68123,0.61439 0.74377,0.55187 0.0555,-0.0555 0.47648,-0.74682 0.9356,-1.53636 z m 4.90078,0.78534 c 0.50874,-0.52558 0.59419,-0.42227 -1.21461,-1.46829 -1.74538,-1.00936 -1.69417,-1.07198 -0.63358,0.77483 l 0.87715,1.5274 0.27237,-0.19676 c 0.1498,-0.1082 0.4642,-0.39495 0.69867,-0.63718 z m -5.82367,-1.81628 c 1.80755,-1.03848 1.82117,-0.99794 -0.33522,-0.99794 h -1.79478 l 0.065,0.47432 c 0.21029,1.53421 0.27666,1.55105 2.06499,0.52362 z m 6.67022,0.4275 c 0.09,-0.22473 0.1978,-0.63739 0.23974,-0.91702 l 0.0763,-0.50842 h -1.79236 c -2.15354,0 -2.13951,-0.0383 -0.36287,0.99038 1.67693,0.97094 1.62934,0.95968 1.83926,0.43506 z m -3.73616,-1.27604 c 0.16558,-0.25271 0.16831,-0.31181 0.026,-0.5664 -0.29401,-0.52623 -1.17691,-0.34887 -1.17691,0.23643 0,0.59766 0.82119,0.83311 1.15085,0.32997 z m -1.47451,-0.56271 c 0,-0.0493 -0.13351,-0.15854 -0.29668,-0.24274 -0.16319,-0.0842 -0.76661,-0.42788 -1.34096,-0.76374 -1.55692,-0.91044 -1.68255,-0.86904 -1.88689,0.62182 l -0.065,0.47432 h 1.79478 c 0.98712,0 1.79477,-0.0404 1.79477,-0.0897 z m 5.45041,-0.41876 c -0.22152,-1.47718 -0.30077,-1.50647 -1.76249,-0.65136 -0.63394,0.37086 -1.28613,0.74317 -1.4493,0.82738 -0.54358,0.28048 -0.30999,0.3324 1.49567,0.3324 h 1.79236 z m -0.76244,-1.76825 c 0.0636,-0.0602 -0.15571,-0.34895 -0.57402,-0.75575 l -0.67687,-0.65824 -0.86709,1.49471 c -0.47691,0.82208 -0.89077,1.55391 -0.91971,1.6263 -0.0479,0.11976 2.79733,-1.47909 3.03769,-1.70702 z m -4.4973,1.49449 c -0.0868,-0.1335 -0.48449,-0.81262 -0.88378,-1.50915 -0.3993,-0.69653 -0.76444,-1.29017 -0.81143,-1.31921 -0.13156,-0.0813 -1.34337,1.23782 -1.23401,1.34329 0.15027,0.14494 2.88971,1.72463 2.99369,1.7263 0.0513,8.4e-4 0.0224,-0.10776 -0.0645,-0.24123 z m 0.56452,-1.75313 v -1.78012 h -0.31988 c -0.3271,0 -1.28577,0.28234 -1.43548,0.42276 -0.0457,0.0429 0.16912,0.51148 0.47743,1.04132 0.30832,0.52984 0.70136,1.21823 0.87342,1.52975 0.4195,0.75951 0.40451,0.80448 0.40451,-1.21371 z m 1.46321,0.11621 c 0.44454,-0.7668 0.77052,-1.42958 0.72441,-1.47286 -0.15023,-0.14099 -1.10826,-0.42347 -1.43618,-0.42347 h -0.3199 l 0.007,1.80709 c 0.004,1.21644 0.0408,1.75418 0.1117,1.64525 0.058,-0.089 0.46908,-0.78921 0.91363,-1.55601 z m 4.7402,8.09824 c -1.49614,-0.69101 -1.05305,-2.89902 0.58177,-2.89902 1.9256,0 2.06545,2.78902 0.15057,3.00287 -0.22478,0.0251 -0.55432,-0.0216 -0.73234,-0.10386 z m 1.28504,-0.83259 c 0.36601,-0.43497 0.35506,-0.79564 -0.036,-1.18675 -0.86813,-0.86813 -2.14612,0.35145 -1.3057,1.24603 0.38077,0.4053 0.97285,0.37914 1.34175,-0.0592 z m -1.07091,-0.42843 c -0.09,-0.2834 0.11869,-0.53426 0.44434,-0.53426 0.26334,0 0.46274,0.40422 0.31629,0.64119 -0.13041,0.211 -0.68444,0.13312 -0.76063,-0.1069 z m -101.20399,1.15006 c -0.73163,-0.3265 -1.030325,-1.24961 -0.645276,-1.99422 0.294187,-0.56889 0.360495,-0.57107 1.463566,-0.048 0.563701,0.26731 1.138469,0.53045 1.277262,0.58477 l 0.252351,0.0988 -0.377778,0.51148 c -0.645651,0.87414 -1.289435,1.15098 -1.970125,0.84722 z m 8.167596,-0.0347 c -0.39788,-0.19602 -0.76726,-0.70927 -0.76789,-1.06703 -3.7e-4,-0.20863 0.0779,-0.23214 0.98714,-0.29668 1.6344,-0.11602 1.81747,-0.10169 1.81747,0.14201 0,0.96167 -1.15643,1.65535 -2.03672,1.2217 z M 0.1954184,28.284051 c -0.4629046,-0.51151 -0.068654,-0.98944 0.8161905,-0.98944 0.551797,0 0.60566,-0.0219 0.668533,-0.27246 0.187808,-0.74829 2.05835,-1.07292 2.479409,-0.4303 0.311075,0.47475 0.690931,0.63923 1.61633,0.69982 1.043093,0.0683 1.362314,0.35745 1.001892,0.90752 l -0.184869,0.28215 h -3.109469 c -2.875387,0 -3.1229085,-0.0149 -3.2880165,-0.19729 z m 10.2523276,0.003 c -0.413996,-0.45746 -0.08964,-1.10088 0.554956,-1.10088 0.395514,0 0.393013,0.007 0.180304,-0.50212 -0.548685,-1.3132 -0.03947,-1.87136 1.707211,-1.87136 h 1.238324 l 0.219371,0.3718 c 0.120654,0.2045 0.409905,0.46901 0.642779,0.58782 0.607945,0.31015 1.326708,1.91938 1.047573,2.34539 -0.324366,0.49505 -0.801866,0.32454 -1.173642,-0.41908 l -0.310143,-0.62034 h -0.777701 c -0.914364,0 -0.966308,0.032 -0.745161,0.4597 0.398473,0.77056 -1.948637,1.451 -2.583871,0.74907 z m 11.216862,-0.003 c -0.137328,-0.15174 -0.178549,-0.41389 -0.178549,-1.13547 0,-0.9014 -0.01053,-0.94219 -0.269663,-1.0407 -0.829878,-0.31552 -0.862139,-1.08543 -0.108452,-2.58824 0.755156,-1.50573 0.951257,-1.65465 1.498825,-1.13823 0.435013,0.41027 1.090479,0.64262 1.513395,0.53648 0.313951,-0.0788 1.521333,0.69819 1.633344,1.0511 0.233883,0.7369 -0.597235,0.9152 -1.461105,0.31344 l -0.592045,-0.4124 -0.405894,0.74804 -0.405895,0.74803 v 1.37908 c 0,1.19901 -0.02576,1.40238 -0.197294,1.55761 -0.261869,0.23699 -0.804193,0.22709 -1.026667,-0.0188 z m 8.584172,0.0293 c -0.355037,-0.24868 -0.305099,-0.74064 0.181292,-1.78602 0.376831,-0.80992 0.41263,-0.95883 0.340759,-1.41745 -0.04417,-0.28185 -0.06374,-0.51246 -0.0435,-0.51246 0.02025,0 0.400937,0.20365 0.84598,0.45256 0.98143,0.5489 0.983179,0.55981 0.318925,1.99099 -0.687483,1.48122 -0.999935,1.72313 -1.643459,1.27238 z m 3.463128,-0.082 c -0.108148,-0.13751 -0.335432,-0.81922 -0.505079,-1.51494 l -0.308448,-1.26491 -0.554634,-0.32181 c -0.305049,-0.177 -0.855544,-0.46752 -1.223322,-0.64562 -1.102052,-0.53366 -1.36235,-1.12948 -0.894271,-2.04699 0.119433,-0.23411 0.4376,-0.94827 0.707036,-1.58702 0.694594,-1.64665 1.053375,-1.92208 1.729945,-1.32805 0.308433,0.27081 0.559877,0.37873 1.39157,0.59728 0.224506,0.059 1.693075,2.87004 1.630222,3.12046 -0.19374,0.77193 -0.892455,0.51309 -1.477901,-0.54748 l -0.464863,-0.84212 -0.414793,0.9015 c -0.228137,0.49582 -0.400557,0.91114 -0.383156,0.92293 0.0174,0.0118 0.262602,0.1537 0.544893,0.31536 0.647443,0.37077 1.590509,2.65331 1.590509,3.84956 0,0.53101 -1.026875,0.82522 -1.367708,0.39185 z m 11.557438,0.0485 c -0.295408,-0.18015 -0.365954,-0.33747 -0.689201,-1.53696 -0.198061,-0.73496 -0.426139,-1.57902 -0.506843,-1.87571 l -0.146734,-0.53943 -1.458998,-0.74243 c -2.356997,-1.19941 -2.5483,-1.77168 -1.37323,-4.10793 1.538988,-3.0598 3.467225,-3.60659 4.952061,-1.40427 l 0.630893,0.93574 1.079398,-0.0663 c 1.239179,-0.0762 1.563793,0.0429 1.563793,0.57374 0,0.5282 -0.265098,0.64644 -1.715003,0.76489 -1.503805,0.12287 -1.582596,0.10115 -2.026861,-0.55719 -0.16711,-0.24766 -0.357508,-0.46785 -0.423106,-0.48931 -0.237833,-0.0778 -1.839093,2.54604 -1.606897,2.63309 0.528814,0.19826 1.85995,1.00513 2.011634,1.21934 0.349855,0.49408 1.296946,4.33926 1.163251,4.72277 -0.202041,0.57958 -0.902973,0.80613 -1.454157,0.47001 z m 9.852691,0.0333 c -0.913113,-0.49553 -0.76393,-1.11111 0.725514,-2.99371 l 1.240682,-1.56817 v -1.04194 -1.04193 l 0.350627,0.0687 c 0.247132,0.0484 0.5815,0.30774 1.132796,0.87846 1.192189,1.23421 1.142204,1.45353 -0.924838,4.05795 -1.490682,1.8782 -1.762042,2.05454 -2.524781,1.64061 z m 5.451788,0.0592 c -0.534856,-0.21545 -0.765299,-1.49523 -0.786578,-4.36832 -0.0045,-0.59602 -1.585917,-2.5353 -2.067556,-2.5353 -0.302999,0 -0.969717,-0.29977 -1.247828,-0.56105 l -0.241715,-0.22707 -0.784669,0.23257 c -1.712419,0.50755 -1.787073,0.43952 -2.350257,-2.14159 -0.23952,-1.09774 -0.458391,-2.10063 -0.486382,-2.22863 -0.05451,-0.24931 0.311172,-0.51432 1.566487,-1.13523 0.833522,-0.41227 -0.431799,-0.34838 -1.537367,0.0776 -0.158651,0.0611 -0.188799,0.01 -0.188799,-0.32175 0,-1.23152 1.218875,-1.75448 4.668951,-2.00324 2.523021,-0.18193 2.845748,0.16929 2.565082,2.79146 -0.186626,1.7436 -0.233493,1.7709 -0.395513,0.23051 -0.196149,-1.86487 -0.584146,-2.43197 -1.392836,-2.03581 -0.71318,0.34937 -0.741715,0.49247 -0.504939,2.53203 l 0.211672,1.82331 1.38858,1.33466 c 0.763718,0.73407 1.534223,1.40033 1.712234,1.48057 0.345356,0.15568 0.772266,0.56689 1.066035,1.02683 0.199412,0.31221 0.492884,4.85131 0.350372,5.41913 -0.134621,0.53637 -0.938732,0.85349 -1.544974,0.60929 z m 8.679839,-0.06 c -0.530534,-0.28787 -0.773493,-1.06002 -0.500718,-1.59135 0.164587,-0.3206 2.172781,-2.98673 2.249673,-2.98673 0.03379,0 0.39142,0.0915 0.794729,0.20333 l 0.733289,0.20334 0.100486,-0.2643 c 0.05527,-0.14537 0.100485,-0.34797 0.100485,-0.45023 0,-0.10224 0.0988,-0.37826 0.21957,-0.61332 0.237154,-0.46161 0.859284,-2.78523 0.859284,-3.20937 0,-0.43168 -0.307496,-0.58506 -2.105437,-1.05018 -2.086322,-0.53971 -1.904599,-0.36272 -1.924116,-1.87406 -0.01978,-1.5317 -0.02432,-1.53218 -0.60466,-0.0657 -0.481501,1.21678 -0.50067,1.24535 -0.735478,1.09634 -0.108126,-0.0686 -0.09361,-0.18848 0.06836,-0.56476 0.320597,-0.74476 0.912102,-2.16352 1.638463,-3.92997 0.991945,-2.41231 1.559211,-2.96378 3.050781,-2.96583 l 0.736478,-10e-4 1.053368,1.10582 c 2.248838,2.36084 2.277185,2.39454 2.079648,2.47309 -0.135284,0.0538 -0.443668,-0.19109 -1.188779,-0.944 -1.116232,-1.12791 -1.09589,-1.11363 -1.102079,-0.77389 -0.0024,0.13351 -0.09025,0.60686 -0.195143,1.05189 l -0.190719,0.80913 -0.177661,-0.7552 c -0.09772,-0.41535 -0.207661,-0.91166 -0.24433,-1.1029 -0.206164,-1.07522 -1.737127,-1.20745 -2.16355,-0.18688 -0.134378,0.32161 -0.113353,0.50665 0.228257,2.00876 0.574629,2.52673 0.718242,2.797 1.497965,2.81911 l 0.38652,0.011 0.01845,0.70685 c 0.0102,0.38877 0.02926,0.77967 0.04248,0.86867 0.01321,0.089 0.02918,0.19482 0.03549,0.23516 0.0063,0.0404 0.529702,-0.4581 1.163101,-1.10763 1.028625,-1.05481 1.654254,-1.49761 1.863888,-1.31921 0.02677,0.0228 -0.572324,0.66379 -1.331321,1.42448 l -1.379995,1.38306 1.147689,0.88599 c 1.428039,1.1024 1.35156,0.92375 1.952851,4.5617 0.481845,2.91528 0.489477,2.99835 0.310188,3.37617 -0.354804,0.7477 -1.374503,0.95166 -1.971179,0.39428 -0.390956,-0.36521 -0.347813,-0.20183 -0.869209,-3.29142 -0.406097,-2.40637 -0.424542,-2.47404 -0.764652,-2.80503 l -0.348517,-0.33916 0.06236,0.3776 c 0.03429,0.20768 0.0935,0.69317 0.131554,1.07885 l 0.0692,0.70126 -1.103595,1.45645 c -0.606978,0.80105 -1.338062,1.77516 -1.62463,2.16468 -0.703947,0.95684 -1.328425,1.19685 -2.068831,0.79512 z m 34.162726,0.0454 c -0.29204,-0.1417 -0.58476,-0.64358 -0.58476,-1.00257 0,-0.34902 0.19026,-0.71203 1.86953,-3.56696 l 1.33262,-2.26559 0.9612,-0.1266 c 2.1487,-0.28301 2.23797,-0.64508 -1.32922,5.39094 -1.00775,1.70519 -1.40323,1.98136 -2.24937,1.57078 z m 8.60526,-0.18172 c -0.20657,-0.19296 -0.35375,-0.46075 -0.40023,-0.72821 -0.0405,-0.23268 -0.2066,-0.98134 -0.36925,-1.66372 -0.16266,-0.68237 -0.45806,-1.94463 -0.65644,-2.80502 -0.22378,-0.97055 -0.43918,-1.65346 -0.56747,-1.79914 l -0.20675,-0.23479 0.7935,-0.23534 c 0.43644,-0.12944 0.984,-0.32687 1.2168,-0.43874 0.53867,-0.25884 0.4542,-0.42215 0.99591,1.92553 0.25676,1.11273 0.59291,2.5572 0.74701,3.2099 0.39263,1.66308 0.4301,2.1044 0.21411,2.52208 -0.32504,0.62855 -1.22442,0.75449 -1.76719,0.24745 z m 30.94867,0.1633 c -0.42252,-0.14506 -0.99054,-0.91134 -0.58913,-0.79476 0.11341,0.0329 0.62799,0.0928 1.1435,0.13288 0.87231,0.0679 0.92876,0.0866 0.81423,0.27004 -0.24773,0.39667 -0.85125,0.56947 -1.3686,0.39184 z m 6.60894,0.033 c -0.21936,-0.0883 -0.65409,-0.61717 -0.56033,-0.68159 0.0769,-0.0529 2.19547,-0.38208 2.23087,-0.34668 0.43884,0.43884 -0.97434,1.30869 -1.67054,1.02827 z m 10.06858,-0.11468 c -0.55394,-0.43572 -0.35979,-0.47867 1.11782,-0.24727 l 0.37718,0.059 -0.25428,0.20589 c -0.33315,0.26977 -0.88527,0.2619 -1.24072,-0.0177 z m -29.48319,0.009 c -0.44431,-0.17927 -0.35977,-0.29977 0.25989,-0.37039 0.34051,-0.0389 0.7569,-0.0977 0.9253,-0.13083 0.27896,-0.0549 0.29596,-0.0411 0.19109,0.15483 -0.19378,0.36207 -0.89809,0.53933 -1.37628,0.34639 z m 34.33135,-0.057 c -0.27362,-0.20701 -0.25133,-0.21812 0.69338,-0.34534 0.95498,-0.12862 0.96698,-0.12403 0.60972,0.23323 -0.31782,0.31781 -0.95835,0.37292 -1.3031,0.11211 z m 4.49508,0.0389 c -0.10245,-0.10245 -0.1336,-1.32099 -0.1336,-5.22336 0,-4.44177 -0.021,-5.10725 -0.16541,-5.22705 -0.15875,-0.13174 0.14366,-0.64434 0.38012,-0.64434 0.58784,0 0.85533,11.11329 0.26952,11.19725 -0.11937,0.0171 -0.27715,-0.029 -0.35063,-0.10245 z m -45.6882,-0.0991 c -0.50029,-0.29139 -0.61092,-0.96669 -0.11648,-0.71101 0.16947,0.0877 0.59578,0.24297 0.94737,0.34517 0.58484,0.17002 0.62198,0.19845 0.43646,0.33411 -0.23584,0.17244 -0.99319,0.19142 -1.26735,0.0317 z m 1.61043,-0.48498 c -0.84045,-0.15377 -2.15658,-0.7012 -2.65391,-1.10386 l -0.26131,-0.21156 1.44805,-2.29329 c 0.79643,-1.26131 1.44046,-2.34714 1.43119,-2.41295 -0.0512,-0.36353 -0.4127,-2.34799 -0.63902,-3.50832 -0.3388,-1.73694 -0.34843,-1.63826 0.28089,-2.87894 0.29812,-0.58774 0.64581,-1.40845 0.77265,-1.82381 0.12685,-0.41535 0.39271,-0.96853 0.5908,-1.22927 0.62208,-0.81879 0.69451,-1.51166 0.288,-2.7549499 l -0.17391,-0.53189 0.34048,-0.30422 c 0.61967,-0.55367 1.97273,-0.43492 2.10709,0.18493 0.0683,0.31474 0.0521,0.33237 -0.41958,0.45852 -1.83439,0.49063 -0.88079,2.3027599 0.97932,1.8609899 1.17797,-0.27977 1.12285,-0.28887 1.121,0.18515 -0.002,0.52513 -0.20244,0.90947 -0.56469,1.08317 -0.46679,0.22382 -0.90984,1.95104 -1.01875,3.9715 l -0.0646,1.19776 1.18103,1.60726 c 0.64956,0.88399 1.29163,1.76588 1.42682,1.95974 0.21288,0.30527 1.81924,5.92738 1.71728,6.01032 -0.35806,0.29123 -4.10333,0.60266 -4.34744,0.36149 -0.0404,-0.0398 0.003,-1.07235 0.098,-2.29442 0.2551,-3.30748 0.29873,-2.99513 -0.59532,-4.26198 -0.82731,-1.1723 -1.03088,-1.38412 -0.92509,-0.96261 0.33445,1.33255 0.22887,2.38711 -0.71683,7.15995 -0.15016,0.75784 -0.15467,0.75956 -1.4022,0.53129 z m 35.09757,-0.0557 c -0.81983,-0.0909 -2.69713,-0.42369 -2.69713,-0.47809 0,-0.0316 0.97961,-2.90937 1.44949,-4.25817 0.275,-0.78937 0.28131,-0.86893 0.26913,-3.39839 -0.0196,-4.08825 0.88158,-6.8272 2.95564,-8.98229 0.53718,-0.5581699 0.55614,-0.5594199 0.81463,-0.0539 0.11379,0.22251 0.39791,0.62304 0.63138,0.89005 1.07871,1.23371 1.4632,2.14184 1.0515,2.48353 -0.20242,0.168 -0.15568,0.22425 -0.67412,-0.81131 -0.68818,-1.37459 -1.32467,-1.67048 -1.99048,-0.92531 -0.44676,0.50001 -0.38757,0.7686 0.50329,2.28413 l 0.80291,1.36593 -0.16736,0.84953 -0.16737,0.84954 1.22566,1.99562 c 1.40856,2.29346 2.83377,5.84412 3.02901,7.54625 0.0671,0.58491 -4.11447,0.96699 -7.03618,0.64293 z m -15.8052,-0.16036 c -0.17802,-0.025 -0.78487,-0.0988 -1.34857,-0.16395 -0.5637,-0.0652 -1.07986,-0.15015 -1.14701,-0.18885 -0.0827,-0.0477 0.17485,-0.85449 0.79717,-2.49778 l 0.91926,-2.42742 -0.0229,-2.55228 c -0.0192,-2.14236 0.004,-2.60501 0.14684,-2.88057 0.25051,-0.48445 0.19955,-0.54584 -0.13193,-0.15888 -0.79141,0.92391 -1.84656,0.16745 -1.16515,-0.83533 l 0.25932,-0.38162 -0.265,-1.12382 c -0.35028,-1.48545 -0.42154,-1.35044 1.78528,-3.38246 2.5333,-2.3326399 3.17053,-2.3693799 4.27315,-0.24636 0.11824,0.22768 0.49501,0.74781 0.83725,1.15583 0.84219,1.00409 0.93322,1.87033 0.24402,2.32192 -0.136,0.0891 -0.40539,0.52469 -0.59867,0.96797 -0.4942,1.13348 -0.64268,0.97603 -0.65288,-0.69233 -0.0188,-3.07967 -0.25116,-3.78975 -1.24006,-3.78975 -1.0878,0 -1.40853,0.589 -1.18776,2.18127 0.0846,0.61009 0.20954,1.57045 0.27766,2.13415 0.19004,1.57262 0.22299,1.64585 1.20659,2.68144 0.62786,0.66104 1.16056,1.38029 1.77399,2.39518 1.09689,1.81476 1.07094,1.76338 1.51892,3.006 1.03319,2.86588 1.34436,3.80282 1.28324,3.86393 -0.34601,0.34601 -6.12804,0.81523 -7.56272,0.61371 z m 0.10006,-12.20963 c 0.59102,-1.23268 0.95246,-3.2341 0.5292,-2.93035 -0.76585,0.54962 -1.31687,1.0309 -1.28606,1.12331 0.0197,0.0594 0.12712,0.58118 0.23851,1.15957 0.22806,1.18432 0.24864,1.21002 0.51835,0.64747 z m -58.519999,11.0379 c -0.919722,-0.45018 -1.658367,-0.8716 -1.641431,-0.93649 0.01693,-0.0649 0.288509,-0.51333 0.603497,-0.99656 1.697756,-2.60455 1.577361,-2.34824 1.577361,-3.35801 0,-1.52862 -0.344689,-2.5836 -1.267273,-3.87872 l -0.37921,-0.53234 0.181234,-0.87018 C 86.511664,7.7737011 89.056823,5.5065311 91.293676,9.9733511 l 0.75937,1.5164099 1.31662,0.41762 c 1.91408,0.60715 1.75629,0.60739 1.89154,-0.003 0.0637,-0.28739 0.17495,-0.8772 0.2473,-1.31071 0.14399,-0.8629499 0.31773,-1.0658899 0.76646,-0.8952899 0.58317,0.22174 0.58583,0.3388299 0.0411,1.8116499 -0.34758,0.93978 -0.46975,1.39868 -0.39283,1.47559 0.27349,0.27349 0.13253,0.62422 -0.18506,0.46048 -0.16319,-0.0841 -1.02491,-0.23179 -1.91497,-0.32814 -0.89005,-0.0964 -1.78065,-0.20175 -1.9791,-0.23421 -0.34523,-0.0564 -0.3954,-0.13036 -1.16037,-1.70828 -0.933623,-1.9258099 -1.049535,-2.0591899 -1.789492,-2.0591899 -1.576498,0 -1.327572,1.7907999 0.757313,5.4482099 0.15008,0.26327 0.784495,0.64731 1.069339,0.64731 0.76345,0 2.67138,2.35633 3.49481,4.31616 0.3603,0.85755 1.33184,6.77988 1.14316,6.96856 -0.0768,0.0768 -4.2586,0.41849 -6.446774,0.52674 l -1.454124,0.072 z M 96.406676,9.9618011 c -0.28861,-0.21103 -0.61149,-0.18566 -0.56661,0.0445 0.0214,0.10939 0.13567,0.19016 0.27188,0.19204 0.12928,0.002 0.27305,0.0412 0.31947,0.0877 0.0465,0.0465 0.1043,0.025 0.12849,-0.0478 0.0242,-0.0727 -0.0447,-0.19711 -0.15323,-0.2764599 z M 4.6678869,26.695101 c -0.658975,-0.5545 -0.525346,-1.5566 0.257079,-1.92788 0.478551,-0.22708 0.854671,-0.15739 1.266998,0.23481 1.068843,1.01663 -0.39517,2.64298 -1.524077,1.69307 z M 188.33709,26.297031 c -0.35082,-0.30918 -2.86087,-4.48958 -3.12554,-5.20546 -0.10967,-0.2967 -0.29571,-0.69978 -0.41341,-0.89573 -0.25896,-0.43116 -0.27808,-0.40949 0.52721,-0.59736 1.07283,-0.25028 1.04254,-0.27991 2.92453,2.86196 1.87698,3.13353 1.994,3.51401 1.20599,3.92149 -0.43277,0.22381 -0.80012,0.19593 -1.11878,-0.0849 z M 40.527828,26.027761 c -1.949859,-0.0315 -2.055331,-0.0528 -2.26363,-0.45553 -0.515409,-0.9967 0.03642,-1.5142 1.614629,-1.5142 h 1.147705 l -0.07162,-0.47758 -0.07162,-0.4776 1.062948,0.5585 1.062948,0.55851 0.03295,0.57621 c 0.06458,1.12951 -0.21969,1.26877 -2.514313,1.23169 z m -25.525908,-0.5977 c -1.139261,-0.76533 -0.607155,-2.50482 0.766214,-2.50482 0.660902,0 1.075516,0.28892 1.291299,0.89983 0.315872,0.89427 -0.351643,1.85124 -1.291299,1.85124 -0.237135,0 -0.54869,-0.10017 -0.766214,-0.24625 z m -1.607264,-1.43916 c 0,-0.085 0.769928,-0.60141 0.820818,-0.55052 0.135912,0.13591 -0.190753,0.48781 -0.494169,0.53234 -0.179656,0.0264 -0.326649,0.0345 -0.326649,0.0182 z m 58.258102,-0.38779 c -0.20768,-0.0615 -1.445664,-0.38686 -2.751077,-0.72302 l -2.373478,-0.61119 0.03429,-0.31915 c 0.04459,-0.41501 0.118434,-0.47673 0.484418,-0.40495 0.197152,0.0386 0.283323,0.11055 0.24676,0.20582 -0.0899,0.23428 0.33302,0.40762 0.456443,0.18707 0.09198,-0.16435 0.21548,-0.14983 1.43524,0.16876 0.734032,0.19174 1.51666,0.39557 1.739174,0.45299 0.294514,0.076 0.40457,0.16196 0.40457,0.31601 0,0.2503 0.405236,0.29781 0.497151,0.0583 0.104794,-0.27307 0.72292,0.0157 0.64612,0.30188 -0.03381,0.12598 -0.06213,0.28974 -0.06294,0.36391 -0.0017,0.1579 -0.23186,0.15899 -0.756671,0.003 z m -48.313885,-1.08445 c -0.784144,-0.25094 -1.15102,-1.188 -0.771812,-1.97134 0.649718,-1.34214 2.694986,-0.91978 2.694986,0.55651 0,1.08928 -0.891355,1.74502 -1.923174,1.41483 z m 48.82358,0.062 c -0.133927,-0.0348 -0.182614,-0.13658 -0.161828,-0.33811 0.03922,-0.38024 -0.393289,-0.48481 -0.489145,-0.11826 -0.07004,0.26786 0.0067,0.27529 -1.692774,-0.16402 -0.623038,-0.16105 -1.304696,-0.33666 -1.514796,-0.39022 -0.322565,-0.0823 -0.381316,-0.14338 -0.377599,-0.39303 0.0059,-0.39239 -0.337927,-0.47966 -0.430862,-0.10937 -0.07283,0.29017 -0.472053,0.29527 -0.709582,0.009 -0.136249,-0.16417 0.440282,-2.7423 0.677038,-3.02757 0.17789,-0.21435 0.358816,-0.18541 2.845503,0.45516 3.645205,0.93899 3.359211,0.69196 2.904043,2.50844 -0.390186,1.55715 -0.494282,1.7126 -1.049998,1.56792 z M 20.91632,21.549741 c 0.291543,-0.60516 0.65852,-1.02412 1.001899,-1.14382 l 0.331247,-0.11547 -0.06645,0.40039 c -0.1008,0.60734 -0.134033,0.6701 -0.354855,0.6701 -0.112257,0 -0.382952,0.12137 -0.601548,0.26971 -0.504605,0.34244 -0.513169,0.34021 -0.310289,-0.081 z m 93.49673,-0.80914 c -0.17715,-0.22251 -0.65602,-0.84151 -1.06416,-1.37554 -0.40814,-0.53403 -0.88998,-1.15759 -1.07074,-1.38569 l -0.32868,-0.41471 0.26895,-0.21811 c 0.14793,-0.11996 0.363,-0.28411 0.47795,-0.36479 0.20256,-0.14215 0.19861,-0.15961 -0.12806,-0.5661 -0.23736,-0.29537 -0.30325,-0.45324 -0.22273,-0.53375 0.11615,-0.11614 0.62728,0.0381 0.62728,0.18934 0,0.52684 0.30128,0.46269 1.27889,-0.2723 1.07519,-0.80835 1.05274,-0.77959 0.83795,-1.07332 -0.14119,-0.19309 -0.16292,-0.19413 -0.42775,-0.0206 -0.58212,0.38143 -0.63926,-0.12217 -0.0654,-0.57666 l 0.41627,-0.3297 0.28898,0.43671 c 0.33953,0.51304 0.30997,0.50555 0.73562,0.1863 0.18362,-0.13771 0.39145,-0.28431 0.46185,-0.32579 0.11161,-0.0658 2.64798,3.03941 2.79446,3.42113 0.0258,0.0672 -0.30383,0.38915 -0.73249,0.71542 -0.42866,0.32626 -1.45341,1.1151 -2.27721,1.75298 -1.75688,1.36036 -1.4786,1.24803 -1.87097,0.7552 z m -55.070401,-0.96477 c -1.591031,-1.5007 -1.442628,-1.20857 -1.660655,-3.269 l -0.176871,-1.67149 0.283055,-0.24348 c 0.714427,-0.61453 0.997595,-0.22563 1.197451,1.64452 l 0.16141,1.5104 1.23619,1.16938 c 1.30225,1.23186 1.473342,1.5449 1.066654,1.95159 -0.392085,0.39209 -0.70678,0.22902 -2.107234,-1.09192 z m 45.324561,1.08709 c 0.0226,-3.01764 0.33752,-5.02855 0.9914,-6.33096 0.9245,-1.84141 1.39815,-4.28321 0.83086,-4.28321 -0.63726,0 -1.06065,0.57683 -1.82682,2.48893 -0.90534,2.25941 -0.97029,2.36591 -1.44281,2.36591 -0.91348,0 -0.90077,-0.36475 0.1,-2.86917 1.01767,-2.5468999 0.88387,-2.3658199 2.39287,-3.2380899 0.69993,-0.40456 1.48842,-0.87086 1.75222,-1.0362 0.92808,-0.58171 1.99708,-0.38742 2.11276,0.38398 0.0983,0.65588 0.39279,1.09937 0.90252,1.35941 0.77152,0.3936099 1.0289,1.2614699 0.55339,1.8659799 -0.47253,0.60071 -0.57987,0.50465 -1.19122,-1.06598 -0.72314,-1.8578699 -1.27045,-2.2920199 -2.08333,-1.6526099 -0.53437,0.42033 -0.49166,0.70602 0.47206,3.1580299 0.69225,1.76135 0.86787,2.31679 0.81542,2.57904 -0.0774,0.38705 0.69367,1.67977 2.22232,3.72572 0.47639,0.63759 0.88674,1.21156 0.91192,1.2755 0.0704,0.17891 -1.60152,0.78877 -2.98383,1.08835 -1.7372,0.3765 -4.53195,0.49088 -4.52966,0.18537 z m 45.02159,-1.14723 c -0.32972,-0.31153 -1.17743,-1.18061 -1.8838,-1.93132 l -1.28433,-1.36492 -0.3238,-2.30318 c -0.40546,-2.88393 -0.34322,-3.22021 0.59597,-3.22021 0.87514,0 0.94414,0.18393 1.00412,2.67676 l 0.0516,2.14173 0.54173,0.58457 c 0.29796,0.32151 1.04401,1.10306 1.65788,1.73675 1.24874,1.28905 1.37481,1.59556 0.8319,2.02262 -0.40851,0.32132 -0.52324,0.28831 -1.19122,-0.3428 z M 33.126663,19.499721 c -0.484409,-0.32098 -0.898487,-1.14894 -0.809659,-1.61896 0.376187,-1.99053 3.248097,-1.806 3.248097,0.2087 0,1.27437 -1.411504,2.09071 -2.438438,1.41026 z m -2.730865,-0.20131 c -0.282168,-0.0773 -0.488483,-0.25598 -0.493028,-0.42717 -9.08e-4,-0.0342 0.131856,-0.0429 0.295034,-0.0192 0.236923,0.0344 0.436317,-0.078 0.989903,-0.55811 0.871323,-0.75562 0.877733,-0.75285 0.775242,0.33548 -0.03452,0.36664 -1.064832,0.80643 -1.567151,0.66896 z M 166.8511,18.507591 c -0.30182,-0.22069 -0.0281,-1.08065 0.3147,-0.98872 0.12938,0.0347 0.32771,0.0637 0.44075,0.0646 0.18629,0.001 0.19018,0.0191 0.0415,0.19027 -0.0902,0.10386 -0.19444,0.31695 -0.23156,0.47359 -0.0822,0.3468 -0.30608,0.44988 -0.56535,0.26029 z m 15.49027,-0.77028 c -0.67593,-0.35674 -1.52258,-0.59709 -2.38592,-0.67734 l -0.73622,-0.0685 0.36692,-0.84288 c 0.55672,-1.27889 1.22992,-2.39241 1.88197,-3.11296 l 0.58794,-0.64969 0.21321,0.57659 c 0.16425,0.4442 0.42016,0.78109 1.11451,1.46714 1.07922,1.06631 1.13607,1.29319 0.49674,1.98244 -0.22251,0.2399 -0.55101,0.69362 -0.73001,1.00829 l -0.32545,0.57211 z m -88.507204,0.0308 c -0.18191,-0.13302 -0.17373,-0.19589 0.15441,-1.18548 0.34552,-1.042 0.52279,-1.20956 0.94021,-0.88875 0.0148,0.0113 -0.0702,0.4744 -0.18881,1.0291 -0.11853,0.5547 -0.21552,1.04838 -0.21552,1.09707 0,0.13931 -0.47792,0.10332 -0.69029,-0.052 z m 82.644704,-0.64831 c -0.0917,-0.36721 -0.24936,-1.00751 -0.35035,-1.42287 -0.23517,-0.96715 -0.21081,-0.94811 -1.59124,-1.24357 -1.13704,-0.24336 -1.47227,-0.40112 -1.47227,-0.69286 0,-0.27882 0.30069,-0.40584 0.77844,-0.32882 1.34241,0.21643 2.77458,0.61697 2.82374,0.78975 0.14339,0.50382 0.71324,2.96631 0.71324,3.08206 0,0.0735 -0.16534,0.21242 -0.36741,0.30878 l -0.3674,0.17521 z m -10.55791,-0.14853 -1.91161,-0.38192 -0.31531,-0.50015 c -1.50464,-2.38669 -1.94035,-3.3107 -1.73875,-3.6874 0.48744,-0.91078 0.99886,-0.51985 1.95822,1.49683 l 0.80646,1.69525 1.01687,0.19918 c 0.55928,0.10955 1.37175,0.26269 1.80548,0.34032 0.90435,0.16188 1.09939,0.28393 1.09939,0.68798 0,0.65609 -0.14673,0.66418 -2.72075,0.14991 z M 45.470719,16.620041 c -1.456926,-0.66146 -1.429158,-2.93648 0.04379,-3.58803 1.335178,-0.59061 2.830266,0.3612 2.830266,1.80182 0,1.48458 -1.493708,2.41291 -2.874059,1.78621 z m 27.588871,-0.41672 c -0.180388,-0.18039 -0.327979,-0.41233 -0.327979,-0.51542 0,-0.1031 -0.170481,-0.90244 -0.378847,-1.77633 -0.376388,-1.57857 -0.384444,-1.81741 -0.07352,-2.17945 0.615185,-0.71628 1.228995,-0.14111 1.627533,1.52506 0.174243,0.72847 0.337373,1.34505 0.362511,1.37018 0.02513,0.0252 0.642813,-0.0759 1.372613,-0.22453 1.481748,-0.30178 2.078681,-0.33678 2.248756,-0.13186 0.466325,0.56189 0.264601,1.30452 -0.398301,1.46631 -0.215264,0.0525 -1.071067,0.22146 -1.901785,0.37538 -0.830717,0.15393 -1.666233,0.31109 -1.8567,0.34926 -0.291314,0.0584 -0.398387,0.0172 -0.674285,-0.2586 z m -31.576222,-0.1279 c -0.268046,-0.1082 -0.578686,-0.51414 -0.57629,-0.75314 0.0014,-0.13794 0.01729,-0.1401 0.09761,-0.0132 0.258925,0.40899 0.923358,0.13937 1.8322,-0.74346 0.921593,-0.89522 1.633529,-1.16053 1.360459,-0.50699 -0.08978,0.21488 -0.163243,0.50991 -0.163243,0.6556 0,0.81115 -1.685245,1.71049 -2.550735,1.36122 z m 69.902512,-1.11759 c -1.94272,-0.8709 -2.08023,-0.96404 -2.28712,-1.54918 -0.0796,-0.22488 -0.4298,-1.12817 -0.77842,-2.00733 -0.81146,-2.0463299 -0.79502,-2.4472399 0.10038,-2.4472399 0.44466,0 0.53472,0.14727 1.32815,2.1719299 0.79345,2.02475 0.56712,1.78101 2.39357,2.57758 1.93667,0.84463 2.28503,1.22513 1.65959,1.8127 -0.35895,0.3372 -0.48124,0.30894 -2.41614,-0.55846 z m -19.039994,0.098 c -2.46297,-0.2923 -2.387187,-0.21559 -4.091618,-4.14175 -0.358148,-0.82499 -0.07815,-1.5284199 0.608396,-1.5284199 0.545692,0 0.71409,0.21375 1.570742,1.9938099 l 0.84522,1.75628 0.46315,0.0657 c 0.25473,0.0361 1.18354,0.13964 2.06402,0.23005 2.06188,0.2117 2.48119,0.4793 2.11946,1.35257 -0.2581,0.62312 -0.47822,0.63983 -3.57937,0.27179 z m 91.393764,-0.65657 c -2.19215,-1.60922 -1.62266,-4.8696199 0.81525,-4.6674599 1.66333,0.13794 2.379,1.8543299 1.53504,3.6814699 -0.57594,1.24685 -1.4789,1.62567 -2.35029,0.98599 z m -124.254675,-1.5495 c -2.472021,-0.85389 -1.833856,-4.5429899 0.785876,-4.5429899 2.641698,0 3.216544,3.8281799 0.687619,4.5791799 -0.70126,0.20826 -0.770752,0.20654 -1.473495,-0.0362 z m 64.707965,-0.0654 c 0,-0.0424 0.11786,-0.16979 0.26191,-0.2831 0.55702,-0.43815 0.57307,-1.04645 0.0663,-2.5120999 -0.39185,-1.13328 -0.21503,-2.117 0.50138,-2.78927 l 0.31738,-0.29782 0.23677,0.25203 c 0.22157,0.23585 0.22636,0.27292 0.0745,0.57735 -0.14757,0.29582 -0.14277,0.39779 0.0531,1.12464 0.50236,1.8648799 0.51047,2.1122499 0.0958,2.9249299 -0.27331,0.53574 -1.60715,1.36843 -1.60715,1.00334 z m -69.974458,-0.42101 c -0.480345,-0.48034 -0.506964,-0.76542 -0.05019,-0.53756 0.552697,0.27573 0.948202,0.0255 2.205956,-1.39556 0.60495,-0.6835199 1.345639,-1.2602899 1.618448,-1.2602899 0.02748,0 -0.02964,0.15779 -0.126947,0.35063 -0.09731,0.19285 -0.195981,0.6751699 -0.21928,1.0718499 -0.09597,1.63387 -2.383358,2.81556 -3.427983,1.77093 z m 110.283108,-0.65477 c -1.47458,-0.52561 -2.31304,-2.9364399 -1.42582,-4.0996499 0.9994,-1.31029 3.12261,-0.93945 3.6249,0.63313 0.43062,1.34823 -0.76355,3.8099199 -1.75621,3.6202799 -0.0137,-0.002 -0.21293,-0.0717 -0.44287,-0.15376 z m -36.61515,-0.81906 c -0.42664,-0.16677 -0.53658,-0.9848399 -0.16335,-1.2155099 0.0818,-0.0506 1.99228,-0.4933 3.61362,-0.83742 l 0.61671,-0.13089 1.10946,-1.76739 c 1.14708,-1.82733 1.29096,-1.9677 1.86847,-1.82275 0.34133,0.0856 0.54136,0.54707 0.38548,0.88918 -0.52735,1.1574 -2.46801,3.93459 -2.81672,4.0308599 -0.32917,0.0908 -3.56214,0.79846 -4.15359,0.90906 -0.11867,0.0221 -0.32571,-0.002 -0.46008,-0.0551 z m 54.05398,-0.0175 c -0.49116,-0.61343 0.0546,-1.7020699 0.8532,-1.7020699 0.61627,0 1.06529,0.35264 0.59828,0.46986 -0.31637,0.0795 -0.85515,0.5650199 -1.12774,1.0164499 -0.16349,0.27076 -0.23927,0.32126 -0.32374,0.21576 z M 68.809175,10.682731 c -0.378003,-0.12005 -0.690069,-0.39337 -0.889508,-0.7790399 -0.236227,-0.45681 -0.180713,-0.52845 0.224328,-0.28947 0.676769,0.3992999 1.288732,0.008 2.83935,-1.81822 0.889141,-1.04684 2.158758,-1.67858 1.956557,-0.97355 -0.05522,0.19256 -0.100409,0.54725 -0.100409,0.7882 0,1.54385 -2.60065,3.5261799 -4.030323,3.0720799 z m 66.431195,-0.51659 c -0.42499,-0.2837799 -0.55047,-2.6734299 -0.16626,-3.1664199 1.23046,-1.57886 0.15456,-3.03428 -1.32168,-1.78792 -1.0804,0.91216 -1.26569,0.98003 -1.66352,0.6094 -0.5594,-0.52116 -0.19148,-0.96065 2.32216,-2.77384 1.12357,-0.81048 1.94647,-0.39635 2.73327,1.37553 0.72441,1.63137 0.65568,2.34573 -0.27487,2.85663 l -0.43154,0.23693 -0.0325,1.12339 c -0.042,1.4552699 -0.45712,1.9990199 -1.1651,1.5262999 z M 75.10509,9.9652011 c -2.857901,-1.10026 -2.396451,-4.94894 0.593369,-4.94894 2.614007,0 3.495921,3.46802 1.189147,4.67617 -0.503638,0.26378 -1.435493,0.4063799 -1.782516,0.27277 z m 73.28901,-0.10898 c -0.58559,-0.20749 -1.2787,-0.96025 -1.44177,-1.56586 -0.67654,-2.51249 2.4408,-4.22612 4.11974,-2.26465 1.63398,1.90894 -0.29879,4.6735399 -2.67797,3.83051 z m -64.181176,-1.20794 c -0.521076,-0.24456 -0.908546,-0.69882 -0.908546,-1.06514 v -0.263 l 0.284263,0.2236 c 0.613086,0.48225 1.174333,0.2036 2.671521,-1.32637 1.83959,-1.87988 2.493033,-2.13059 2.492659,-0.95636 -6.35e-4,1.99812 -2.896349,4.15864 -4.539897,3.38727 z m 19.427846,-0.12301 c -0.62888,-0.1448 -1.1328,-0.50284 -1.1328,-0.80486 0,-0.0161 0.23061,-0.01 0.51246,0.0149 0.8247,0.071 1.29365,-0.33733 2.13551,-1.85938 0.58889,-1.06469 1.56364,-1.99239 2.09343,-1.99239 0.23872,0 0.23219,1.62605 -0.008,1.90968 -0.0903,0.10679 -0.39195,0.56591 -0.67036,1.02038 -0.85453,1.39483 -1.83068,1.965 -2.93056,1.71175 z m 58.59004,-0.63404 c -0.41221,-0.79713 0.18051,-1.71696 1.03271,-1.60266 0.4639,0.0622 0.79383,0.27897 0.55732,0.36612 -0.38156,0.14059 -0.99908,0.71486 -1.19538,1.11162 l -0.22456,0.45385 z m -35.60674,-0.20732 c -1.01627,-0.55803 -1.49246,-1.82515 -1.08593,-2.88963 1.03393,-2.70731 5.07923,-1.6822 4.65025,1.17841 -0.2426,1.61778 -2.1056,2.5122 -3.56432,1.71122 z m -35.743784,-0.17887 c -0.952686,-0.30604 -1.683302,-1.16219 -1.815621,-2.12757 l -0.0664,-0.48441 0.663741,-0.28786 c 0.89117,-0.38648 2.13495,-0.685 3.21952,-0.77269 l 0.89238,-0.0722 0.1595,0.38175 c 0.78581,1.8807 -1.12285,3.98303 -3.05312,3.36294 z m 18.262644,-0.69559 c -2.37301,-1.08857 -1.6324,-4.58846 0.97097,-4.58846 2.60688,0 3.34628,3.4935 0.97096,4.58763 -0.55109,0.25385 -1.38957,0.25421 -1.94193,8.3e-4 z m 37.33111,-0.76292 c -0.55798,-1.07902 0.65762,-2.14206 1.60096,-1.40003 0.29859,0.23486 0.36988,0.42371 0.15996,0.42371 -0.20172,0 -1.02968,0.67648 -1.22137,0.99794 -0.22544,0.37805 -0.33515,0.37365 -0.53955,-0.0216 z m -62.73812,-1.51575 c 0,-0.0594 0.264151,-0.10788 0.587002,-0.10788 0.322851,0 0.617007,-0.0485 0.653679,-0.10788 0.04021,-0.0651 -0.104642,-0.10787 -0.364864,-0.10787 -0.237348,0 -0.466292,-0.0562 -0.508765,-0.12496 -0.05716,-0.0925 0.126301,-0.10788 0.706074,-0.0593 0.734497,0.0615 0.779934,0.0529 0.729306,-0.14079 -0.07144,-0.27322 0.205136,-0.51558 0.384117,-0.3366 0.09819,0.0982 0.09657,0.17724 -0.0071,0.34311 -0.185178,0.29652 -0.02657,0.34343 1.215361,0.35945 1.125797,0.0145 1.38439,-0.11181 1.645634,-0.80392 l 0.129099,-0.34202 -0.454078,0.0824 c -1.362421,0.24697 -1.514018,-0.14596 -0.162103,-0.42016 1.446576,-0.29342 2.129005,-0.52908 2.304414,-0.79577 0.18834,-0.28635 0.44048,-0.31044 0.70869,-0.0677 0.17894,0.16194 0.29972,0.15332 1.61575,-0.11542 1.40156,-0.2862 1.59589,-0.2791 1.60458,0.0586 9.1e-4,0.0354 -0.54452,0.17639 -1.21206,0.31342 -1.27974,0.26268 -1.74888,0.42151 -1.26765,0.42917 0.26571,0.004 1.32862,0.55064 1.44852,0.74465 0.0339,0.0547 -0.24182,0.13126 -0.61258,0.17002 -1.40475,0.14685 -2.547899,0.43081 -3.344273,0.83074 -0.268708,0.13496 -0.40457,0.16034 -0.40457,0.0756 0,-0.24024 0.539099,-1.04766 0.889991,-1.33296 l 0.350691,-0.28513 -0.377599,0.0752 c -0.692677,0.13802 -0.852569,0.25002 -1.101782,0.77177 -0.386558,0.80929 -0.795468,0.96064 -2.201421,0.81482 -0.887755,-0.092 -1.190044,-0.0858 -1.518795,0.0315 -0.481741,0.17184 -1.435353,0.20371 -1.435353,0.048 z m 48.55609,-1.48359 C 130.81233,2.2926811 131.36681,-0.00134893 133.02852,1.0660992e-6 133.96078,7.510661e-4 134.65702,0.69245107 134.65702,1.6178711 c 0,1.2298 -1.26133,1.9921 -2.36501,1.42932 z"
     id="path1" /></svg>
