<svg viewBox="0 0 512 512" height="96" width="96" xmlns="http://www.w3.org/2000/svg" style=""><defs><style>.cls-1{fill:#fff;}</style></defs><title>Curriculum Vitae</title><path d="M317.132 333.624h-.36L295.798 256H256l38.185 128h44.1l39.992-128h-40.53zm117.368-187c-.875-3.625-2.5-6.25-4.375-8.5L325.5 23.5c-2.375-2.625-5.125-3.875-8.25-5.5-3.625-1.875-7.625-2-11.75-2H105.625C90.125 16 76 28 76 44.625v419C76 480.375 90.125 496 105.625 496H409.5c15.5 0 26.5-15.625 26.5-32.375V158.5c0-4.5-.5-7.75-1.5-11.875zM317.25 74.25l72.5 79.375h-72.5V74.25zM116 456.125v-400h161.25V158.25c0 18.5 16.75 35.375 35.125 35.375H396v262.5H116zm98.495-114.858c-.957 2.5-2.212 4.678-3.767 6.5-1.538 1.838-3.42 3.264-5.645 4.3s-4.948 1.526-8.128 1.526c-4.476 0-8.17-.97-11.136-2.896-2.965-1.953-5.333-4.506-7.1-7.713-1.767-3.18-3.052-6.802-3.85-10.78-.813-3.98-1.198-8.043-1.198-12.148 0-4.12.385-8.157 1.198-12.164.8-4.006 2.084-7.6 3.85-10.78 1.767-3.208 4.135-5.76 7.1-7.716s6.674-2.893 11.136-2.893c3.864 0 7.045.727 9.496 2.195 2.453 1.497 4.423 3.2 5.903 5.15 1.485 1.952 2.5 3.893 3.082 5.902.57 1.983.97 3.565 1.197 4.705h36.63c-1.597-15.398-6.986-27.3-16.182-35.674s-22.23-12.647-39.098-12.76c-9.483 0-18.022 1.525-25.594 4.62-7.587 3.064-14.087 7.413-19.52 13.004-5.418 5.588-9.584 12.303-12.5 20.2-2.9 7.854-4.378 16.6-4.378 26.178 0 8.996 1.382 17.438 4.108 25.237 2.735 7.827 6.77 14.56 12.077 20.275 5.318 5.72 11.777 10.225 19.42 13.533 7.642 3.28 16.427 4.96 26.38 4.96 8.897 0 16.826-1.497 23.783-4.448 6.944-2.98 12.8-6.873 17.538-11.72 4.734-4.85 8.327-10.3 10.78-16.34 2.452-6.02 3.692-12.15 3.692-18.296H216.8c-.557 2.852-1.312 5.574-2.294 8.07z" fill="#fff" style=""></path></svg>
