<svg viewBox="0 0 500 500" height="36" width="36" xmlns="http://www.w3.org/2000/svg" style=""><defs><style>.cls-1{fill:#fff;}</style></defs><title>Google Scholar</title><path d="M411.995 74.802V43.01L435 25H185.61L35 155.978h99.787l-.182 7.206c0 24.195 8.395 44.402 25.173 60.423 17.016 16.176 37.6 24.167 62.2 24.167 5.807 0 11.418-.574 17.002-1.19-3.372 7.598-5.192 14.623-5.192 21.004 0 11.6 5.192 24.012 15.813 37.012-45.814 3.008-79.412 11.39-100.794 24.6-12.398 7.6-22.222 17.185-29.596 28.574-7.613 11.6-11.21 24.014-11.21 37.42 0 11.18 2.407 21.382 7.207 30.38 4.8 9.012 11.194 16.415 18.975 22.012 7.808 5.78 16.82 10.594 27.007 14.61 10.173 3.792 20.416 6.59 30.393 8.187 10.216 1.61 20.193 2.406 30.002 2.406 15.813 0 31.402-2.015 47.396-6.017 15.826-4.17 30.603-10.187 44.4-18.192 13.812-8.004 25.203-18.793 33.808-32.17 8.606-13.63 12.986-29.008 12.986-46 0-12.804-2.798-24.418-7.975-34.998-5.22-10.593-11.6-19.408-19.2-26.223-7.626-6.773-15.24-13.014-22.837-18.583-7.375-5.612-13.77-11.405-19.185-17.213-5.192-5.974-7.78-11.78-7.78-17.393 0-5.793 1.986-11.376 6.2-16.777 3.987-5.402 8.787-10.412 14.595-15.422 5.792-4.98 11.6-10.578 17.196-16.582 5.808-6.003 10.818-13.81 14.805-23.215 4.003-9.613 6-20.402 6-32.395 0-15.784-3.008-28.6-8.802-38.79-.602-1.203-1.4-2.21-2.197-3.596l66.413-54.42v20c-8.593 1.008-7.81 6.2-7.81 12.4V237.21c0 6.97 5.794 12.58 12.804 12.58h4.6c7.01 0 12.594-5.61 12.594-12.58V87.2c0-6.2 1.007-11.39-7.584-12.4zM286.8 334.197c1.176.798 4.17 3.19 8.998 7 4.575 3.778 8 6.578 9.586 8.593 1.61 1.987 4.198 5.01 7.416 8.787 3.386 4 5.597 7.403 6.772 10.202.995 3.008 2.225 6.408 3.415 10.396a43.7 43.7 0 0 1 1.805 12.398c0 19.802-7.598 34.592-23.02 44.207-15.196 9.403-33.374 14.202-54.574 14.202-10.816 0-21.214-1.2-31.61-3.597-10.397-2.616-20.207-6.408-29.596-11.208a61.52 61.52 0 0 1-22.795-20.808c-5.807-8.984-8.606-19.185-8.606-30.59 0-11.993 3.2-22.6 9.81-31.402 6.577-9.012 15.183-15.588 25.776-20.192 10.398-4.617 21.2-7.823 32.003-9.796 10.998-2.015 22.01-3.008 33.206-3.008 5.192 0 9.193.406 12.202.797.406.196 3.4 2.393 8.984 6.62l10.23 7.39zm-4.002-117.4c-8.606 10.37-20.598 15.602-36.02 15.602-13.8 0-26-5.624-36.592-16.82-10.398-11-17.786-23.58-22.39-37.782-4.618-14.008-7.012-27.806-7.012-41.42 0-15.994 4.2-29.596 12.594-40.79 8.41-11.39 20.417-17.002 36.187-17.002 13.826 0 26 6.003 36.62 17.814 10.593 11.6 18.19 24.783 22.796 39.6 4.393 14.595 6.814 28.574 6.814 41.8 0 15.784-4.422 28.756-13 39z" fill="#fff" style=""></path></svg>
