<svg viewBox="0 0 16 16" height="36" width="36" xmlns="http://www.w3.org/2000/svg" style=""><title>Twitter</title><path d="M15.97 3.058a6.54 6.54 0 0 1-1.878.515 3.28 3.28 0 0 0 1.438-1.809 6.53 6.53 0 0 1-2.076.793c-.596-.636-1.446-1.033-2.387-1.033a3.27 3.27 0 0 0-3.27 3.27c0 .256.03.506.085.745A9.28 9.28 0 0 1 1.14 2.124C.86 2.607.698 3.168.698 3.767a3.27 3.27 0 0 0 1.455 2.722c-.537-.017-1.04-.164-1.482-.41v.04a3.27 3.27 0 0 0 2.623 3.206 3.26 3.26 0 0 1-.861.115 3.27 3.27 0 0 1-.615-.059c.416 1.3 1.624 2.245 3.055 2.27a6.56 6.56 0 0 1-4.061 1.4c-.264 0-.524-.015-.78-.046 1.447.928 3.166 1.47 5.013 1.47 6.015 0 9.304-4.983 9.304-9.304a9.88 9.88 0 0 0-.009-.423c.636-.46 1.19-1.036 1.63-1.692z" fill="#fff" style=""></path></svg>
