<svg class="typst-doc" viewBox="0 0 207.73228346456693 226.32595549632615" width="207.73228346456693pt" height="226.32595549632615pt" xmlns="http://www.w3.org/2000/svg" xmlns:xlink="http://www.w3.org/1999/xlink" xmlns:h5="http://www.w3.org/1999/xhtml">
    <g>
        <g transform="translate(70.86614173228347 70.86614173228347)">
            <g class="typst-group">
                <g>
                    <g transform="translate(0 0)">
                        <g class="typst-group">
                            <g>
                                <g transform="translate(0 1.7325284000828114)">
                                    <path class="typst-shape" fill="none" stroke="#ffffff" stroke-width="1.5" stroke-linecap="round" stroke-linejoin="miter" stroke-miterlimit="4" d="M 0 33 C 0 33 16.5 0 16.5 0 "/>
                                </g>
                                <g transform="translate(5.098175905511814 9.634538065999342)">
                                    <path class="typst-shape" fill="#ffffff" fill-rule="nonzero" d="M 10.892331 4.588681 C 10.892331 4.588681 0 14.901641 0 14.901641 C 0 14.901641 1.7149668 0 1.7149668 0 "/>
                                </g>
                                <g transform="translate(16.500000000000014 0)">
                                    <path class="typst-shape" fill="none" stroke="#ffffff" stroke-width="1.5" stroke-linecap="round" stroke-linejoin="miter" stroke-miterlimit="4" d="M 0 1.7325284 C 0 1.7325284 0.033 1.7325284 0.033 1.7325284 C 0.033 1.7325284 0.033 1.7325284 0.033 1.7325284 C 0.30745 1.4490638 0.85635 -0.25172356 1.6797 0.031740997 C 1.6797 0.031740997 1.6797 0.031740997 1.6797 0.031740997 C 2.50305 0.31520557 3.8753 3.4333158 4.9731 3.4333158 C 4.9731 3.4333158 4.9731 3.4333158 4.9731 3.4333158 C 6.0709 3.4333158 7.1687 0.031740997 8.2665 0.031740997 C 8.2665 0.031740997 8.2665 0.031740997 8.2665 0.031740997 C 9.3643 0.031740997 10.4621 3.4333158 11.5599 3.4333158 C 11.5599 3.4333158 11.5599 3.4333158 11.5599 3.4333158 C 12.6577 3.4333158 13.7555 0.031740997 14.8533 0.031740997 C 14.8533 0.031740997 14.8533 0.031740997 14.8533 0.031740997 C 15.9511 0.031740997 17.0489 3.4333158 18.1467 3.4333158 C 18.1467 3.4333158 18.1467 3.4333158 18.1467 3.4333158 C 19.2445 3.4333158 20.3423 0.031740997 21.4401 0.031740997 C 21.4401 0.031740997 21.4401 0.031740997 21.4401 0.031740997 C 22.5379 0.031740997 23.6357 3.4333158 24.7335 3.4333158 C 24.7335 3.4333158 24.7335 3.4333158 24.7335 3.4333158 C 25.8313 3.4333158 26.9291 0.031740997 28.0269 0.031740997 C 28.0269 0.031740997 28.0269 0.031740997 28.0269 0.031740997 C 29.1247 0.031740997 30.49695 3.1498513 31.3203 3.4333158 C 31.3203 3.4333158 31.3203 3.4333158 31.3203 3.4333158 C 32.14365 3.7167804 32.69255 2.0159929 32.967 1.7325284 C 32.967 1.7325284 32.967 1.7325284 32.967 1.7325284 C 32.967 1.7325284 33 1.7325284 33 1.7325284 "/>
                                </g>
                                <g transform="translate(49.50000000000002 1.7325284000827863)">
                                    <path class="typst-shape" fill="none" stroke="#ffffff" stroke-width="1.5" stroke-linecap="round" stroke-linejoin="miter" stroke-miterlimit="4" d="M 0 0 C 0 0 16.5 33 16.5 33 "/>
                                </g>
                                <g transform="translate(54.598175905511816 11.928877565437144)">
                                    <path class="typst-shape" fill="#ffffff" fill-rule="nonzero" d="M 1.7149668 14.901641 C 1.7149668 14.901641 0 0 0 0 C 0 0 10.892331 10.31296 10.892331 10.31296 "/>
                                </g>
                                <g transform="translate(16.49999987018394 1.7325283173706185)">
                                    <path class="typst-shape" fill="none" stroke="#ffffff" stroke-width="1.5" stroke-linecap="round" stroke-linejoin="miter" stroke-miterlimit="4" d="M 0 0 C 2.5707757 17.33608 8.154973 34.08867 16.5 49.5 "/>
                                </g>
                                <g transform="translate(20.102274122073858 20.463563392208805)">
                                    <path class="typst-shape" fill="#ffffff" fill-rule="nonzero" d="M 0 14.994405 C 0 14.994405 0.40967852 0 0.40967852 0 C 0.40967852 0 9.734064 11.749717 9.734064 11.749717 "/>
                                </g>
                                <g transform="translate(32.999999940839714 1.7325283173706436)">
                                    <path class="typst-shape" fill="none" stroke="#ffffff" stroke-width="1.5" stroke-linecap="round" stroke-linejoin="miter" stroke-miterlimit="4" d="M 0 49.5 C 8.345027 34.08867 13.929224 17.33608 16.5 0 "/>
                                </g>
                                <g transform="translate(40.61938051577464 18.84612366694963)">
                                    <path class="typst-shape" fill="#ffffff" fill-rule="nonzero" d="M 9.734064 3.244688 C 9.734064 3.244688 0.40967852 14.994405 0.40967852 14.994405 C 0.40967852 14.994405 0 0 0 0 "/>
                                </g>
                                <g transform="translate(30.8740157480315 51.23252840008282)">
                                    <path class="typst-shape" fill="none" stroke="#ffffff" stroke-width="1.5" stroke-linecap="round" stroke-linejoin="miter" stroke-miterlimit="4" d="M 2.1259842 0 C 2.1259842 0 2.1259842 0.0165 2.1259842 0.0165 C 2.1259842 0.0165 2.1259842 0.0165 2.1259842 0.0165 C 4.96063 0.0165 4.96063 8.8055 2.1259842 8.8055 C 2.1259842 8.8055 2.1259842 8.8055 2.1259842 8.8055 C -0.70866144 8.8055 -0.70866144 4.4055 2.1259842 4.4055 C 2.1259842 4.4055 2.1259842 4.4055 2.1259842 4.4055 C 4.96063 4.4055 4.96063 13.1945 2.1259842 13.1945 C 2.1259842 13.1945 2.1259842 13.1945 2.1259842 13.1945 C -0.70866144 13.1945 -0.70866144 8.7945 2.1259842 8.7945 C 2.1259842 8.7945 2.1259842 8.7945 2.1259842 8.7945 C 4.96063 8.7945 4.96063 17.5835 2.1259842 17.5835 C 2.1259842 17.5835 2.1259842 17.5835 2.1259842 17.5835 C 2.1259842 17.5835 2.1259842 16.5 2.1259842 16.5 "/>
                                </g>
                                <g transform="translate(16.499999999999996 67.73252840008281)">
                                    <path class="typst-shape" fill="none" stroke="#ffffff" stroke-width="1.5" stroke-linecap="round" stroke-linejoin="miter" stroke-miterlimit="4" d="M 16.5 0 C 16.5 0 0 16.5 0 16.5 "/>
                                </g>
                                <g transform="translate(19.76652727559056 67.3713856188001)">
                                    <path class="typst-shape" fill="#ffffff" fill-rule="nonzero" d="M 6.3392735 0 C 6.3392735 0 0 13.594615 0 13.594615 C 0 13.594615 13.594615 7.255342 13.594615 7.255342 "/>
                                </g>
                                <g transform="translate(33 67.73252840008283)">
                                    <path class="typst-shape" fill="none" stroke="#ffffff" stroke-width="1.5" stroke-linecap="round" stroke-linejoin="miter" stroke-miterlimit="4" d="M 0 0 C 0 0 16.5 16.5 16.5 16.5 "/>
                                </g>
                                <g transform="translate(36.26652831496064 70.99905662055527)">
                                    <path class="typst-shape" fill="#ffffff" fill-rule="nonzero" d="M 6.3392735 13.594615 C 6.3392735 13.594615 0 0 0 0 C 0 0 13.594615 6.3392735 13.594615 6.3392735 "/>
                                </g>
                            </g>
                        </g>
                    </g>
                </g>
            </g>
        </g>
    </g>
</svg>
