<?xml version="1.0" encoding="utf-8"?>
<svg xmlns="http://www.w3.org/2000/svg" xmlns:xlink="http://www.w3.org/1999/xlink" width="600" height="400" viewBox="0 0 2400 1600">
<defs>
  <clipPath id="clip510">
    <rect x="0" y="0" width="2400" height="1600"/>
  </clipPath>
</defs>
<path clip-path="url(#clip510)" d="M0 1600 L2400 1600 L2400 0 L0 0  Z" fill="#363d46" fill-rule="evenodd" fill-opacity="1"/>
<defs>
  <clipPath id="clip511">
    <rect x="480" y="0" width="1681" height="1600"/>
  </clipPath>
</defs>
<path clip-path="url(#clip510)" d="M219.033 1423.18 L2352.76 1423.18 L2352.76 47.2441 L219.033 47.2441  Z" fill="#30343b" fill-rule="evenodd" fill-opacity="1"/>
<defs>
  <clipPath id="clip512">
    <rect x="219" y="47" width="2135" height="1377"/>
  </clipPath>
</defs>
<polyline clip-path="url(#clip512)" style="stroke:#adb2b7; stroke-linecap:round; stroke-linejoin:round; stroke-width:2; stroke-opacity:0.1; fill:none" points="279.421,1423.18 279.421,47.2441 "/>
<polyline clip-path="url(#clip512)" style="stroke:#adb2b7; stroke-linecap:round; stroke-linejoin:round; stroke-width:2; stroke-opacity:0.1; fill:none" points="782.658,1423.18 782.658,47.2441 "/>
<polyline clip-path="url(#clip512)" style="stroke:#adb2b7; stroke-linecap:round; stroke-linejoin:round; stroke-width:2; stroke-opacity:0.1; fill:none" points="1285.89,1423.18 1285.89,47.2441 "/>
<polyline clip-path="url(#clip512)" style="stroke:#adb2b7; stroke-linecap:round; stroke-linejoin:round; stroke-width:2; stroke-opacity:0.1; fill:none" points="1789.13,1423.18 1789.13,47.2441 "/>
<polyline clip-path="url(#clip512)" style="stroke:#adb2b7; stroke-linecap:round; stroke-linejoin:round; stroke-width:2; stroke-opacity:0.1; fill:none" points="2292.37,1423.18 2292.37,47.2441 "/>
<polyline clip-path="url(#clip510)" style="stroke:#adb2b7; stroke-linecap:round; stroke-linejoin:round; stroke-width:4; stroke-opacity:1; fill:none" points="219.033,1423.18 2352.76,1423.18 "/>
<polyline clip-path="url(#clip510)" style="stroke:#adb2b7; stroke-linecap:round; stroke-linejoin:round; stroke-width:4; stroke-opacity:1; fill:none" points="279.421,1423.18 279.421,1404.28 "/>
<polyline clip-path="url(#clip510)" style="stroke:#adb2b7; stroke-linecap:round; stroke-linejoin:round; stroke-width:4; stroke-opacity:1; fill:none" points="782.658,1423.18 782.658,1404.28 "/>
<polyline clip-path="url(#clip510)" style="stroke:#adb2b7; stroke-linecap:round; stroke-linejoin:round; stroke-width:4; stroke-opacity:1; fill:none" points="1285.89,1423.18 1285.89,1404.28 "/>
<polyline clip-path="url(#clip510)" style="stroke:#adb2b7; stroke-linecap:round; stroke-linejoin:round; stroke-width:4; stroke-opacity:1; fill:none" points="1789.13,1423.18 1789.13,1404.28 "/>
<polyline clip-path="url(#clip510)" style="stroke:#adb2b7; stroke-linecap:round; stroke-linejoin:round; stroke-width:4; stroke-opacity:1; fill:none" points="2292.37,1423.18 2292.37,1404.28 "/>
<path clip-path="url(#clip510)" d="M279.421 1454.1 Q275.81 1454.1 273.982 1457.66 Q272.176 1461.2 272.176 1468.33 Q272.176 1475.44 273.982 1479.01 Q275.81 1482.55 279.421 1482.55 Q283.056 1482.55 284.861 1479.01 Q286.69 1475.44 286.69 1468.33 Q286.69 1461.2 284.861 1457.66 Q283.056 1454.1 279.421 1454.1 M279.421 1450.39 Q285.231 1450.39 288.287 1455 Q291.366 1459.58 291.366 1468.33 Q291.366 1477.06 288.287 1481.67 Q285.231 1486.25 279.421 1486.25 Q273.611 1486.25 270.532 1481.67 Q267.477 1477.06 267.477 1468.33 Q267.477 1459.58 270.532 1455 Q273.611 1450.39 279.421 1450.39 Z" fill="#ffffff" fill-rule="nonzero" fill-opacity="1" /><path clip-path="url(#clip510)" d="M772.936 1451.02 L791.292 1451.02 L791.292 1454.96 L777.218 1454.96 L777.218 1463.43 Q778.237 1463.08 779.255 1462.92 Q780.274 1462.73 781.292 1462.73 Q787.079 1462.73 790.459 1465.9 Q793.838 1469.08 793.838 1474.49 Q793.838 1480.07 790.366 1483.17 Q786.894 1486.25 780.575 1486.25 Q778.399 1486.25 776.13 1485.88 Q773.885 1485.51 771.477 1484.77 L771.477 1480.07 Q773.561 1481.2 775.783 1481.76 Q778.005 1482.32 780.482 1482.32 Q784.487 1482.32 786.825 1480.21 Q789.162 1478.1 789.162 1474.49 Q789.162 1470.88 786.825 1468.77 Q784.487 1466.67 780.482 1466.67 Q778.607 1466.67 776.732 1467.08 Q774.88 1467.5 772.936 1468.38 L772.936 1451.02 Z" fill="#ffffff" fill-rule="nonzero" fill-opacity="1" /><path clip-path="url(#clip510)" d="M1260.58 1481.64 L1268.22 1481.64 L1268.22 1455.28 L1259.91 1456.95 L1259.91 1452.69 L1268.17 1451.02 L1272.85 1451.02 L1272.85 1481.64 L1280.49 1481.64 L1280.49 1485.58 L1260.58 1485.58 L1260.58 1481.64 Z" fill="#ffffff" fill-rule="nonzero" fill-opacity="1" /><path clip-path="url(#clip510)" d="M1299.93 1454.1 Q1296.32 1454.1 1294.49 1457.66 Q1292.69 1461.2 1292.69 1468.33 Q1292.69 1475.44 1294.49 1479.01 Q1296.32 1482.55 1299.93 1482.55 Q1303.57 1482.55 1305.37 1479.01 Q1307.2 1475.44 1307.2 1468.33 Q1307.2 1461.2 1305.37 1457.66 Q1303.57 1454.1 1299.93 1454.1 M1299.93 1450.39 Q1305.74 1450.39 1308.8 1455 Q1311.88 1459.58 1311.88 1468.33 Q1311.88 1477.06 1308.8 1481.67 Q1305.74 1486.25 1299.93 1486.25 Q1294.12 1486.25 1291.04 1481.67 Q1287.99 1477.06 1287.99 1468.33 Q1287.99 1459.58 1291.04 1455 Q1294.12 1450.39 1299.93 1450.39 Z" fill="#ffffff" fill-rule="nonzero" fill-opacity="1" /><path clip-path="url(#clip510)" d="M1764.32 1481.64 L1771.96 1481.64 L1771.96 1455.28 L1763.64 1456.95 L1763.64 1452.69 L1771.91 1451.02 L1776.58 1451.02 L1776.58 1481.64 L1784.22 1481.64 L1784.22 1485.58 L1764.32 1485.58 L1764.32 1481.64 Z" fill="#ffffff" fill-rule="nonzero" fill-opacity="1" /><path clip-path="url(#clip510)" d="M1793.71 1451.02 L1812.07 1451.02 L1812.07 1454.96 L1798 1454.96 L1798 1463.43 Q1799.02 1463.08 1800.03 1462.92 Q1801.05 1462.73 1802.07 1462.73 Q1807.86 1462.73 1811.24 1465.9 Q1814.62 1469.08 1814.62 1474.49 Q1814.62 1480.07 1811.14 1483.17 Q1807.67 1486.25 1801.35 1486.25 Q1799.18 1486.25 1796.91 1485.88 Q1794.66 1485.51 1792.26 1484.77 L1792.26 1480.07 Q1794.34 1481.2 1796.56 1481.76 Q1798.78 1482.32 1801.26 1482.32 Q1805.27 1482.32 1807.6 1480.21 Q1809.94 1478.1 1809.94 1474.49 Q1809.94 1470.88 1807.6 1468.77 Q1805.27 1466.67 1801.26 1466.67 Q1799.39 1466.67 1797.51 1467.08 Q1795.66 1467.5 1793.71 1468.38 L1793.71 1451.02 Z" fill="#ffffff" fill-rule="nonzero" fill-opacity="1" /><path clip-path="url(#clip510)" d="M2271.14 1481.64 L2287.46 1481.64 L2287.46 1485.58 L2265.52 1485.58 L2265.52 1481.64 Q2268.18 1478.89 2272.76 1474.26 Q2277.37 1469.61 2278.55 1468.27 Q2280.79 1465.74 2281.67 1464.01 Q2282.58 1462.25 2282.58 1460.56 Q2282.58 1457.8 2280.63 1456.07 Q2278.71 1454.33 2275.61 1454.33 Q2273.41 1454.33 2270.96 1455.09 Q2268.53 1455.86 2265.75 1457.41 L2265.75 1452.69 Q2268.57 1451.55 2271.03 1450.97 Q2273.48 1450.39 2275.52 1450.39 Q2280.89 1450.39 2284.08 1453.08 Q2287.27 1455.77 2287.27 1460.26 Q2287.27 1462.39 2286.46 1464.31 Q2285.68 1466.2 2283.57 1468.8 Q2282.99 1469.47 2279.89 1472.69 Q2276.79 1475.88 2271.14 1481.64 Z" fill="#ffffff" fill-rule="nonzero" fill-opacity="1" /><path clip-path="url(#clip510)" d="M2307.27 1454.1 Q2303.66 1454.1 2301.84 1457.66 Q2300.03 1461.2 2300.03 1468.33 Q2300.03 1475.44 2301.84 1479.01 Q2303.66 1482.55 2307.27 1482.55 Q2310.91 1482.55 2312.71 1479.01 Q2314.54 1475.44 2314.54 1468.33 Q2314.54 1461.2 2312.71 1457.66 Q2310.91 1454.1 2307.27 1454.1 M2307.27 1450.39 Q2313.09 1450.39 2316.14 1455 Q2319.22 1459.58 2319.22 1468.33 Q2319.22 1477.06 2316.14 1481.67 Q2313.09 1486.25 2307.27 1486.25 Q2301.46 1486.25 2298.39 1481.67 Q2295.33 1477.06 2295.33 1468.33 Q2295.33 1459.58 2298.39 1455 Q2301.46 1450.39 2307.27 1450.39 Z" fill="#ffffff" fill-rule="nonzero" fill-opacity="1" /><path clip-path="url(#clip510)" d="M1179.21 1518.52 L1185.06 1518.52 L1185.06 1568.04 L1179.21 1568.04 L1179.21 1518.52 Z" fill="#ffffff" fill-rule="nonzero" fill-opacity="1" /><path clip-path="url(#clip510)" d="M1211.13 1536.5 Q1206.42 1536.5 1203.68 1540.19 Q1200.94 1543.85 1200.94 1550.25 Q1200.94 1556.65 1203.65 1560.34 Q1206.39 1564 1211.13 1564 Q1215.81 1564 1218.55 1560.31 Q1221.28 1556.62 1221.28 1550.25 Q1221.28 1543.92 1218.55 1540.23 Q1215.81 1536.5 1211.13 1536.5 M1211.13 1531.54 Q1218.77 1531.54 1223.13 1536.5 Q1227.49 1541.47 1227.49 1550.25 Q1227.49 1559 1223.13 1564 Q1218.77 1568.97 1211.13 1568.97 Q1203.46 1568.97 1199.1 1564 Q1194.77 1559 1194.77 1550.25 Q1194.77 1541.47 1199.1 1536.5 Q1203.46 1531.54 1211.13 1531.54 Z" fill="#ffffff" fill-rule="nonzero" fill-opacity="1" /><path clip-path="url(#clip510)" d="M1260.65 1549.81 Q1260.65 1543.44 1258.01 1539.94 Q1255.4 1536.44 1250.66 1536.44 Q1245.95 1536.44 1243.31 1539.94 Q1240.7 1543.44 1240.7 1549.81 Q1240.7 1556.14 1243.31 1559.64 Q1245.95 1563.14 1250.66 1563.14 Q1255.4 1563.14 1258.01 1559.64 Q1260.65 1556.14 1260.65 1549.81 M1266.51 1563.62 Q1266.51 1572.72 1262.47 1577.15 Q1258.43 1581.6 1250.09 1581.6 Q1247 1581.6 1244.26 1581.13 Q1241.53 1580.68 1238.95 1579.72 L1238.95 1574.03 Q1241.53 1575.43 1244.04 1576.1 Q1246.55 1576.76 1249.16 1576.76 Q1254.93 1576.76 1257.79 1573.74 Q1260.65 1570.75 1260.65 1564.67 L1260.65 1561.77 Q1258.84 1564.92 1256.01 1566.48 Q1253.17 1568.04 1249.23 1568.04 Q1242.67 1568.04 1238.66 1563.05 Q1234.65 1558.05 1234.65 1549.81 Q1234.65 1541.53 1238.66 1536.53 Q1242.67 1531.54 1249.23 1531.54 Q1253.17 1531.54 1256.01 1533.1 Q1258.84 1534.66 1260.65 1537.81 L1260.65 1532.4 L1266.51 1532.4 L1266.51 1563.62 Z" fill="#ffffff" fill-rule="nonzero" fill-opacity="1" /><path clip-path="url(#clip510)" d="M1280.96 1564.42 L1294.46 1564.42 L1294.46 1568.04 L1275.42 1568.04 L1275.42 1564.54 Q1276.51 1563.56 1278.51 1561.77 Q1289.46 1552.07 1289.46 1549.07 Q1289.46 1546.97 1287.8 1545.7 Q1286.15 1544.4 1283.44 1544.4 Q1281.79 1544.4 1279.85 1544.97 Q1277.91 1545.51 1275.61 1546.62 L1275.61 1542.71 Q1278.06 1541.82 1280.17 1541.37 Q1282.3 1540.93 1284.11 1540.93 Q1288.73 1540.93 1291.5 1543.03 Q1294.27 1545.13 1294.27 1548.56 Q1294.27 1552.99 1283.73 1562.03 Q1281.95 1563.56 1280.96 1564.42 Z" fill="#ffffff" fill-rule="nonzero" fill-opacity="1" /><path clip-path="url(#clip510)" d="M1318.77 1518.58 Q1314.51 1525.9 1312.44 1533.06 Q1310.37 1540.23 1310.37 1547.58 Q1310.37 1554.93 1312.44 1562.16 Q1314.54 1569.35 1318.77 1576.64 L1313.68 1576.64 Q1308.91 1569.16 1306.52 1561.93 Q1304.16 1554.71 1304.16 1547.58 Q1304.16 1540.48 1306.52 1533.29 Q1308.87 1526.09 1313.68 1518.58 L1318.77 1518.58 Z" fill="#ffffff" fill-rule="nonzero" fill-opacity="1" /><path clip-path="url(#clip510)" d="M1330.39 1520.52 L1339.05 1520.52 L1360.12 1560.28 L1360.12 1520.52 L1366.36 1520.52 L1366.36 1568.04 L1357.7 1568.04 L1336.63 1528.29 L1336.63 1568.04 L1330.39 1568.04 L1330.39 1520.52 Z" fill="#ffffff" fill-rule="nonzero" fill-opacity="1" /><path clip-path="url(#clip510)" d="M1377.97 1518.58 L1383.07 1518.58 Q1387.84 1526.09 1390.2 1533.29 Q1392.58 1540.48 1392.58 1547.58 Q1392.58 1554.71 1390.2 1561.93 Q1387.84 1569.16 1383.07 1576.64 L1377.97 1576.64 Q1382.21 1569.35 1384.28 1562.16 Q1386.38 1554.93 1386.38 1547.58 Q1386.38 1540.23 1384.28 1533.06 Q1382.21 1525.9 1377.97 1518.58 Z" fill="#ffffff" fill-rule="nonzero" fill-opacity="1" /><polyline clip-path="url(#clip512)" style="stroke:#adb2b7; stroke-linecap:round; stroke-linejoin:round; stroke-width:2; stroke-opacity:0.1; fill:none" points="219.033,1209.69 2352.76,1209.69 "/>
<polyline clip-path="url(#clip512)" style="stroke:#adb2b7; stroke-linecap:round; stroke-linejoin:round; stroke-width:2; stroke-opacity:0.1; fill:none" points="219.033,946.038 2352.76,946.038 "/>
<polyline clip-path="url(#clip512)" style="stroke:#adb2b7; stroke-linecap:round; stroke-linejoin:round; stroke-width:2; stroke-opacity:0.1; fill:none" points="219.033,682.385 2352.76,682.385 "/>
<polyline clip-path="url(#clip512)" style="stroke:#adb2b7; stroke-linecap:round; stroke-linejoin:round; stroke-width:2; stroke-opacity:0.1; fill:none" points="219.033,418.731 2352.76,418.731 "/>
<polyline clip-path="url(#clip512)" style="stroke:#adb2b7; stroke-linecap:round; stroke-linejoin:round; stroke-width:2; stroke-opacity:0.1; fill:none" points="219.033,155.078 2352.76,155.078 "/>
<polyline clip-path="url(#clip510)" style="stroke:#adb2b7; stroke-linecap:round; stroke-linejoin:round; stroke-width:4; stroke-opacity:1; fill:none" points="219.033,1423.18 219.033,47.2441 "/>
<polyline clip-path="url(#clip510)" style="stroke:#adb2b7; stroke-linecap:round; stroke-linejoin:round; stroke-width:4; stroke-opacity:1; fill:none" points="219.033,1209.69 237.931,1209.69 "/>
<polyline clip-path="url(#clip510)" style="stroke:#adb2b7; stroke-linecap:round; stroke-linejoin:round; stroke-width:4; stroke-opacity:1; fill:none" points="219.033,946.038 237.931,946.038 "/>
<polyline clip-path="url(#clip510)" style="stroke:#adb2b7; stroke-linecap:round; stroke-linejoin:round; stroke-width:4; stroke-opacity:1; fill:none" points="219.033,682.385 237.931,682.385 "/>
<polyline clip-path="url(#clip510)" style="stroke:#adb2b7; stroke-linecap:round; stroke-linejoin:round; stroke-width:4; stroke-opacity:1; fill:none" points="219.033,418.731 237.931,418.731 "/>
<polyline clip-path="url(#clip510)" style="stroke:#adb2b7; stroke-linecap:round; stroke-linejoin:round; stroke-width:4; stroke-opacity:1; fill:none" points="219.033,155.078 237.931,155.078 "/>
<path clip-path="url(#clip510)" d="M116.181 1223.04 L123.82 1223.04 L123.82 1196.67 L115.51 1198.34 L115.51 1194.08 L123.774 1192.41 L128.45 1192.41 L128.45 1223.04 L136.089 1223.04 L136.089 1226.97 L116.181 1226.97 L116.181 1223.04 Z" fill="#ffffff" fill-rule="nonzero" fill-opacity="1" /><path clip-path="url(#clip510)" d="M145.533 1221.09 L150.417 1221.09 L150.417 1226.97 L145.533 1226.97 L145.533 1221.09 Z" fill="#ffffff" fill-rule="nonzero" fill-opacity="1" /><path clip-path="url(#clip510)" d="M173.45 1196.49 L161.644 1214.93 L173.45 1214.93 L173.45 1196.49 M172.223 1192.41 L178.102 1192.41 L178.102 1214.93 L183.033 1214.93 L183.033 1218.82 L178.102 1218.82 L178.102 1226.97 L173.45 1226.97 L173.45 1218.82 L157.848 1218.82 L157.848 1214.31 L172.223 1192.41 Z" fill="#ffffff" fill-rule="nonzero" fill-opacity="1" /><path clip-path="url(#clip510)" d="M116.506 959.383 L124.144 959.383 L124.144 933.017 L115.834 934.684 L115.834 930.425 L124.098 928.758 L128.774 928.758 L128.774 959.383 L136.413 959.383 L136.413 963.318 L116.506 963.318 L116.506 959.383 Z" fill="#ffffff" fill-rule="nonzero" fill-opacity="1" /><path clip-path="url(#clip510)" d="M145.857 957.438 L150.741 957.438 L150.741 963.318 L145.857 963.318 L145.857 957.438 Z" fill="#ffffff" fill-rule="nonzero" fill-opacity="1" /><path clip-path="url(#clip510)" d="M171.505 944.175 Q168.357 944.175 166.505 946.327 Q164.677 948.48 164.677 952.23 Q164.677 955.957 166.505 958.133 Q168.357 960.286 171.505 960.286 Q174.653 960.286 176.482 958.133 Q178.334 955.957 178.334 952.23 Q178.334 948.48 176.482 946.327 Q174.653 944.175 171.505 944.175 M180.788 929.522 L180.788 933.781 Q179.028 932.948 177.223 932.508 Q175.44 932.068 173.681 932.068 Q169.052 932.068 166.598 935.193 Q164.167 938.318 163.82 944.638 Q165.186 942.624 167.246 941.559 Q169.306 940.471 171.783 940.471 Q176.991 940.471 180.001 943.642 Q183.033 946.79 183.033 952.23 Q183.033 957.554 179.885 960.772 Q176.737 963.989 171.505 963.989 Q165.51 963.989 162.339 959.406 Q159.167 954.8 159.167 946.073 Q159.167 937.878 163.056 933.017 Q166.945 928.133 173.496 928.133 Q175.255 928.133 177.038 928.48 Q178.843 928.827 180.788 929.522 Z" fill="#ffffff" fill-rule="nonzero" fill-opacity="1" /><path clip-path="url(#clip510)" d="M116.76 695.729 L124.399 695.729 L124.399 669.364 L116.089 671.031 L116.089 666.771 L124.353 665.105 L129.029 665.105 L129.029 695.729 L136.667 695.729 L136.667 699.665 L116.76 699.665 L116.76 695.729 Z" fill="#ffffff" fill-rule="nonzero" fill-opacity="1" /><path clip-path="url(#clip510)" d="M146.112 693.785 L150.996 693.785 L150.996 699.665 L146.112 699.665 L146.112 693.785 Z" fill="#ffffff" fill-rule="nonzero" fill-opacity="1" /><path clip-path="url(#clip510)" d="M171.181 683.253 Q167.848 683.253 165.927 685.035 Q164.028 686.817 164.028 689.942 Q164.028 693.067 165.927 694.85 Q167.848 696.632 171.181 696.632 Q174.514 696.632 176.436 694.85 Q178.357 693.044 178.357 689.942 Q178.357 686.817 176.436 685.035 Q174.538 683.253 171.181 683.253 M166.505 681.262 Q163.496 680.521 161.806 678.461 Q160.14 676.401 160.14 673.438 Q160.14 669.294 163.079 666.887 Q166.042 664.48 171.181 664.48 Q176.343 664.48 179.283 666.887 Q182.223 669.294 182.223 673.438 Q182.223 676.401 180.533 678.461 Q178.866 680.521 175.88 681.262 Q179.26 682.049 181.135 684.341 Q183.033 686.632 183.033 689.942 Q183.033 694.966 179.954 697.651 Q176.899 700.336 171.181 700.336 Q165.464 700.336 162.385 697.651 Q159.329 694.966 159.329 689.942 Q159.329 686.632 161.227 684.341 Q163.126 682.049 166.505 681.262 M164.792 673.878 Q164.792 676.563 166.459 678.068 Q168.149 679.572 171.181 679.572 Q174.19 679.572 175.88 678.068 Q177.593 676.563 177.593 673.878 Q177.593 671.193 175.88 669.688 Q174.19 668.183 171.181 668.183 Q168.149 668.183 166.459 669.688 Q164.792 671.193 164.792 673.878 Z" fill="#ffffff" fill-rule="nonzero" fill-opacity="1" /><path clip-path="url(#clip510)" d="M119.885 432.076 L136.204 432.076 L136.204 436.011 L114.26 436.011 L114.26 432.076 Q116.922 429.321 121.505 424.692 Q126.112 420.039 127.292 418.697 Q129.538 416.173 130.417 414.437 Q131.32 412.678 131.32 410.988 Q131.32 408.234 129.376 406.498 Q127.455 404.761 124.353 404.761 Q122.154 404.761 119.7 405.525 Q117.269 406.289 114.492 407.84 L114.492 403.118 Q117.316 401.984 119.769 401.405 Q122.223 400.826 124.26 400.826 Q129.63 400.826 132.825 403.511 Q136.019 406.197 136.019 410.687 Q136.019 412.817 135.209 414.738 Q134.422 416.636 132.316 419.229 Q131.737 419.9 128.635 423.118 Q125.533 426.312 119.885 432.076 Z" fill="#ffffff" fill-rule="nonzero" fill-opacity="1" /><path clip-path="url(#clip510)" d="M146.019 430.132 L150.903 430.132 L150.903 436.011 L146.019 436.011 L146.019 430.132 Z" fill="#ffffff" fill-rule="nonzero" fill-opacity="1" /><path clip-path="url(#clip510)" d="M171.089 404.53 Q167.477 404.53 165.649 408.095 Q163.843 411.636 163.843 418.766 Q163.843 425.872 165.649 429.437 Q167.477 432.979 171.089 432.979 Q174.723 432.979 176.528 429.437 Q178.357 425.872 178.357 418.766 Q178.357 411.636 176.528 408.095 Q174.723 404.53 171.089 404.53 M171.089 400.826 Q176.899 400.826 179.954 405.433 Q183.033 410.016 183.033 418.766 Q183.033 427.493 179.954 432.099 Q176.899 436.683 171.089 436.683 Q165.278 436.683 162.2 432.099 Q159.144 427.493 159.144 418.766 Q159.144 410.016 162.2 405.433 Q165.278 400.826 171.089 400.826 Z" fill="#ffffff" fill-rule="nonzero" fill-opacity="1" /><path clip-path="url(#clip510)" d="M121.482 168.423 L137.802 168.423 L137.802 172.358 L115.857 172.358 L115.857 168.423 Q118.519 165.668 123.103 161.038 Q127.709 156.386 128.89 155.043 Q131.135 152.52 132.015 150.784 Q132.917 149.025 132.917 147.335 Q132.917 144.58 130.973 142.844 Q129.052 141.108 125.95 141.108 Q123.751 141.108 121.297 141.872 Q118.867 142.636 116.089 144.187 L116.089 139.465 Q118.913 138.33 121.367 137.752 Q123.82 137.173 125.857 137.173 Q131.228 137.173 134.422 139.858 Q137.617 142.543 137.617 147.034 Q137.617 149.164 136.806 151.085 Q136.019 152.983 133.913 155.576 Q133.334 156.247 130.232 159.464 Q127.13 162.659 121.482 168.423 Z" fill="#ffffff" fill-rule="nonzero" fill-opacity="1" /><path clip-path="url(#clip510)" d="M147.616 166.478 L152.501 166.478 L152.501 172.358 L147.616 172.358 L147.616 166.478 Z" fill="#ffffff" fill-rule="nonzero" fill-opacity="1" /><path clip-path="url(#clip510)" d="M166.714 168.423 L183.033 168.423 L183.033 172.358 L161.089 172.358 L161.089 168.423 Q163.751 165.668 168.334 161.038 Q172.94 156.386 174.121 155.043 Q176.366 152.52 177.246 150.784 Q178.149 149.025 178.149 147.335 Q178.149 144.58 176.204 142.844 Q174.283 141.108 171.181 141.108 Q168.982 141.108 166.528 141.872 Q164.098 142.636 161.32 144.187 L161.32 139.465 Q164.144 138.33 166.598 137.752 Q169.052 137.173 171.089 137.173 Q176.459 137.173 179.653 139.858 Q182.848 142.543 182.848 147.034 Q182.848 149.164 182.038 151.085 Q181.251 152.983 179.144 155.576 Q178.565 156.247 175.464 159.464 Q172.362 162.659 166.714 168.423 Z" fill="#ffffff" fill-rule="nonzero" fill-opacity="1" /><path clip-path="url(#clip510)" d="M29.4065 846.134 L34.9447 846.134 Q33.6716 848.617 33.035 851.291 Q32.3984 853.964 32.3984 856.829 Q32.3984 861.189 33.7352 863.385 Q35.072 865.55 37.7456 865.55 Q39.7826 865.55 40.9603 863.99 Q42.1061 862.431 43.1565 857.72 L43.6021 855.715 Q44.9389 849.476 47.3897 846.866 Q49.8086 844.225 54.1691 844.225 Q59.1344 844.225 62.0308 848.171 Q64.9272 852.086 64.9272 858.961 Q64.9272 861.826 64.3543 864.945 Q63.8132 868.032 62.6992 871.47 L56.6518 871.47 Q58.3387 868.223 59.198 865.072 Q60.0256 861.921 60.0256 858.834 Q60.0256 854.696 58.6251 852.468 Q57.1929 850.24 54.6147 850.24 Q52.2276 850.24 50.9545 851.864 Q49.6813 853.455 48.5037 858.898 L48.0262 860.935 Q46.8804 866.377 44.5251 868.796 Q42.138 871.215 38.0002 871.215 Q32.9713 871.215 30.2341 867.65 Q27.4968 864.086 27.4968 857.529 Q27.4968 854.283 27.9743 851.418 Q28.4517 848.553 29.4065 846.134 Z" fill="#ffffff" fill-rule="nonzero" fill-opacity="1" /><path clip-path="url(#clip510)" d="M58.657 829.233 L77.5631 829.233 L77.5631 835.122 L28.3562 835.122 L28.3562 829.233 L33.7671 829.233 Q30.5842 827.387 29.0564 824.586 Q27.4968 821.754 27.4968 817.839 Q27.4968 811.346 32.6531 807.304 Q37.8093 803.23 46.212 803.23 Q54.6147 803.23 59.771 807.304 Q64.9272 811.346 64.9272 817.839 Q64.9272 821.754 63.3994 824.586 Q61.8398 827.387 58.657 829.233 M46.212 809.309 Q39.7508 809.309 36.0905 811.982 Q32.3984 814.624 32.3984 819.271 Q32.3984 823.918 36.0905 826.592 Q39.7508 829.233 46.212 829.233 Q52.6732 829.233 56.3653 826.592 Q60.0256 823.918 60.0256 819.271 Q60.0256 814.624 56.3653 811.982 Q52.6732 809.309 46.212 809.309 Z" fill="#ffffff" fill-rule="nonzero" fill-opacity="1" /><path clip-path="url(#clip510)" d="M44.7161 763.03 L47.5806 763.03 L47.5806 789.957 Q53.6281 789.575 56.8109 786.329 Q59.9619 783.05 59.9619 777.226 Q59.9619 773.852 59.1344 770.701 Q58.3069 767.518 56.6518 764.399 L62.1899 764.399 Q63.5267 767.55 64.227 770.86 Q64.9272 774.17 64.9272 777.576 Q64.9272 786.106 59.9619 791.103 Q54.9967 796.068 46.5303 796.068 Q37.7774 796.068 32.6531 791.358 Q27.4968 786.615 27.4968 778.594 Q27.4968 771.401 32.1438 767.231 Q36.7589 763.03 44.7161 763.03 M42.9973 768.887 Q38.1912 768.95 35.3266 771.592 Q32.4621 774.202 32.4621 778.531 Q32.4621 783.432 35.2312 786.392 Q38.0002 789.32 43.0292 789.766 L42.9973 768.887 Z" fill="#ffffff" fill-rule="nonzero" fill-opacity="1" /><path clip-path="url(#clip510)" d="M44.7161 722.926 L47.5806 722.926 L47.5806 749.853 Q53.6281 749.471 56.8109 746.225 Q59.9619 742.946 59.9619 737.122 Q59.9619 733.748 59.1344 730.597 Q58.3069 727.414 56.6518 724.295 L62.1899 724.295 Q63.5267 727.446 64.227 730.756 Q64.9272 734.066 64.9272 737.472 Q64.9272 746.002 59.9619 750.999 Q54.9967 755.964 46.5303 755.964 Q37.7774 755.964 32.6531 751.254 Q27.4968 746.511 27.4968 738.49 Q27.4968 731.297 32.1438 727.128 Q36.7589 722.926 44.7161 722.926 M42.9973 728.783 Q38.1912 728.846 35.3266 731.488 Q32.4621 734.098 32.4621 738.427 Q32.4621 743.328 35.2312 746.288 Q38.0002 749.217 43.0292 749.662 L42.9973 728.783 Z" fill="#ffffff" fill-rule="nonzero" fill-opacity="1" /><path clip-path="url(#clip510)" d="M33.7671 689.856 L14.479 689.856 L14.479 684 L64.0042 684 L64.0042 689.856 L58.657 689.856 Q61.8398 691.702 63.3994 694.535 Q64.9272 697.336 64.9272 701.283 Q64.9272 707.744 59.771 711.818 Q54.6147 715.86 46.212 715.86 Q37.8093 715.86 32.6531 711.818 Q27.4968 707.744 27.4968 701.283 Q27.4968 697.336 29.0564 694.535 Q30.5842 691.702 33.7671 689.856 M46.212 709.813 Q52.6732 709.813 56.3653 707.171 Q60.0256 704.497 60.0256 699.85 Q60.0256 695.204 56.3653 692.53 Q52.6732 689.856 46.212 689.856 Q39.7508 689.856 36.0905 692.53 Q32.3984 695.204 32.3984 699.85 Q32.3984 704.497 36.0905 707.171 Q39.7508 709.813 46.212 709.813 Z" fill="#ffffff" fill-rule="nonzero" fill-opacity="1" /><path clip-path="url(#clip510)" d="M49.9359 672.542 L28.3562 672.542 L28.3562 666.685 L49.7131 666.685 Q54.7739 666.685 57.3202 664.712 Q59.8346 662.738 59.8346 658.792 Q59.8346 654.049 56.8109 651.312 Q53.7872 648.543 48.5673 648.543 L28.3562 648.543 L28.3562 642.686 L64.0042 642.686 L64.0042 648.543 L58.5296 648.543 Q61.7762 650.675 63.3676 653.508 Q64.9272 656.309 64.9272 660.033 Q64.9272 666.176 61.1078 669.359 Q57.2883 672.542 49.9359 672.542 M27.4968 657.805 L27.4968 657.805 Z" fill="#ffffff" fill-rule="nonzero" fill-opacity="1" /><path clip-path="url(#clip510)" d="M58.657 624.958 L77.5631 624.958 L77.5631 630.846 L28.3562 630.846 L28.3562 624.958 L33.7671 624.958 Q30.5842 623.112 29.0564 620.311 Q27.4968 617.478 27.4968 613.563 Q27.4968 607.07 32.6531 603.028 Q37.8093 598.954 46.212 598.954 Q54.6147 598.954 59.771 603.028 Q64.9272 607.07 64.9272 613.563 Q64.9272 617.478 63.3994 620.311 Q61.8398 623.112 58.657 624.958 M46.212 605.033 Q39.7508 605.033 36.0905 607.707 Q32.3984 610.349 32.3984 614.996 Q32.3984 619.643 36.0905 622.316 Q39.7508 624.958 46.212 624.958 Q52.6732 624.958 56.3653 622.316 Q60.0256 619.643 60.0256 614.996 Q60.0256 610.349 56.3653 607.707 Q52.6732 605.033 46.212 605.033 Z" fill="#ffffff" fill-rule="nonzero" fill-opacity="1" /><polyline clip-path="url(#clip512)" style="stroke:#fe4365; stroke-linecap:round; stroke-linejoin:round; stroke-width:4; stroke-opacity:1; fill:none" points="279.421,1054.65 380.069,1130.71 480.716,1189.99 581.363,1384.24 682.011,1128.26 782.658,690.022 883.305,835.448 983.952,750.242 1084.6,717.207 1185.25,708.129 1285.89,824.895 1386.54,741.936 1487.19,667.7 1587.84,298.583 1688.48,277.072 1789.13,316.488 1889.78,186.834 2091.07,86.1857 2292.37,354.414 "/>
</svg>
