<?xml version="1.0" encoding="utf-8"?>
<svg xmlns="http://www.w3.org/2000/svg" xmlns:xlink="http://www.w3.org/1999/xlink" width="600" height="400" viewBox="0 0 2400 1600">
<defs>
  <clipPath id="clip540">
    <rect x="0" y="0" width="2400" height="1600"/>
  </clipPath>
</defs>
<path clip-path="url(#clip540)" d="M0 1600 L2400 1600 L2400 0 L0 0  Z" fill="#363d46" fill-rule="evenodd" fill-opacity="1"/>
<defs>
  <clipPath id="clip541">
    <rect x="480" y="0" width="1681" height="1600"/>
  </clipPath>
</defs>
<path clip-path="url(#clip540)" d="M288.311 1423.18 L2352.76 1423.18 L2352.76 47.2441 L288.311 47.2441  Z" fill="#30343b" fill-rule="evenodd" fill-opacity="1"/>
<defs>
  <clipPath id="clip542">
    <rect x="288" y="47" width="2065" height="1377"/>
  </clipPath>
</defs>
<polyline clip-path="url(#clip542)" style="stroke:#adb2b7; stroke-linecap:round; stroke-linejoin:round; stroke-width:2; stroke-opacity:0.1; fill:none" points="346.738,1423.18 346.738,47.2441 "/>
<polyline clip-path="url(#clip542)" style="stroke:#adb2b7; stroke-linecap:round; stroke-linejoin:round; stroke-width:2; stroke-opacity:0.1; fill:none" points="833.636,1423.18 833.636,47.2441 "/>
<polyline clip-path="url(#clip542)" style="stroke:#adb2b7; stroke-linecap:round; stroke-linejoin:round; stroke-width:2; stroke-opacity:0.1; fill:none" points="1320.53,1423.18 1320.53,47.2441 "/>
<polyline clip-path="url(#clip542)" style="stroke:#adb2b7; stroke-linecap:round; stroke-linejoin:round; stroke-width:2; stroke-opacity:0.1; fill:none" points="1807.43,1423.18 1807.43,47.2441 "/>
<polyline clip-path="url(#clip542)" style="stroke:#adb2b7; stroke-linecap:round; stroke-linejoin:round; stroke-width:2; stroke-opacity:0.1; fill:none" points="2294.33,1423.18 2294.33,47.2441 "/>
<polyline clip-path="url(#clip540)" style="stroke:#adb2b7; stroke-linecap:round; stroke-linejoin:round; stroke-width:4; stroke-opacity:1; fill:none" points="288.311,1423.18 2352.76,1423.18 "/>
<polyline clip-path="url(#clip540)" style="stroke:#adb2b7; stroke-linecap:round; stroke-linejoin:round; stroke-width:4; stroke-opacity:1; fill:none" points="346.738,1423.18 346.738,1404.28 "/>
<polyline clip-path="url(#clip540)" style="stroke:#adb2b7; stroke-linecap:round; stroke-linejoin:round; stroke-width:4; stroke-opacity:1; fill:none" points="833.636,1423.18 833.636,1404.28 "/>
<polyline clip-path="url(#clip540)" style="stroke:#adb2b7; stroke-linecap:round; stroke-linejoin:round; stroke-width:4; stroke-opacity:1; fill:none" points="1320.53,1423.18 1320.53,1404.28 "/>
<polyline clip-path="url(#clip540)" style="stroke:#adb2b7; stroke-linecap:round; stroke-linejoin:round; stroke-width:4; stroke-opacity:1; fill:none" points="1807.43,1423.18 1807.43,1404.28 "/>
<polyline clip-path="url(#clip540)" style="stroke:#adb2b7; stroke-linecap:round; stroke-linejoin:round; stroke-width:4; stroke-opacity:1; fill:none" points="2294.33,1423.18 2294.33,1404.28 "/>
<path clip-path="url(#clip540)" d="M346.738 1454.1 Q343.127 1454.1 341.299 1457.66 Q339.493 1461.2 339.493 1468.33 Q339.493 1475.44 341.299 1479.01 Q343.127 1482.55 346.738 1482.55 Q350.373 1482.55 352.178 1479.01 Q354.007 1475.44 354.007 1468.33 Q354.007 1461.2 352.178 1457.66 Q350.373 1454.1 346.738 1454.1 M346.738 1450.39 Q352.548 1450.39 355.604 1455 Q358.683 1459.58 358.683 1468.33 Q358.683 1477.06 355.604 1481.67 Q352.548 1486.25 346.738 1486.25 Q340.928 1486.25 337.849 1481.67 Q334.794 1477.06 334.794 1468.33 Q334.794 1459.58 337.849 1455 Q340.928 1450.39 346.738 1450.39 Z" fill="#ffffff" fill-rule="nonzero" fill-opacity="1" /><path clip-path="url(#clip540)" d="M823.914 1451.02 L842.27 1451.02 L842.27 1454.96 L828.196 1454.96 L828.196 1463.43 Q829.215 1463.08 830.233 1462.92 Q831.252 1462.73 832.27 1462.73 Q838.057 1462.73 841.437 1465.9 Q844.816 1469.08 844.816 1474.49 Q844.816 1480.07 841.344 1483.17 Q837.872 1486.25 831.552 1486.25 Q829.377 1486.25 827.108 1485.88 Q824.863 1485.51 822.455 1484.77 L822.455 1480.07 Q824.539 1481.2 826.761 1481.76 Q828.983 1482.32 831.46 1482.32 Q835.464 1482.32 837.802 1480.21 Q840.14 1478.1 840.14 1474.49 Q840.14 1470.88 837.802 1468.77 Q835.464 1466.67 831.46 1466.67 Q829.585 1466.67 827.71 1467.08 Q825.858 1467.5 823.914 1468.38 L823.914 1451.02 Z" fill="#ffffff" fill-rule="nonzero" fill-opacity="1" /><path clip-path="url(#clip540)" d="M1295.22 1481.64 L1302.86 1481.64 L1302.86 1455.28 L1294.55 1456.95 L1294.55 1452.69 L1302.81 1451.02 L1307.49 1451.02 L1307.49 1481.64 L1315.13 1481.64 L1315.13 1485.58 L1295.22 1485.58 L1295.22 1481.64 Z" fill="#ffffff" fill-rule="nonzero" fill-opacity="1" /><path clip-path="url(#clip540)" d="M1334.57 1454.1 Q1330.96 1454.1 1329.13 1457.66 Q1327.33 1461.2 1327.33 1468.33 Q1327.33 1475.44 1329.13 1479.01 Q1330.96 1482.55 1334.57 1482.55 Q1338.21 1482.55 1340.01 1479.01 Q1341.84 1475.44 1341.84 1468.33 Q1341.84 1461.2 1340.01 1457.66 Q1338.21 1454.1 1334.57 1454.1 M1334.57 1450.39 Q1340.38 1450.39 1343.44 1455 Q1346.52 1459.58 1346.52 1468.33 Q1346.52 1477.06 1343.44 1481.67 Q1340.38 1486.25 1334.57 1486.25 Q1328.76 1486.25 1325.68 1481.67 Q1322.63 1477.06 1322.63 1468.33 Q1322.63 1459.58 1325.68 1455 Q1328.76 1450.39 1334.57 1450.39 Z" fill="#ffffff" fill-rule="nonzero" fill-opacity="1" /><path clip-path="url(#clip540)" d="M1782.62 1481.64 L1790.25 1481.64 L1790.25 1455.28 L1781.94 1456.95 L1781.94 1452.69 L1790.21 1451.02 L1794.88 1451.02 L1794.88 1481.64 L1802.52 1481.64 L1802.52 1485.58 L1782.62 1485.58 L1782.62 1481.64 Z" fill="#ffffff" fill-rule="nonzero" fill-opacity="1" /><path clip-path="url(#clip540)" d="M1812.01 1451.02 L1830.37 1451.02 L1830.37 1454.96 L1816.3 1454.96 L1816.3 1463.43 Q1817.31 1463.08 1818.33 1462.92 Q1819.35 1462.73 1820.37 1462.73 Q1826.16 1462.73 1829.54 1465.9 Q1832.92 1469.08 1832.92 1474.49 Q1832.92 1480.07 1829.44 1483.17 Q1825.97 1486.25 1819.65 1486.25 Q1817.48 1486.25 1815.21 1485.88 Q1812.96 1485.51 1810.56 1484.77 L1810.56 1480.07 Q1812.64 1481.2 1814.86 1481.76 Q1817.08 1482.32 1819.56 1482.32 Q1823.56 1482.32 1825.9 1480.21 Q1828.24 1478.1 1828.24 1474.49 Q1828.24 1470.88 1825.9 1468.77 Q1823.56 1466.67 1819.56 1466.67 Q1817.69 1466.67 1815.81 1467.08 Q1813.96 1467.5 1812.01 1468.38 L1812.01 1451.02 Z" fill="#ffffff" fill-rule="nonzero" fill-opacity="1" /><path clip-path="url(#clip540)" d="M2273.1 1481.64 L2289.42 1481.64 L2289.42 1485.58 L2267.48 1485.58 L2267.48 1481.64 Q2270.14 1478.89 2274.72 1474.26 Q2279.33 1469.61 2280.51 1468.27 Q2282.75 1465.74 2283.63 1464.01 Q2284.54 1462.25 2284.54 1460.56 Q2284.54 1457.8 2282.59 1456.07 Q2280.67 1454.33 2277.57 1454.33 Q2275.37 1454.33 2272.92 1455.09 Q2270.49 1455.86 2267.71 1457.41 L2267.71 1452.69 Q2270.53 1451.55 2272.99 1450.97 Q2275.44 1450.39 2277.48 1450.39 Q2282.85 1450.39 2286.04 1453.08 Q2289.24 1455.77 2289.24 1460.26 Q2289.24 1462.39 2288.43 1464.31 Q2287.64 1466.2 2285.53 1468.8 Q2284.95 1469.47 2281.85 1472.69 Q2278.75 1475.88 2273.1 1481.64 Z" fill="#ffffff" fill-rule="nonzero" fill-opacity="1" /><path clip-path="url(#clip540)" d="M2309.24 1454.1 Q2305.62 1454.1 2303.8 1457.66 Q2301.99 1461.2 2301.99 1468.33 Q2301.99 1475.44 2303.8 1479.01 Q2305.62 1482.55 2309.24 1482.55 Q2312.87 1482.55 2314.68 1479.01 Q2316.5 1475.44 2316.5 1468.33 Q2316.5 1461.2 2314.68 1457.66 Q2312.87 1454.1 2309.24 1454.1 M2309.24 1450.39 Q2315.05 1450.39 2318.1 1455 Q2321.18 1459.58 2321.18 1468.33 Q2321.18 1477.06 2318.1 1481.67 Q2315.05 1486.25 2309.24 1486.25 Q2303.43 1486.25 2300.35 1481.67 Q2297.29 1477.06 2297.29 1468.33 Q2297.29 1459.58 2300.35 1455 Q2303.43 1450.39 2309.24 1450.39 Z" fill="#ffffff" fill-rule="nonzero" fill-opacity="1" /><path clip-path="url(#clip540)" d="M1213.84 1518.52 L1219.7 1518.52 L1219.7 1568.04 L1213.84 1568.04 L1213.84 1518.52 Z" fill="#ffffff" fill-rule="nonzero" fill-opacity="1" /><path clip-path="url(#clip540)" d="M1245.77 1536.5 Q1241.06 1536.5 1238.32 1540.19 Q1235.58 1543.85 1235.58 1550.25 Q1235.58 1556.65 1238.29 1560.34 Q1241.03 1564 1245.77 1564 Q1250.45 1564 1253.18 1560.31 Q1255.92 1556.62 1255.92 1550.25 Q1255.92 1543.92 1253.18 1540.23 Q1250.45 1536.5 1245.77 1536.5 M1245.77 1531.54 Q1253.41 1531.54 1257.77 1536.5 Q1262.13 1541.47 1262.13 1550.25 Q1262.13 1559 1257.77 1564 Q1253.41 1568.97 1245.77 1568.97 Q1238.1 1568.97 1233.74 1564 Q1229.41 1559 1229.41 1550.25 Q1229.41 1541.47 1233.74 1536.5 Q1238.1 1531.54 1245.77 1531.54 Z" fill="#ffffff" fill-rule="nonzero" fill-opacity="1" /><path clip-path="url(#clip540)" d="M1295.29 1549.81 Q1295.29 1543.44 1292.65 1539.94 Q1290.04 1536.44 1285.3 1536.44 Q1280.59 1536.44 1277.95 1539.94 Q1275.34 1543.44 1275.34 1549.81 Q1275.34 1556.14 1277.95 1559.64 Q1280.59 1563.14 1285.3 1563.14 Q1290.04 1563.14 1292.65 1559.64 Q1295.29 1556.14 1295.29 1549.81 M1301.15 1563.62 Q1301.15 1572.72 1297.11 1577.15 Q1293.07 1581.6 1284.73 1581.6 Q1281.64 1581.6 1278.9 1581.13 Q1276.16 1580.68 1273.59 1579.72 L1273.59 1574.03 Q1276.16 1575.43 1278.68 1576.1 Q1281.19 1576.76 1283.8 1576.76 Q1289.56 1576.76 1292.43 1573.74 Q1295.29 1570.75 1295.29 1564.67 L1295.29 1561.77 Q1293.48 1564.92 1290.65 1566.48 Q1287.81 1568.04 1283.87 1568.04 Q1277.31 1568.04 1273.3 1563.05 Q1269.29 1558.05 1269.29 1549.81 Q1269.29 1541.53 1273.3 1536.53 Q1277.31 1531.54 1283.87 1531.54 Q1287.81 1531.54 1290.65 1533.1 Q1293.48 1534.66 1295.29 1537.81 L1295.29 1532.4 L1301.15 1532.4 L1301.15 1563.62 Z" fill="#ffffff" fill-rule="nonzero" fill-opacity="1" /><path clip-path="url(#clip540)" d="M1315.6 1564.42 L1329.1 1564.42 L1329.1 1568.04 L1310.06 1568.04 L1310.06 1564.54 Q1311.14 1563.56 1313.15 1561.77 Q1324.1 1552.07 1324.1 1549.07 Q1324.1 1546.97 1322.44 1545.7 Q1320.79 1544.4 1318.08 1544.4 Q1316.43 1544.4 1314.49 1544.97 Q1312.54 1545.51 1310.25 1546.62 L1310.25 1542.71 Q1312.7 1541.82 1314.8 1541.37 Q1316.94 1540.93 1318.75 1540.93 Q1323.37 1540.93 1326.14 1543.03 Q1328.9 1545.13 1328.9 1548.56 Q1328.9 1552.99 1318.37 1562.03 Q1316.59 1563.56 1315.6 1564.42 Z" fill="#ffffff" fill-rule="nonzero" fill-opacity="1" /><path clip-path="url(#clip540)" d="M1353.41 1518.58 Q1349.15 1525.9 1347.08 1533.06 Q1345.01 1540.23 1345.01 1547.58 Q1345.01 1554.93 1347.08 1562.16 Q1349.18 1569.35 1353.41 1576.64 L1348.32 1576.64 Q1343.55 1569.16 1341.16 1561.93 Q1338.8 1554.71 1338.8 1547.58 Q1338.8 1540.48 1341.16 1533.29 Q1343.51 1526.09 1348.32 1518.58 L1353.41 1518.58 Z" fill="#ffffff" fill-rule="nonzero" fill-opacity="1" /><path clip-path="url(#clip540)" d="M1365.03 1520.52 L1373.69 1520.52 L1394.76 1560.28 L1394.76 1520.52 L1401 1520.52 L1401 1568.04 L1392.34 1568.04 L1371.27 1528.29 L1371.27 1568.04 L1365.03 1568.04 L1365.03 1520.52 Z" fill="#ffffff" fill-rule="nonzero" fill-opacity="1" /><path clip-path="url(#clip540)" d="M1412.61 1518.58 L1417.71 1518.58 Q1422.48 1526.09 1424.84 1533.29 Q1427.22 1540.48 1427.22 1547.58 Q1427.22 1554.71 1424.84 1561.93 Q1422.48 1569.16 1417.71 1576.64 L1412.61 1576.64 Q1416.85 1569.35 1418.92 1562.16 Q1421.02 1554.93 1421.02 1547.58 Q1421.02 1540.23 1418.92 1533.06 Q1416.85 1525.9 1412.61 1518.58 Z" fill="#ffffff" fill-rule="nonzero" fill-opacity="1" /><polyline clip-path="url(#clip542)" style="stroke:#adb2b7; stroke-linecap:round; stroke-linejoin:round; stroke-width:2; stroke-opacity:0.1; fill:none" points="288.311,1008.72 2352.76,1008.72 "/>
<polyline clip-path="url(#clip542)" style="stroke:#adb2b7; stroke-linecap:round; stroke-linejoin:round; stroke-width:2; stroke-opacity:0.1; fill:none" points="288.311,503.395 2352.76,503.395 "/>
<polyline clip-path="url(#clip540)" style="stroke:#adb2b7; stroke-linecap:round; stroke-linejoin:round; stroke-width:4; stroke-opacity:1; fill:none" points="288.311,1423.18 288.311,47.2441 "/>
<polyline clip-path="url(#clip540)" style="stroke:#adb2b7; stroke-linecap:round; stroke-linejoin:round; stroke-width:4; stroke-opacity:1; fill:none" points="288.311,1008.72 307.208,1008.72 "/>
<polyline clip-path="url(#clip540)" style="stroke:#adb2b7; stroke-linecap:round; stroke-linejoin:round; stroke-width:4; stroke-opacity:1; fill:none" points="288.311,503.395 307.208,503.395 "/>
<path clip-path="url(#clip540)" d="M114.931 1028.51 L122.57 1028.51 L122.57 1002.14 L114.26 1003.81 L114.26 999.55 L122.524 997.883 L127.2 997.883 L127.2 1028.51 L134.839 1028.51 L134.839 1032.44 L114.931 1032.44 L114.931 1028.51 Z" fill="#ffffff" fill-rule="nonzero" fill-opacity="1" /><path clip-path="url(#clip540)" d="M154.283 1000.96 Q150.672 1000.96 148.843 1004.53 Q147.038 1008.07 147.038 1015.2 Q147.038 1022.3 148.843 1025.87 Q150.672 1029.41 154.283 1029.41 Q157.917 1029.41 159.723 1025.87 Q161.552 1022.3 161.552 1015.2 Q161.552 1008.07 159.723 1004.53 Q157.917 1000.96 154.283 1000.96 M154.283 997.258 Q160.093 997.258 163.149 1001.86 Q166.227 1006.45 166.227 1015.2 Q166.227 1023.93 163.149 1028.53 Q160.093 1033.11 154.283 1033.11 Q148.473 1033.11 145.394 1028.53 Q142.339 1023.93 142.339 1015.2 Q142.339 1006.45 145.394 1001.86 Q148.473 997.258 154.283 997.258 Z" fill="#ffffff" fill-rule="nonzero" fill-opacity="1" /><path clip-path="url(#clip540)" d="M166.227 991.36 L190.339 991.36 L190.339 994.557 L166.227 994.557 L166.227 991.36 Z" fill="#ffffff" fill-rule="nonzero" fill-opacity="1" /><path clip-path="url(#clip540)" d="M201.812 1001.84 L215.071 1001.84 L215.071 1005.03 L197.241 1005.03 L197.241 1001.84 Q199.404 999.598 203.128 995.836 Q206.871 992.056 207.83 990.965 Q209.655 988.915 210.369 987.504 Q211.103 986.075 211.103 984.702 Q211.103 982.464 209.523 981.053 Q207.962 979.643 205.442 979.643 Q203.655 979.643 201.661 980.263 Q199.686 980.884 197.43 982.144 L197.43 978.307 Q199.724 977.386 201.718 976.915 Q203.711 976.445 205.366 976.445 Q209.73 976.445 212.325 978.627 Q214.921 980.809 214.921 984.457 Q214.921 986.188 214.263 987.749 Q213.623 989.291 211.912 991.397 Q211.441 991.943 208.921 994.557 Q206.401 997.153 201.812 1001.84 Z" fill="#ffffff" fill-rule="nonzero" fill-opacity="1" /><path clip-path="url(#clip540)" d="M223.046 1000.26 L227.014 1000.26 L227.014 1005.03 L223.046 1005.03 L223.046 1000.26 Z" fill="#ffffff" fill-rule="nonzero" fill-opacity="1" /><path clip-path="url(#clip540)" d="M235.327 976.953 L250.242 976.953 L250.242 980.15 L238.807 980.15 L238.807 987.034 Q239.634 986.752 240.462 986.62 Q241.289 986.47 242.117 986.47 Q246.819 986.47 249.565 989.046 Q252.311 991.623 252.311 996.024 Q252.311 1000.56 249.489 1003.08 Q246.668 1005.58 241.534 1005.58 Q239.766 1005.58 237.923 1005.28 Q236.098 1004.98 234.142 1004.37 L234.142 1000.56 Q235.835 1001.48 237.641 1001.93 Q239.446 1002.38 241.459 1002.38 Q244.712 1002.38 246.612 1000.67 Q248.511 998.958 248.511 996.024 Q248.511 993.09 246.612 991.379 Q244.712 989.667 241.459 989.667 Q239.935 989.667 238.412 990.006 Q236.907 990.344 235.327 991.059 L235.327 976.953 Z" fill="#ffffff" fill-rule="nonzero" fill-opacity="1" /><path clip-path="url(#clip540)" d="M144.855 523.188 L152.493 523.188 L152.493 496.822 L144.183 498.489 L144.183 494.23 L152.447 492.563 L157.123 492.563 L157.123 523.188 L164.762 523.188 L164.762 527.123 L144.855 527.123 L144.855 523.188 Z" fill="#ffffff" fill-rule="nonzero" fill-opacity="1" /><path clip-path="url(#clip540)" d="M184.206 495.642 Q180.595 495.642 178.766 499.206 Q176.961 502.748 176.961 509.878 Q176.961 516.984 178.766 520.549 Q180.595 524.09 184.206 524.09 Q187.84 524.09 189.646 520.549 Q191.475 516.984 191.475 509.878 Q191.475 502.748 189.646 499.206 Q187.84 495.642 184.206 495.642 M184.206 491.938 Q190.016 491.938 193.072 496.544 Q196.151 501.128 196.151 509.878 Q196.151 518.604 193.072 523.211 Q190.016 527.794 184.206 527.794 Q178.396 527.794 175.317 523.211 Q172.262 518.604 172.262 509.878 Q172.262 501.128 175.317 496.544 Q178.396 491.938 184.206 491.938 Z" fill="#ffffff" fill-rule="nonzero" fill-opacity="1" /><path clip-path="url(#clip540)" d="M205.855 474.134 Q202.921 474.134 201.436 477.03 Q199.969 479.908 199.969 485.701 Q199.969 491.475 201.436 494.371 Q202.921 497.249 205.855 497.249 Q208.808 497.249 210.275 494.371 Q211.761 491.475 211.761 485.701 Q211.761 479.908 210.275 477.03 Q208.808 474.134 205.855 474.134 M205.855 471.125 Q210.576 471.125 213.059 474.867 Q215.56 478.591 215.56 485.701 Q215.56 492.791 213.059 496.534 Q210.576 500.258 205.855 500.258 Q201.135 500.258 198.633 496.534 Q196.151 492.791 196.151 485.701 Q196.151 478.591 198.633 474.867 Q201.135 471.125 205.855 471.125 Z" fill="#ffffff" fill-rule="nonzero" fill-opacity="1" /><path clip-path="url(#clip540)" d="M222.237 494.935 L226.205 494.935 L226.205 499.712 L222.237 499.712 L222.237 494.935 Z" fill="#ffffff" fill-rule="nonzero" fill-opacity="1" /><path clip-path="url(#clip540)" d="M242.606 474.134 Q239.672 474.134 238.186 477.03 Q236.719 479.908 236.719 485.701 Q236.719 491.475 238.186 494.371 Q239.672 497.249 242.606 497.249 Q245.559 497.249 247.026 494.371 Q248.511 491.475 248.511 485.701 Q248.511 479.908 247.026 477.03 Q245.559 474.134 242.606 474.134 M242.606 471.125 Q247.327 471.125 249.809 474.867 Q252.311 478.591 252.311 485.701 Q252.311 492.791 249.809 496.534 Q247.327 500.258 242.606 500.258 Q237.885 500.258 235.384 496.534 Q232.901 492.791 232.901 485.701 Q232.901 478.591 235.384 474.867 Q237.885 471.125 242.606 471.125 Z" fill="#ffffff" fill-rule="nonzero" fill-opacity="1" /><path clip-path="url(#clip540)" d="M18.2347 818.65 L28.3562 818.65 L28.3562 806.587 L32.9077 806.587 L32.9077 818.65 L52.2594 818.65 Q56.6199 818.65 57.8613 817.473 Q59.1026 816.263 59.1026 812.603 L59.1026 806.587 L64.0042 806.587 L64.0042 812.603 Q64.0042 819.383 61.4897 821.961 Q58.9434 824.539 52.2594 824.539 L32.9077 824.539 L32.9077 828.836 L28.3562 828.836 L28.3562 824.539 L18.2347 824.539 L18.2347 818.65 Z" fill="#ffffff" fill-rule="nonzero" fill-opacity="1" /><path clip-path="url(#clip540)" d="M14.479 778.706 L14.479 765.21 L19.0304 765.21 L19.0304 772.849 L68.0464 772.849 L68.0464 765.21 L72.5979 765.21 L72.5979 778.706 L14.479 778.706 Z" fill="#ffffff" fill-rule="nonzero" fill-opacity="1" /><path clip-path="url(#clip540)" d="M35.1993 724.979 Q31.2526 722.783 29.3747 719.727 Q27.4968 716.672 27.4968 712.534 Q27.4968 706.964 31.4117 703.94 Q35.2948 700.917 42.4881 700.917 L64.0042 700.917 L64.0042 706.805 L42.679 706.805 Q37.5546 706.805 35.072 708.619 Q32.5894 710.433 32.5894 714.157 Q32.5894 718.709 35.6131 721.351 Q38.6368 723.992 43.8567 723.992 L64.0042 723.992 L64.0042 729.881 L42.679 729.881 Q37.5228 729.881 35.072 731.695 Q32.5894 733.509 32.5894 737.297 Q32.5894 741.785 35.6449 744.426 Q38.6686 747.068 43.8567 747.068 L64.0042 747.068 L64.0042 752.956 L28.3562 752.956 L28.3562 747.068 L33.8944 747.068 Q30.616 745.063 29.0564 742.262 Q27.4968 739.461 27.4968 735.61 Q27.4968 731.727 29.4702 729.021 Q31.4436 726.284 35.1993 724.979 Z" fill="#ffffff" fill-rule="nonzero" fill-opacity="1" /><path clip-path="url(#clip540)" d="M29.4065 666.51 L34.9447 666.51 Q33.6716 668.993 33.035 671.666 Q32.3984 674.34 32.3984 677.204 Q32.3984 681.565 33.7352 683.761 Q35.072 685.925 37.7456 685.925 Q39.7826 685.925 40.9603 684.366 Q42.1061 682.806 43.1565 678.096 L43.6021 676.09 Q44.9389 669.852 47.3897 667.242 Q49.8086 664.6 54.1691 664.6 Q59.1344 664.6 62.0308 668.547 Q64.9272 672.462 64.9272 679.337 Q64.9272 682.202 64.3543 685.321 Q63.8132 688.408 62.6992 691.846 L56.6518 691.846 Q58.3387 688.599 59.198 685.448 Q60.0256 682.297 60.0256 679.21 Q60.0256 675.072 58.6251 672.844 Q57.1929 670.616 54.6147 670.616 Q52.2276 670.616 50.9545 672.239 Q49.6813 673.831 48.5037 679.273 L48.0262 681.31 Q46.8804 686.753 44.5251 689.172 Q42.138 691.591 38.0002 691.591 Q32.9713 691.591 30.2341 688.026 Q27.4968 684.461 27.4968 677.905 Q27.4968 674.658 27.9743 671.794 Q28.4517 668.929 29.4065 666.51 Z" fill="#ffffff" fill-rule="nonzero" fill-opacity="1" /><path clip-path="url(#clip540)" d="M14.479 641.588 L72.5979 641.588 L72.5979 655.084 L68.0464 655.084 L68.0464 647.477 L19.0304 647.477 L19.0304 655.084 L14.479 655.084 L14.479 641.588 Z" fill="#ffffff" fill-rule="nonzero" fill-opacity="1" /><polyline clip-path="url(#clip542)" style="stroke:#fe4365; stroke-linecap:round; stroke-linejoin:round; stroke-width:4; stroke-opacity:1; fill:none" points="346.738,1347.62 444.118,1298.88 541.497,1247.5 638.877,1178.67 736.256,1114.08 833.636,1035.58 931.015,981.166 1028.39,914.384 1125.77,850.876 1223.15,785.582 1320.53,726.285 1417.91,658.718 1515.29,594.647 1612.67,520.789 1710.05,458.536 1807.43,399.444 1904.81,337.344 2099.57,212.753 2294.33,86.1857 "/>
<polyline clip-path="url(#clip542)" style="stroke:#eca25c; stroke-linecap:round; stroke-linejoin:round; stroke-width:4; stroke-opacity:1; fill:none" points="346.738,1384.24 444.118,1332.09 541.497,1277.97 638.877,1199.48 736.256,1147.41 833.636,1086.89 931.015,1026.91 1028.39,963.435 1125.77,901.176 1223.15,836.222 1320.53,772.446 1417.91,708.084 1515.29,646.787 1612.67,585.548 1710.05,523.977 1807.43,463.631 1904.81,405.591 2099.57,284.027 2294.33,149.148 "/>
<polyline clip-path="url(#clip542)" style="stroke:#3f9778; stroke-linecap:round; stroke-linejoin:round; stroke-width:4; stroke-opacity:1; fill:none" points="346.738,1365.26 444.118,1321.06 541.497,1269.29 638.877,1200.64 736.256,1139.64 833.636,1082.89 931.015,1024.35 1028.39,960.82 1125.77,899.974 1223.15,837.016 1320.53,773.57 1417.91,711.365 1515.29,648.661 1612.67,587.585 1710.05,526.51 1807.43,466.842 1904.81,407.102 2099.57,285.482 2294.33,150.761 "/>
<polyline clip-path="url(#clip542)" style="stroke:#005d7f; stroke-linecap:round; stroke-linejoin:round; stroke-width:4; stroke-opacity:1; fill:none" points="346.738,1378.44 444.118,1330.01 541.497,1275.98 638.877,1203.52 736.256,1142.39 833.636,1085.75 931.015,1026.38 1028.39,962.983 1125.77,901.623 1223.15,837.57 1320.53,774.288 1417.91,711.423 1515.29,648.604 1612.67,587.242 1710.05,525.15 1807.43,467.802 1904.81,407.131 2099.57,286.144 2294.33,150.651 "/>
<path clip-path="url(#clip540)" d="M357.125 352.309 L1038.57 352.309 L1038.57 93.1086 L357.125 93.1086  Z" fill="#363d46" fill-rule="evenodd" fill-opacity="1"/>
<polyline clip-path="url(#clip540)" style="stroke:#ffffff; stroke-linecap:round; stroke-linejoin:round; stroke-width:4; stroke-opacity:1; fill:none" points="357.125,352.309 1038.57,352.309 1038.57,93.1086 357.125,93.1086 357.125,352.309 "/>
<polyline clip-path="url(#clip540)" style="stroke:#fe4365; stroke-linecap:round; stroke-linejoin:round; stroke-width:4; stroke-opacity:1; fill:none" points="380.064,144.949 517.693,144.949 "/>
<path clip-path="url(#clip540)" d="M562.345 146.581 L562.345 162.229 L558.085 162.229 L558.085 146.719 Q558.085 143.039 556.65 141.21 Q555.215 139.382 552.345 139.382 Q548.896 139.382 546.905 141.581 Q544.914 143.78 544.914 147.576 L544.914 162.229 L540.632 162.229 L540.632 136.303 L544.914 136.303 L544.914 140.331 Q546.442 137.993 548.502 136.835 Q550.585 135.678 553.294 135.678 Q557.761 135.678 560.053 138.456 Q562.345 141.21 562.345 146.581 Z" fill="#ffffff" fill-rule="nonzero" fill-opacity="1" /><path clip-path="url(#clip540)" d="M582.622 149.196 Q577.46 149.196 575.469 150.377 Q573.479 151.557 573.479 154.405 Q573.479 156.673 574.96 158.016 Q576.465 159.335 579.034 159.335 Q582.576 159.335 584.706 156.835 Q586.858 154.312 586.858 150.145 L586.858 149.196 L582.622 149.196 M591.118 147.437 L591.118 162.229 L586.858 162.229 L586.858 158.293 Q585.4 160.655 583.224 161.789 Q581.048 162.9 577.9 162.9 Q573.919 162.9 571.557 160.678 Q569.22 158.432 569.22 154.682 Q569.22 150.307 572.136 148.085 Q575.076 145.863 580.886 145.863 L586.858 145.863 L586.858 145.446 Q586.858 142.507 584.914 140.909 Q582.993 139.289 579.497 139.289 Q577.275 139.289 575.169 139.821 Q573.062 140.354 571.118 141.419 L571.118 137.483 Q573.456 136.581 575.655 136.141 Q577.854 135.678 579.937 135.678 Q585.562 135.678 588.34 138.594 Q591.118 141.511 591.118 147.437 Z" fill="#ffffff" fill-rule="nonzero" fill-opacity="1" /><path clip-path="url(#clip540)" d="M599.891 136.303 L604.15 136.303 L604.15 162.229 L599.891 162.229 L599.891 136.303 M599.891 126.21 L604.15 126.21 L604.15 131.604 L599.891 131.604 L599.891 126.21 Z" fill="#ffffff" fill-rule="nonzero" fill-opacity="1" /><path clip-path="url(#clip540)" d="M610.006 136.303 L614.52 136.303 L622.622 158.062 L630.724 136.303 L635.238 136.303 L625.516 162.229 L619.729 162.229 L610.006 136.303 Z" fill="#ffffff" fill-rule="nonzero" fill-opacity="1" /><path clip-path="url(#clip540)" d="M663.293 148.201 L663.293 150.284 L643.71 150.284 Q643.988 154.682 646.349 156.997 Q648.733 159.289 652.969 159.289 Q655.423 159.289 657.714 158.687 Q660.029 158.085 662.298 156.881 L662.298 160.909 Q660.006 161.881 657.599 162.391 Q655.191 162.9 652.714 162.9 Q646.511 162.9 642.877 159.289 Q639.265 155.678 639.265 149.52 Q639.265 143.155 642.691 139.428 Q646.14 135.678 651.974 135.678 Q657.205 135.678 660.238 139.057 Q663.293 142.414 663.293 148.201 M659.034 146.951 Q658.988 143.456 657.066 141.372 Q655.168 139.289 652.02 139.289 Q648.455 139.289 646.302 141.303 Q644.173 143.317 643.849 146.974 L659.034 146.951 Z" fill="#ffffff" fill-rule="nonzero" fill-opacity="1" /><polyline clip-path="url(#clip540)" style="stroke:#eca25c; stroke-linecap:round; stroke-linejoin:round; stroke-width:4; stroke-opacity:1; fill:none" points="380.064,196.789 517.693,196.789 "/>
<path clip-path="url(#clip540)" d="M560.979 193.12 Q562.576 190.249 564.798 188.884 Q567.02 187.518 570.03 187.518 Q574.081 187.518 576.28 190.365 Q578.479 193.189 578.479 198.421 L578.479 214.069 L574.196 214.069 L574.196 198.559 Q574.196 194.833 572.877 193.027 Q571.557 191.222 568.849 191.222 Q565.539 191.222 563.618 193.421 Q561.696 195.62 561.696 199.416 L561.696 214.069 L557.414 214.069 L557.414 198.559 Q557.414 194.809 556.095 193.027 Q554.775 191.222 552.021 191.222 Q548.757 191.222 546.835 193.444 Q544.914 195.643 544.914 199.416 L544.914 214.069 L540.632 214.069 L540.632 188.143 L544.914 188.143 L544.914 192.171 Q546.372 189.786 548.409 188.652 Q550.446 187.518 553.247 187.518 Q556.071 187.518 558.039 188.953 Q560.03 190.388 560.979 193.12 Z" fill="#ffffff" fill-rule="nonzero" fill-opacity="1" /><path clip-path="url(#clip540)" d="M598.756 201.036 Q593.594 201.036 591.604 202.217 Q589.613 203.397 589.613 206.245 Q589.613 208.513 591.094 209.856 Q592.599 211.175 595.168 211.175 Q598.71 211.175 600.84 208.675 Q602.992 206.152 602.992 201.985 L602.992 201.036 L598.756 201.036 M607.252 199.277 L607.252 214.069 L602.992 214.069 L602.992 210.133 Q601.534 212.495 599.358 213.629 Q597.182 214.74 594.034 214.74 Q590.053 214.74 587.692 212.518 Q585.354 210.272 585.354 206.522 Q585.354 202.147 588.27 199.925 Q591.21 197.703 597.02 197.703 L602.992 197.703 L602.992 197.286 Q602.992 194.347 601.048 192.749 Q599.127 191.129 595.631 191.129 Q593.409 191.129 591.303 191.661 Q589.196 192.194 587.252 193.259 L587.252 189.323 Q589.59 188.421 591.789 187.981 Q593.988 187.518 596.071 187.518 Q601.696 187.518 604.474 190.434 Q607.252 193.351 607.252 199.277 Z" fill="#ffffff" fill-rule="nonzero" fill-opacity="1" /><path clip-path="url(#clip540)" d="M637.576 198.421 L637.576 214.069 L633.316 214.069 L633.316 198.559 Q633.316 194.879 631.881 193.05 Q630.446 191.222 627.576 191.222 Q624.127 191.222 622.136 193.421 Q620.145 195.62 620.145 199.416 L620.145 214.069 L615.863 214.069 L615.863 188.143 L620.145 188.143 L620.145 192.171 Q621.673 189.833 623.733 188.675 Q625.816 187.518 628.525 187.518 Q632.992 187.518 635.284 190.296 Q637.576 193.05 637.576 198.421 Z" fill="#ffffff" fill-rule="nonzero" fill-opacity="1" /><path clip-path="url(#clip540)" d="M645.631 203.837 L645.631 188.143 L649.89 188.143 L649.89 203.675 Q649.89 207.356 651.326 209.208 Q652.761 211.036 655.631 211.036 Q659.08 211.036 661.071 208.837 Q663.085 206.638 663.085 202.842 L663.085 188.143 L667.344 188.143 L667.344 214.069 L663.085 214.069 L663.085 210.087 Q661.534 212.448 659.474 213.606 Q657.437 214.74 654.728 214.74 Q650.261 214.74 647.946 211.962 Q645.631 209.184 645.631 203.837 M656.349 187.518 L656.349 187.518 Z" fill="#ffffff" fill-rule="nonzero" fill-opacity="1" /><path clip-path="url(#clip540)" d="M687.899 201.036 Q682.737 201.036 680.747 202.217 Q678.756 203.397 678.756 206.245 Q678.756 208.513 680.237 209.856 Q681.742 211.175 684.312 211.175 Q687.853 211.175 689.983 208.675 Q692.136 206.152 692.136 201.985 L692.136 201.036 L687.899 201.036 M696.395 199.277 L696.395 214.069 L692.136 214.069 L692.136 210.133 Q690.677 212.495 688.501 213.629 Q686.325 214.74 683.177 214.74 Q679.196 214.74 676.835 212.518 Q674.497 210.272 674.497 206.522 Q674.497 202.147 677.413 199.925 Q680.353 197.703 686.163 197.703 L692.136 197.703 L692.136 197.286 Q692.136 194.347 690.191 192.749 Q688.27 191.129 684.774 191.129 Q682.552 191.129 680.446 191.661 Q678.339 192.194 676.395 193.259 L676.395 189.323 Q678.733 188.421 680.932 187.981 Q683.131 187.518 685.214 187.518 Q690.839 187.518 693.617 190.434 Q696.395 193.351 696.395 199.277 Z" fill="#ffffff" fill-rule="nonzero" fill-opacity="1" /><path clip-path="url(#clip540)" d="M705.168 178.05 L709.427 178.05 L709.427 214.069 L705.168 214.069 L705.168 178.05 Z" fill="#ffffff" fill-rule="nonzero" fill-opacity="1" /><path clip-path="url(#clip540)" d="M738.038 221.939 L738.038 225.249 L713.409 225.249 L713.409 221.939 L738.038 221.939 Z" fill="#ffffff" fill-rule="nonzero" fill-opacity="1" /><path clip-path="url(#clip540)" d="M758.57 188.907 L758.57 192.934 Q756.765 192.009 754.82 191.546 Q752.876 191.083 750.793 191.083 Q747.621 191.083 746.024 192.055 Q744.45 193.027 744.45 194.971 Q744.45 196.453 745.584 197.309 Q746.719 198.143 750.144 198.907 L751.603 199.231 Q756.14 200.203 758.038 201.985 Q759.959 203.745 759.959 206.916 Q759.959 210.527 757.089 212.633 Q754.242 214.74 749.242 214.74 Q747.158 214.74 744.89 214.323 Q742.645 213.93 740.145 213.12 L740.145 208.721 Q742.506 209.948 744.797 210.573 Q747.089 211.175 749.334 211.175 Q752.344 211.175 753.964 210.157 Q755.584 209.115 755.584 207.24 Q755.584 205.504 754.404 204.578 Q753.246 203.652 749.288 202.796 L747.807 202.448 Q743.848 201.615 742.089 199.902 Q740.33 198.166 740.33 195.157 Q740.33 191.499 742.922 189.509 Q745.515 187.518 750.283 187.518 Q752.644 187.518 754.728 187.865 Q756.811 188.212 758.57 188.907 Z" fill="#ffffff" fill-rule="nonzero" fill-opacity="1" /><path clip-path="url(#clip540)" d="M788.917 200.041 L788.917 202.124 L769.334 202.124 Q769.612 206.522 771.973 208.837 Q774.357 211.129 778.593 211.129 Q781.047 211.129 783.339 210.527 Q785.654 209.925 787.922 208.721 L787.922 212.749 Q785.63 213.721 783.223 214.231 Q780.816 214.74 778.339 214.74 Q772.135 214.74 768.501 211.129 Q764.89 207.518 764.89 201.36 Q764.89 194.995 768.316 191.268 Q771.765 187.518 777.598 187.518 Q782.829 187.518 785.862 190.897 Q788.917 194.254 788.917 200.041 M784.658 198.791 Q784.612 195.296 782.691 193.212 Q780.792 191.129 777.644 191.129 Q774.08 191.129 771.927 193.143 Q769.797 195.157 769.473 198.814 L784.658 198.791 Z" fill="#ffffff" fill-rule="nonzero" fill-opacity="1" /><path clip-path="url(#clip540)" d="M810.931 192.124 Q810.214 191.708 809.357 191.522 Q808.524 191.314 807.505 191.314 Q803.894 191.314 801.95 193.675 Q800.028 196.013 800.028 200.411 L800.028 214.069 L795.746 214.069 L795.746 188.143 L800.028 188.143 L800.028 192.171 Q801.371 189.809 803.524 188.675 Q805.677 187.518 808.755 187.518 Q809.195 187.518 809.728 187.587 Q810.26 187.634 810.908 187.749 L810.931 192.124 Z" fill="#ffffff" fill-rule="nonzero" fill-opacity="1" /><path clip-path="url(#clip540)" d="M815.399 188.143 L819.658 188.143 L819.658 214.069 L815.399 214.069 L815.399 188.143 M815.399 178.05 L819.658 178.05 L819.658 183.444 L815.399 183.444 L815.399 178.05 Z" fill="#ffffff" fill-rule="nonzero" fill-opacity="1" /><path clip-path="url(#clip540)" d="M840.352 201.036 Q835.19 201.036 833.2 202.217 Q831.209 203.397 831.209 206.245 Q831.209 208.513 832.69 209.856 Q834.195 211.175 836.764 211.175 Q840.306 211.175 842.436 208.675 Q844.588 206.152 844.588 201.985 L844.588 201.036 L840.352 201.036 M848.848 199.277 L848.848 214.069 L844.588 214.069 L844.588 210.133 Q843.13 212.495 840.954 213.629 Q838.778 214.74 835.63 214.74 Q831.649 214.74 829.288 212.518 Q826.95 210.272 826.95 206.522 Q826.95 202.147 829.866 199.925 Q832.806 197.703 838.616 197.703 L844.588 197.703 L844.588 197.286 Q844.588 194.347 842.644 192.749 Q840.723 191.129 837.227 191.129 Q835.005 191.129 832.899 191.661 Q830.792 192.194 828.848 193.259 L828.848 189.323 Q831.186 188.421 833.385 187.981 Q835.584 187.518 837.667 187.518 Q843.292 187.518 846.07 190.434 Q848.848 193.351 848.848 199.277 Z" fill="#ffffff" fill-rule="nonzero" fill-opacity="1" /><path clip-path="url(#clip540)" d="M857.621 178.05 L861.88 178.05 L861.88 214.069 L857.621 214.069 L857.621 178.05 Z" fill="#ffffff" fill-rule="nonzero" fill-opacity="1" /><path clip-path="url(#clip540)" d="M870.792 188.143 L875.051 188.143 L875.051 214.069 L870.792 214.069 L870.792 188.143 M870.792 178.05 L875.051 178.05 L875.051 183.444 L870.792 183.444 L870.792 178.05 Z" fill="#ffffff" fill-rule="nonzero" fill-opacity="1" /><path clip-path="url(#clip540)" d="M882.111 188.143 L902.343 188.143 L902.343 192.032 L886.324 210.666 L902.343 210.666 L902.343 214.069 L881.533 214.069 L881.533 210.18 L897.551 191.546 L882.111 191.546 L882.111 188.143 Z" fill="#ffffff" fill-rule="nonzero" fill-opacity="1" /><path clip-path="url(#clip540)" d="M931.023 200.041 L931.023 202.124 L911.44 202.124 Q911.718 206.522 914.079 208.837 Q916.463 211.129 920.699 211.129 Q923.153 211.129 925.444 210.527 Q927.759 209.925 930.028 208.721 L930.028 212.749 Q927.736 213.721 925.329 214.231 Q922.921 214.74 920.445 214.74 Q914.241 214.74 910.607 211.129 Q906.995 207.518 906.995 201.36 Q906.995 194.995 910.421 191.268 Q913.87 187.518 919.704 187.518 Q924.935 187.518 927.968 190.897 Q931.023 194.254 931.023 200.041 M926.764 198.791 Q926.718 195.296 924.796 193.212 Q922.898 191.129 919.75 191.129 Q916.185 191.129 914.032 193.143 Q911.903 195.157 911.579 198.814 L926.764 198.791 Z" fill="#ffffff" fill-rule="nonzero" fill-opacity="1" /><polyline clip-path="url(#clip540)" style="stroke:#3f9778; stroke-linecap:round; stroke-linejoin:round; stroke-width:4; stroke-opacity:1; fill:none" points="380.064,248.629 517.693,248.629 "/>
<path clip-path="url(#clip540)" d="M557.136 229.89 L557.136 233.432 L553.062 233.432 Q550.771 233.432 549.868 234.358 Q548.988 235.284 548.988 237.691 L548.988 239.983 L556.002 239.983 L556.002 243.293 L548.988 243.293 L548.988 265.909 L544.706 265.909 L544.706 243.293 L540.632 243.293 L540.632 239.983 L544.706 239.983 L544.706 238.177 Q544.706 233.849 546.72 231.881 Q548.734 229.89 553.109 229.89 L557.136 229.89 Z" fill="#ffffff" fill-rule="nonzero" fill-opacity="1" /><path clip-path="url(#clip540)" d="M570.747 242.969 Q567.321 242.969 565.331 245.654 Q563.34 248.316 563.34 252.969 Q563.34 257.622 565.308 260.307 Q567.298 262.969 570.747 262.969 Q574.15 262.969 576.141 260.284 Q578.132 257.598 578.132 252.969 Q578.132 248.362 576.141 245.677 Q574.15 242.969 570.747 242.969 M570.747 239.358 Q576.303 239.358 579.474 242.969 Q582.645 246.58 582.645 252.969 Q582.645 259.335 579.474 262.969 Q576.303 266.58 570.747 266.58 Q565.169 266.58 561.997 262.969 Q558.849 259.335 558.849 252.969 Q558.849 246.58 561.997 242.969 Q565.169 239.358 570.747 239.358 Z" fill="#ffffff" fill-rule="nonzero" fill-opacity="1" /><path clip-path="url(#clip540)" d="M604.729 243.964 Q604.011 243.548 603.155 243.362 Q602.321 243.154 601.303 243.154 Q597.692 243.154 595.747 245.515 Q593.826 247.853 593.826 252.251 L593.826 265.909 L589.543 265.909 L589.543 239.983 L593.826 239.983 L593.826 244.011 Q595.168 241.649 597.321 240.515 Q599.474 239.358 602.553 239.358 Q602.992 239.358 603.525 239.427 Q604.057 239.474 604.705 239.589 L604.729 243.964 Z" fill="#ffffff" fill-rule="nonzero" fill-opacity="1" /><path clip-path="url(#clip540)" d="M628.548 244.96 Q630.145 242.089 632.367 240.724 Q634.59 239.358 637.599 239.358 Q641.65 239.358 643.849 242.205 Q646.048 245.029 646.048 250.261 L646.048 265.909 L641.765 265.909 L641.765 250.399 Q641.765 246.673 640.446 244.867 Q639.127 243.062 636.418 243.062 Q633.108 243.062 631.187 245.261 Q629.266 247.46 629.266 251.256 L629.266 265.909 L624.983 265.909 L624.983 250.399 Q624.983 246.649 623.664 244.867 Q622.344 243.062 619.59 243.062 Q616.326 243.062 614.404 245.284 Q612.483 247.483 612.483 251.256 L612.483 265.909 L608.201 265.909 L608.201 239.983 L612.483 239.983 L612.483 244.011 Q613.942 241.626 615.979 240.492 Q618.016 239.358 620.816 239.358 Q623.641 239.358 625.608 240.793 Q627.599 242.228 628.548 244.96 Z" fill="#ffffff" fill-rule="nonzero" fill-opacity="1" /><path clip-path="url(#clip540)" d="M666.325 252.876 Q661.163 252.876 659.173 254.057 Q657.182 255.237 657.182 258.085 Q657.182 260.353 658.663 261.696 Q660.168 263.015 662.738 263.015 Q666.279 263.015 668.409 260.515 Q670.562 257.992 670.562 253.825 L670.562 252.876 L666.325 252.876 M674.821 251.117 L674.821 265.909 L670.562 265.909 L670.562 261.973 Q669.103 264.335 666.927 265.469 Q664.751 266.58 661.603 266.58 Q657.622 266.58 655.261 264.358 Q652.923 262.112 652.923 258.362 Q652.923 253.987 655.839 251.765 Q658.779 249.543 664.589 249.543 L670.562 249.543 L670.562 249.126 Q670.562 246.187 668.617 244.589 Q666.696 242.969 663.201 242.969 Q660.978 242.969 658.872 243.501 Q656.765 244.034 654.821 245.099 L654.821 241.163 Q657.159 240.261 659.358 239.821 Q661.557 239.358 663.64 239.358 Q669.265 239.358 672.043 242.274 Q674.821 245.191 674.821 251.117 Z" fill="#ffffff" fill-rule="nonzero" fill-opacity="1" /><path clip-path="url(#clip540)" d="M687.807 232.622 L687.807 239.983 L696.58 239.983 L696.58 243.293 L687.807 243.293 L687.807 257.367 Q687.807 260.538 688.663 261.441 Q689.543 262.344 692.205 262.344 L696.58 262.344 L696.58 265.909 L692.205 265.909 Q687.274 265.909 685.399 264.08 Q683.524 262.228 683.524 257.367 L683.524 243.293 L680.399 243.293 L680.399 239.983 L683.524 239.983 L683.524 232.622 L687.807 232.622 Z" fill="#ffffff" fill-rule="nonzero" fill-opacity="1" /><path clip-path="url(#clip540)" d="M706.395 232.622 L706.395 239.983 L715.168 239.983 L715.168 243.293 L706.395 243.293 L706.395 257.367 Q706.395 260.538 707.251 261.441 Q708.131 262.344 710.793 262.344 L715.168 262.344 L715.168 265.909 L710.793 265.909 Q705.862 265.909 703.987 264.08 Q702.112 262.228 702.112 257.367 L702.112 243.293 L698.987 243.293 L698.987 239.983 L702.112 239.983 L702.112 232.622 L706.395 232.622 Z" fill="#ffffff" fill-rule="nonzero" fill-opacity="1" /><path clip-path="url(#clip540)" d="M742.945 251.881 L742.945 253.964 L723.362 253.964 Q723.64 258.362 726.001 260.677 Q728.385 262.969 732.621 262.969 Q735.075 262.969 737.367 262.367 Q739.682 261.765 741.95 260.561 L741.95 264.589 Q739.658 265.561 737.251 266.071 Q734.844 266.58 732.367 266.58 Q726.163 266.58 722.529 262.969 Q718.918 259.358 718.918 253.2 Q718.918 246.835 722.344 243.108 Q725.793 239.358 731.626 239.358 Q736.858 239.358 739.89 242.737 Q742.945 246.094 742.945 251.881 M738.686 250.631 Q738.64 247.136 736.719 245.052 Q734.82 242.969 731.672 242.969 Q728.108 242.969 725.955 244.983 Q723.825 246.997 723.501 250.654 L738.686 250.631 Z" fill="#ffffff" fill-rule="nonzero" fill-opacity="1" /><path clip-path="url(#clip540)" d="M764.959 243.964 Q764.242 243.548 763.385 243.362 Q762.552 243.154 761.533 243.154 Q757.922 243.154 755.978 245.515 Q754.057 247.853 754.057 252.251 L754.057 265.909 L749.774 265.909 L749.774 239.983 L754.057 239.983 L754.057 244.011 Q755.399 241.649 757.552 240.515 Q759.705 239.358 762.783 239.358 Q763.223 239.358 763.756 239.427 Q764.288 239.474 764.936 239.589 L764.959 243.964 Z" fill="#ffffff" fill-rule="nonzero" fill-opacity="1" /><polyline clip-path="url(#clip540)" style="stroke:#005d7f; stroke-linecap:round; stroke-linejoin:round; stroke-width:4; stroke-opacity:1; fill:none" points="380.064,300.469 517.693,300.469 "/>
<path clip-path="url(#clip540)" d="M559.058 292.587 L559.058 296.614 Q557.252 295.689 555.308 295.226 Q553.363 294.763 551.28 294.763 Q548.109 294.763 546.511 295.735 Q544.937 296.707 544.937 298.651 Q544.937 300.133 546.072 300.989 Q547.206 301.823 550.632 302.587 L552.09 302.911 Q556.627 303.883 558.525 305.665 Q560.446 307.425 560.446 310.596 Q560.446 314.207 557.576 316.313 Q554.729 318.42 549.729 318.42 Q547.646 318.42 545.377 318.003 Q543.132 317.61 540.632 316.8 L540.632 312.401 Q542.993 313.628 545.284 314.253 Q547.576 314.855 549.821 314.855 Q552.831 314.855 554.451 313.837 Q556.071 312.795 556.071 310.92 Q556.071 309.184 554.891 308.258 Q553.734 307.332 549.775 306.476 L548.294 306.128 Q544.335 305.295 542.576 303.582 Q540.817 301.846 540.817 298.837 Q540.817 295.179 543.409 293.189 Q546.002 291.198 550.771 291.198 Q553.132 291.198 555.215 291.545 Q557.298 291.892 559.058 292.587 Z" fill="#ffffff" fill-rule="nonzero" fill-opacity="1" /><path clip-path="url(#clip540)" d="M589.405 303.721 L589.405 305.804 L569.821 305.804 Q570.099 310.202 572.46 312.517 Q574.845 314.809 579.081 314.809 Q581.534 314.809 583.826 314.207 Q586.141 313.605 588.409 312.401 L588.409 316.429 Q586.118 317.401 583.71 317.911 Q581.303 318.42 578.826 318.42 Q572.622 318.42 568.988 314.809 Q565.377 311.198 565.377 305.04 Q565.377 298.675 568.803 294.948 Q572.252 291.198 578.085 291.198 Q583.317 291.198 586.349 294.577 Q589.405 297.934 589.405 303.721 M585.145 302.471 Q585.099 298.976 583.178 296.892 Q581.28 294.809 578.132 294.809 Q574.567 294.809 572.414 296.823 Q570.284 298.837 569.96 302.494 L585.145 302.471 Z" fill="#ffffff" fill-rule="nonzero" fill-opacity="1" /><path clip-path="url(#clip540)" d="M598.942 304.809 Q598.942 309.508 600.863 312.193 Q602.807 314.855 606.187 314.855 Q609.567 314.855 611.511 312.193 Q613.455 309.508 613.455 304.809 Q613.455 300.11 611.511 297.448 Q609.567 294.763 606.187 294.763 Q602.807 294.763 600.863 297.448 Q598.942 300.11 598.942 304.809 M613.455 313.86 Q612.113 316.175 610.053 317.309 Q608.016 318.42 605.145 318.42 Q600.446 318.42 597.483 314.67 Q594.543 310.92 594.543 304.809 Q594.543 298.698 597.483 294.948 Q600.446 291.198 605.145 291.198 Q608.016 291.198 610.053 292.332 Q612.113 293.443 613.455 295.758 L613.455 291.823 L617.715 291.823 L617.715 327.61 L613.455 327.61 L613.455 313.86 Z" fill="#ffffff" fill-rule="nonzero" fill-opacity="1" /><path clip-path="url(#clip540)" d="M626.048 307.517 L626.048 291.823 L630.307 291.823 L630.307 307.355 Q630.307 311.036 631.742 312.888 Q633.178 314.716 636.048 314.716 Q639.497 314.716 641.488 312.517 Q643.502 310.318 643.502 306.522 L643.502 291.823 L647.761 291.823 L647.761 317.749 L643.502 317.749 L643.502 313.767 Q641.951 316.128 639.89 317.286 Q637.853 318.42 635.145 318.42 Q630.678 318.42 628.363 315.642 Q626.048 312.864 626.048 307.517 M636.765 291.198 L636.765 291.198 Z" fill="#ffffff" fill-rule="nonzero" fill-opacity="1" /><path clip-path="url(#clip540)" d="M678.71 303.721 L678.71 305.804 L659.126 305.804 Q659.404 310.202 661.765 312.517 Q664.15 314.809 668.386 314.809 Q670.839 314.809 673.131 314.207 Q675.446 313.605 677.714 312.401 L677.714 316.429 Q675.423 317.401 673.015 317.911 Q670.608 318.42 668.131 318.42 Q661.927 318.42 658.293 314.809 Q654.682 311.198 654.682 305.04 Q654.682 298.675 658.108 294.948 Q661.557 291.198 667.39 291.198 Q672.622 291.198 675.654 294.577 Q678.71 297.934 678.71 303.721 M674.45 302.471 Q674.404 298.976 672.483 296.892 Q670.585 294.809 667.437 294.809 Q663.872 294.809 661.719 296.823 Q659.589 298.837 659.265 302.494 L674.45 302.471 Z" fill="#ffffff" fill-rule="nonzero" fill-opacity="1" /><path clip-path="url(#clip540)" d="M707.251 302.101 L707.251 317.749 L702.992 317.749 L702.992 302.239 Q702.992 298.559 701.557 296.73 Q700.122 294.902 697.251 294.902 Q693.802 294.902 691.811 297.101 Q689.821 299.3 689.821 303.096 L689.821 317.749 L685.538 317.749 L685.538 291.823 L689.821 291.823 L689.821 295.851 Q691.349 293.513 693.409 292.355 Q695.492 291.198 698.2 291.198 Q702.668 291.198 704.96 293.976 Q707.251 296.73 707.251 302.101 Z" fill="#ffffff" fill-rule="nonzero" fill-opacity="1" /><path clip-path="url(#clip540)" d="M734.404 292.818 L734.404 296.8 Q732.598 295.804 730.77 295.318 Q728.964 294.809 727.112 294.809 Q722.969 294.809 720.677 297.448 Q718.385 300.064 718.385 304.809 Q718.385 309.554 720.677 312.193 Q722.969 314.809 727.112 314.809 Q728.964 314.809 730.77 314.323 Q732.598 313.813 734.404 312.818 L734.404 316.753 Q732.621 317.587 730.7 318.003 Q728.802 318.42 726.649 318.42 Q720.793 318.42 717.344 314.739 Q713.895 311.059 713.895 304.809 Q713.895 298.466 717.367 294.832 Q720.862 291.198 726.927 291.198 Q728.895 291.198 730.77 291.615 Q732.645 292.008 734.404 292.818 Z" fill="#ffffff" fill-rule="nonzero" fill-opacity="1" /><path clip-path="url(#clip540)" d="M763.987 303.721 L763.987 305.804 L744.404 305.804 Q744.682 310.202 747.043 312.517 Q749.427 314.809 753.663 314.809 Q756.117 314.809 758.408 314.207 Q760.723 313.605 762.992 312.401 L762.992 316.429 Q760.7 317.401 758.293 317.911 Q755.885 318.42 753.408 318.42 Q747.205 318.42 743.57 314.809 Q739.959 311.198 739.959 305.04 Q739.959 298.675 743.385 294.948 Q746.834 291.198 752.668 291.198 Q757.899 291.198 760.931 294.577 Q763.987 297.934 763.987 303.721 M759.728 302.471 Q759.681 298.976 757.76 296.892 Q755.862 294.809 752.714 294.809 Q749.149 294.809 746.996 296.823 Q744.867 298.837 744.543 302.494 L759.728 302.471 Z" fill="#ffffff" fill-rule="nonzero" fill-opacity="1" /><path clip-path="url(#clip540)" d="M790.677 325.619 L790.677 328.929 L766.047 328.929 L766.047 325.619 L790.677 325.619 Z" fill="#ffffff" fill-rule="nonzero" fill-opacity="1" /><path clip-path="url(#clip540)" d="M807.806 281.73 L807.806 285.272 L803.732 285.272 Q801.441 285.272 800.538 286.198 Q799.658 287.124 799.658 289.531 L799.658 291.823 L806.672 291.823 L806.672 295.133 L799.658 295.133 L799.658 317.749 L795.376 317.749 L795.376 295.133 L791.302 295.133 L791.302 291.823 L795.376 291.823 L795.376 290.017 Q795.376 285.689 797.39 283.721 Q799.403 281.73 803.778 281.73 L807.806 281.73 Z" fill="#ffffff" fill-rule="nonzero" fill-opacity="1" /><path clip-path="url(#clip540)" d="M821.417 294.809 Q817.991 294.809 816.001 297.494 Q814.01 300.156 814.01 304.809 Q814.01 309.462 815.977 312.147 Q817.968 314.809 821.417 314.809 Q824.82 314.809 826.811 312.124 Q828.801 309.438 828.801 304.809 Q828.801 300.202 826.811 297.517 Q824.82 294.809 821.417 294.809 M821.417 291.198 Q826.973 291.198 830.144 294.809 Q833.315 298.42 833.315 304.809 Q833.315 311.175 830.144 314.809 Q826.973 318.42 821.417 318.42 Q815.839 318.42 812.667 314.809 Q809.519 311.175 809.519 304.809 Q809.519 298.42 812.667 294.809 Q815.839 291.198 821.417 291.198 Z" fill="#ffffff" fill-rule="nonzero" fill-opacity="1" /><path clip-path="url(#clip540)" d="M855.399 295.804 Q854.681 295.388 853.824 295.202 Q852.991 294.994 851.973 294.994 Q848.362 294.994 846.417 297.355 Q844.496 299.693 844.496 304.091 L844.496 317.749 L840.213 317.749 L840.213 291.823 L844.496 291.823 L844.496 295.851 Q845.838 293.489 847.991 292.355 Q850.144 291.198 853.223 291.198 Q853.662 291.198 854.195 291.267 Q854.727 291.314 855.375 291.429 L855.399 295.804 Z" fill="#ffffff" fill-rule="nonzero" fill-opacity="1" /><path clip-path="url(#clip540)" d="M879.218 296.8 Q880.815 293.929 883.037 292.564 Q885.26 291.198 888.269 291.198 Q892.32 291.198 894.519 294.045 Q896.718 296.869 896.718 302.101 L896.718 317.749 L892.435 317.749 L892.435 302.239 Q892.435 298.513 891.116 296.707 Q889.797 294.902 887.088 294.902 Q883.778 294.902 881.857 297.101 Q879.935 299.3 879.935 303.096 L879.935 317.749 L875.653 317.749 L875.653 302.239 Q875.653 298.489 874.334 296.707 Q873.014 294.902 870.26 294.902 Q866.996 294.902 865.074 297.124 Q863.153 299.323 863.153 303.096 L863.153 317.749 L858.871 317.749 L858.871 291.823 L863.153 291.823 L863.153 295.851 Q864.611 293.466 866.648 292.332 Q868.686 291.198 871.486 291.198 Q874.31 291.198 876.278 292.633 Q878.269 294.068 879.218 296.8 Z" fill="#ffffff" fill-rule="nonzero" fill-opacity="1" /><path clip-path="url(#clip540)" d="M916.995 304.716 Q911.833 304.716 909.843 305.897 Q907.852 307.077 907.852 309.925 Q907.852 312.193 909.333 313.536 Q910.838 314.855 913.408 314.855 Q916.949 314.855 919.079 312.355 Q921.232 309.832 921.232 305.665 L921.232 304.716 L916.995 304.716 M925.491 302.957 L925.491 317.749 L921.232 317.749 L921.232 313.813 Q919.773 316.175 917.597 317.309 Q915.421 318.42 912.273 318.42 Q908.292 318.42 905.931 316.198 Q903.593 313.952 903.593 310.202 Q903.593 305.827 906.509 303.605 Q909.449 301.383 915.259 301.383 L921.232 301.383 L921.232 300.966 Q921.232 298.027 919.287 296.429 Q917.366 294.809 913.87 294.809 Q911.648 294.809 909.542 295.341 Q907.435 295.874 905.491 296.939 L905.491 293.003 Q907.829 292.101 910.028 291.661 Q912.227 291.198 914.31 291.198 Q919.935 291.198 922.713 294.114 Q925.491 297.031 925.491 302.957 Z" fill="#ffffff" fill-rule="nonzero" fill-opacity="1" /><path clip-path="url(#clip540)" d="M938.477 284.462 L938.477 291.823 L947.25 291.823 L947.25 295.133 L938.477 295.133 L938.477 309.207 Q938.477 312.378 939.333 313.281 Q940.213 314.184 942.875 314.184 L947.25 314.184 L947.25 317.749 L942.875 317.749 Q937.944 317.749 936.069 315.92 Q934.194 314.068 934.194 309.207 L934.194 295.133 L931.069 295.133 L931.069 291.823 L934.194 291.823 L934.194 284.462 L938.477 284.462 Z" fill="#ffffff" fill-rule="nonzero" fill-opacity="1" /><path clip-path="url(#clip540)" d="M957.065 284.462 L957.065 291.823 L965.838 291.823 L965.838 295.133 L957.065 295.133 L957.065 309.207 Q957.065 312.378 957.921 313.281 Q958.801 314.184 961.463 314.184 L965.838 314.184 L965.838 317.749 L961.463 317.749 Q956.532 317.749 954.657 315.92 Q952.782 314.068 952.782 309.207 L952.782 295.133 L949.657 295.133 L949.657 291.823 L952.782 291.823 L952.782 284.462 L957.065 284.462 Z" fill="#ffffff" fill-rule="nonzero" fill-opacity="1" /><path clip-path="url(#clip540)" d="M993.615 303.721 L993.615 305.804 L974.032 305.804 Q974.31 310.202 976.671 312.517 Q979.055 314.809 983.291 314.809 Q985.745 314.809 988.037 314.207 Q990.352 313.605 992.62 312.401 L992.62 316.429 Q990.328 317.401 987.921 317.911 Q985.514 318.42 983.037 318.42 Q976.833 318.42 973.199 314.809 Q969.588 311.198 969.588 305.04 Q969.588 298.675 973.014 294.948 Q976.463 291.198 982.296 291.198 Q987.527 291.198 990.56 294.577 Q993.615 297.934 993.615 303.721 M989.356 302.471 Q989.31 298.976 987.389 296.892 Q985.49 294.809 982.342 294.809 Q978.778 294.809 976.625 296.823 Q974.495 298.837 974.171 302.494 L989.356 302.471 Z" fill="#ffffff" fill-rule="nonzero" fill-opacity="1" /><path clip-path="url(#clip540)" d="M1015.63 295.804 Q1014.91 295.388 1014.06 295.202 Q1013.22 294.994 1012.2 294.994 Q1008.59 294.994 1006.65 297.355 Q1004.73 299.693 1004.73 304.091 L1004.73 317.749 L1000.44 317.749 L1000.44 291.823 L1004.73 291.823 L1004.73 295.851 Q1006.07 293.489 1008.22 292.355 Q1010.37 291.198 1013.45 291.198 Q1013.89 291.198 1014.43 291.267 Q1014.96 291.314 1015.61 291.429 L1015.63 295.804 Z" fill="#ffffff" fill-rule="nonzero" fill-opacity="1" /></svg>
